<?xml version="1.0" encoding="UTF-8"?>
<svg id="Layer_2" data-name="Layer 2" xmlns="http://www.w3.org/2000/svg" xmlns:xlink="http://www.w3.org/1999/xlink" viewBox="0 0 316.17 35.45">
  <defs>
    <style>
      .cls-1, .cls-2 {
        fill: none;
      }

      .cls-2 {
        clip-path: url(#clippath);
      }

      .cls-3 {
        fill: url(#linear-gradient);
      }
    </style>
    <clipPath id="clippath">
      <path class="cls-1" d="m135,32.6c-.73,0-1.24.5-1.24,1.22s.51,1.21,1.24,1.21h22.96c.73,0,1.24-.5,1.24-1.21s-.51-1.22-1.24-1.22h-22.96Zm0-16.11c-.73,0-1.24.51-1.24,1.24s.51,1.24,1.24,1.24h20.65c.73,0,1.24-.51,1.24-1.24s-.51-1.24-1.24-1.24h-20.65ZM4.97,5.39C1.67,8.69,0,12.84,0,17.73s1.67,9.04,4.97,12.34c3.3,3.29,7.45,4.97,12.34,4.97s9.08-1.66,12.36-4.94c.23-.23.36-.55.36-.88v-11.48c0-.73-.51-1.24-1.24-1.24H12.72c-.73,0-1.24.51-1.24,1.24s.51,1.24,1.24,1.24h14.82v9.71c-2.79,2.64-6.14,3.92-10.24,3.92s-7.77-1.39-10.63-4.25c-2.82-2.82-4.25-6.39-4.25-10.63s1.39-7.77,4.25-10.63c2.82-2.82,6.4-4.25,10.63-4.25s7.79,1.44,10.6,4.27c.23.23.54.36.88.36.73,0,1.24-.51,1.24-1.24,0-.33-.13-.64-.36-.88C26.39,2.08,22.23.42,17.31.42s-9.04,1.67-12.34,4.97m42.4,22.92c-2.73-2.85-4.11-6.42-4.11-10.59s1.38-7.74,4.11-10.59c2.75-2.88,6.14-4.29,10.35-4.29s7.88,1.47,10.84,4.36c2.99,2.93,4.45,6.37,4.45,10.52s-1.45,7.59-4.45,10.52c-2.95,2.89-6.6,4.36-10.84,4.36s-7.6-1.4-10.35-4.28m1.64-25.55c-2.58,1.55-4.61,3.67-6.04,6.31-1.42,2.62-2.14,5.53-2.14,8.66s.72,6.03,2.14,8.66c1.43,2.63,3.46,4.76,6.04,6.31,2.58,1.55,5.52,2.34,8.72,2.34,4.88,0,9.1-1.7,12.53-5.06,3.44-3.37,5.18-7.49,5.18-12.24s-1.74-8.87-5.18-12.24c-3.43-3.36-7.65-5.06-12.53-5.06-3.2,0-6.13.79-8.72,2.34M97.46.42c-.69,0-1.19.51-1.19,1.21s.5,1.21,1.19,1.21h10.76c2.88,0,5.17.37,6.78,1.1,2.09.98,3.1,2.59,3.1,4.92s-1.04,4.1-3.17,5.19c-1.69.86-3.94,1.29-6.71,1.29h-10.76c-.69,0-1.19.51-1.19,1.22s.5,1.21,1.19,1.21h11.48c2.93,0,5.28.44,6.95,1.29,2.25,1.19,3.34,3.17,3.34,6.07s-1.11,4.85-3.4,6.07c-1.68.92-4,1.38-6.89,1.38h-11.48c-.69,0-1.19.51-1.19,1.22s.5,1.21,1.19,1.21h11.48c3.29,0,6-.58,8.03-1.7,3.11-1.63,4.69-4.39,4.69-8.19s-1.58-6.56-4.69-8.19h0c-.4-.21-.84-.4-1.3-.57.13-.06.25-.13.37-.19,2.95-1.53,4.44-3.99,4.44-7.32s-1.51-5.73-4.47-7.08c-1.93-.91-4.55-1.37-7.79-1.37h-10.76Zm37.53,0c-.73,0-1.24.5-1.24,1.21s.51,1.21,1.24,1.21h22.96c.73,0,1.24-.5,1.24-1.21s-.51-1.21-1.24-1.21h-22.96Zm62.84.49l-12.8,16.31L172.23.97c-.23-.35-.59-.54-.99-.54-.73,0-1.24.51-1.24,1.24,0,.2.06.5.32.78l13.48,17.23v14.16c0,.69.51,1.19,1.22,1.19s1.21-.5,1.21-1.24v-14.11l13.56-17.26.1-.16c.09-.19.14-.39.14-.59,0-.73-.51-1.24-1.24-1.24-.4,0-.76.2-.95.49m15.98,27.4c-2.73-2.85-4.11-6.42-4.11-10.59s1.38-7.74,4.11-10.59c2.75-2.88,6.14-4.29,10.35-4.29s7.88,1.47,10.84,4.36c2.99,2.93,4.45,6.37,4.45,10.52s-1.46,7.59-4.45,10.52h0c-2.96,2.89-6.6,4.36-10.84,4.36s-7.6-1.4-10.35-4.28m1.64-25.55c-2.58,1.55-4.61,3.67-6.04,6.31-1.42,2.62-2.14,5.53-2.14,8.66s.72,6.03,2.14,8.66c1.43,2.63,3.46,4.76,6.04,6.31,2.58,1.55,5.51,2.34,8.72,2.34,4.88,0,9.1-1.7,12.53-5.06,3.44-3.37,5.18-7.49,5.18-12.24s-1.74-8.87-5.18-12.24c-3.43-3.36-7.65-5.06-12.53-5.06-3.2,0-6.14.79-8.72,2.34M291.97.42c-.73,0-1.24.5-1.24,1.21s.51,1.21,1.24,1.21h4.58c6.15,0,10.68,1.44,13.48,4.27,2.42,2.43,3.66,5.99,3.66,10.6s-1.23,8.18-3.66,10.6c-2.8,2.83-7.34,4.27-13.48,4.27h-4.58c-.73,0-1.24.5-1.24,1.22s.51,1.21,1.24,1.21h4.58c6.8,0,11.93-1.66,15.24-4.94,2.9-2.9,4.38-7.06,4.38-12.36s-1.47-9.46-4.38-12.36h0c-3.31-3.28-8.44-4.94-15.24-4.94h-4.58Zm-38.62.12c-.41.19-.67.6-.67,1.12v32.13c0,.73.5,1.24,1.21,1.24s1.21-.51,1.21-1.24V5.49l20.73,29c.27.4.78.59,1.25.53l.31.44v-.52c.44-.18.72-.6.72-1.14V1.66c0-.73-.51-1.24-1.24-1.24s-1.24.51-1.24,1.24v28.3L254.91.97c-.28-.42-.8-.6-1.24-.52l-.32-.45v.54Z"/>
    </clipPath>
    <linearGradient id="linear-gradient" x1="1518.54" y1="-1073.37" x2="1520.48" y2="-1073.37" gradientTransform="translate(-247889.23 -175201.24) scale(163.24 -163.24)" gradientUnits="userSpaceOnUse">
      <stop offset="0" stop-color="#a9872e"/>
      <stop offset=".03" stop-color="#a9872e"/>
      <stop offset=".34" stop-color="#f4c22e"/>
      <stop offset=".68" stop-color="#faf397"/>
      <stop offset="1" stop-color="#be972e"/>
    </linearGradient>
  </defs>
  <g id="Capa_1" data-name="Capa 1">
    <g id="footer">
      <g id="logo">
        <g class="cls-2">
          <rect class="cls-3" x="0" width="316.17" height="35.45"/>
        </g>
      </g>
    </g>
  </g>
</svg>