<?xml version="1.0" encoding="UTF-8"?>
<svg id="Layer_2" data-name="Layer 2" xmlns="http://www.w3.org/2000/svg" viewBox="0 0 312.5 35.04">
  <defs>
    <style>
      .cls-1 {
        fill: #010101;
      }
    </style>
  </defs>
  <g id="Capa_1" data-name="Capa 1">
    <g id="component_2">
      <path id="logo" class="cls-1" d="m69.44,5.42c-3.39-3.32-7.56-5.01-12.39-5.01-3.16,0-6.06.78-8.61,2.31-2.55,1.53-4.56,3.63-5.97,6.23-1.4,2.59-2.11,5.47-2.11,8.56s.71,5.96,2.11,8.56c1.41,2.61,3.42,4.7,5.97,6.23,2.55,1.53,5.45,2.31,8.61,2.31,4.83,0,9-1.69,12.39-5.01,3.4-3.33,5.12-7.4,5.12-12.1s-1.72-8.77-5.12-12.1m-1.67,22.49h0c-2.92,2.86-6.52,4.31-10.71,4.31s-7.51-1.38-10.23-4.23c-2.69-2.82-4.06-6.34-4.06-10.47s1.37-7.65,4.06-10.47c2.72-2.85,6.07-4.23,10.23-4.23s7.79,1.45,10.71,4.3c2.96,2.89,4.4,6.29,4.4,10.4s-1.44,7.5-4.39,10.39m89.58,5.51c0,.71-.5,1.2-1.23,1.2h-22.7c-.72,0-1.23-.49-1.23-1.2s.51-1.2,1.23-1.2h22.7c.72,0,1.23.49,1.23,1.2m-37.1-8.57c0,3.76-1.56,6.48-4.64,8.1-2,1.11-4.68,1.68-7.93,1.68h-11.35c-.68,0-1.18-.51-1.18-1.2s.5-1.2,1.18-1.2h11.35c2.86,0,5.15-.46,6.81-1.37,2.27-1.21,3.36-3.17,3.36-6s-1.08-4.83-3.3-6c-1.66-.84-3.97-1.27-6.87-1.27h-11.35c-.68,0-1.18-.51-1.18-1.2s.5-1.2,1.18-1.2h10.63c2.73,0,4.96-.43,6.63-1.28,2.11-1.07,3.14-2.75,3.14-5.13s-1-3.89-3.06-4.86c-1.6-.72-3.86-1.09-6.7-1.09h-10.63c-.68,0-1.18-.51-1.18-1.2s.5-1.2,1.18-1.2h10.63c3.2,0,5.79.46,7.7,1.36,2.93,1.33,4.42,3.68,4.42,6.99s-1.48,5.72-4.39,7.23c-.12.07-.24.13-.37.19.46.17.88.35,1.28.56h0c3.08,1.62,4.64,4.34,4.64,8.1m11.95-7.33c0-.72.51-1.23,1.23-1.23h20.4c.72,0,1.23.51,1.23,1.23s-.5,1.23-1.23,1.23h-20.4c-.72,0-1.23-.5-1.23-1.23M6.6,7.02c-2.83,2.82-4.2,6.26-4.2,10.5s1.41,7.72,4.2,10.5c2.83,2.83,6.26,4.2,10.5,4.2s7.36-1.27,10.12-3.87v-9.6h-14.65c-.72,0-1.23-.5-1.23-1.23s.5-1.23,1.23-1.23h15.87c.72,0,1.23.51,1.23,1.23v11.35c0,.33-.13.64-.36.87-3.24,3.24-7.35,4.89-12.22,4.89s-8.93-1.65-12.19-4.91C1.65,26.45,0,22.35,0,17.52S1.65,8.59,4.91,5.33C8.17,2.07,12.27.42,17.1.42s8.97,1.64,12.22,4.89c.23.23.36.54.36.87,0,.72-.51,1.23-1.23,1.23-.33,0-.64-.13-.87-.36-2.77-2.8-6.29-4.22-10.48-4.22s-7.72,1.41-10.5,4.2m305.9,10.5c0,5.24-1.45,9.35-4.33,12.22-3.28,3.24-8.35,4.89-15.07,4.89h-4.53c-.72,0-1.23-.49-1.23-1.2s.5-1.2,1.23-1.2h4.53c6.07,0,10.56-1.42,13.32-4.22,2.4-2.4,3.62-5.92,3.62-10.48s-1.22-8.08-3.61-10.48c-2.77-2.8-7.26-4.22-13.33-4.22h-4.53c-.72,0-1.23-.49-1.23-1.2s.5-1.2,1.23-1.2h4.53c6.72,0,11.79,1.64,15.06,4.88h0c2.87,2.88,4.33,6.98,4.33,12.22m-37.6-15.88v31.75c0,.54-.28.95-.71,1.13v.51l-.31-.43c-.46.07-.97-.12-1.23-.52l-20.49-28.66v27.97c0,.72-.49,1.23-1.2,1.23s-1.2-.5-1.2-1.23V1.64c0-.51.25-.92.66-1.11v-.54l.31.44c.44-.08.95.1,1.23.52l20.49,28.66V1.64c0-.72.5-1.23,1.23-1.23s1.23.5,1.23,1.23m-40.95,3.78c-3.39-3.32-7.56-5.01-12.39-5.01-3.16,0-6.06.78-8.62,2.31-2.55,1.53-4.55,3.63-5.97,6.23-1.4,2.59-2.11,5.47-2.11,8.56s.71,5.96,2.11,8.56c1.41,2.61,3.42,4.7,5.97,6.23,2.55,1.53,5.45,2.31,8.62,2.31,4.83,0,8.99-1.69,12.39-5.01,3.4-3.33,5.12-7.4,5.12-12.1s-1.72-8.77-5.12-12.1m-1.68,22.49h0c-2.92,2.86-6.52,4.31-10.71,4.31s-7.51-1.38-10.23-4.23c-2.69-2.82-4.06-6.34-4.06-10.47s1.37-7.65,4.06-10.47c2.72-2.85,6.07-4.23,10.23-4.23s7.79,1.45,10.71,4.3c2.96,2.89,4.39,6.29,4.39,10.4s-1.44,7.5-4.39,10.39M197.7,1.64c0,.2-.05.4-.14.59l-.1.15-13.4,17.07v13.95c0,.73-.51,1.23-1.2,1.23s-1.2-.49-1.2-1.17v-14l-13.33-17.03c-.26-.28-.31-.57-.31-.77,0-.72.5-1.23,1.23-1.23.39,0,.75.2.98.54l12.66,16.07L195.53.9c.19-.29.55-.49.94-.49.72,0,1.23.5,1.23,1.23m-40.35-.02c0,.71-.5,1.2-1.23,1.2h-22.7c-.72,0-1.23-.49-1.23-1.2s.51-1.2,1.23-1.2h22.7c.72,0,1.23.49,1.23,1.2"/>
    </g>
  </g>
</svg>