<?xml version="1.0" encoding="UTF-8"?>
<svg id="Layer_2" data-name="Layer 2" xmlns="http://www.w3.org/2000/svg" viewBox="0 0 96.71 96.89">
  <defs>
    <style>
      .cls-1 {
        fill: #415fab;
      }

      .cls-2 {
        fill: #5ec095;
      }

      .cls-3 {
        fill: none;
      }

      .cls-4 {
        fill: #010101;
      }
    </style>
  </defs>
  <g id="Capa_1" data-name="Capa 1">
    <g id="component_5">
      <g id="qr_usdt">
        <g id="QR">
          <g>
            <path class="cls-3" d="m18.35.09s-.02-.05-.05-.05H.05s-.05.02-.05.05v18.26s.02.05.05.05h18.26s.05-.02.05-.05h0V.09" vector-effect="non-scaling-stroke"/>
            <path class="cls-3" d="m23.53,7.72c0,.05-.04.09-.09.11l-2.46.05c-.05,0-.09.05-.09.09v2.43c0,.05.04.11.11.11h0l5.07-.02c.05,0,.09-.04.09-.09V2.79c0-.05.04-.11.11-.11h2.45c.05,0,.09.04.09.11l.02,2.32c0,.05.04.11.11.11h4.93c.05,0,.11-.04.11-.09h0v-2.36c0-.05.04-.11.11-.11h2.45c.05,0,.11-.04.11-.09h0V.13c0-.05-.04-.09-.11-.09h-4.97c-.05,0-.11.04-.11.09h0v2.43c0,.05-.04.11-.11.11h-2.41c-.05,0-.11-.04-.11-.09h0V.16c0-.05-.04-.11-.11-.11h0l-2.45-.02c-.05,0-.11.04-.11.09h0v2.43c0,.05-.04.11-.11.11h-2.46c-.05,0-.11-.04-.11-.09h0l.02-2.41c0-.05-.04-.11-.09-.11h-2.43c-.05,0-.09.04-.09.09l-.02,2.39c0,.05.04.11.09.11h0l2.46.02c.05,0,.09.05.09.09v4.97" vector-effect="non-scaling-stroke"/>
            <path class="cls-3" d="m49.69,2.66s-.07-.04-.07-.05h0V.11s-.04-.05-.07-.05h0l-2.37-.02s-.07.04-.07.05h0v5.02s.04.05.07.05h7.65s.07-.04.07-.05h0V.13s-.04-.05-.07-.05h-2.48s-.07.04-.07.05h0v2.48s-.04.05-.07.05h-2.5" vector-effect="non-scaling-stroke"/>
            <path class="cls-3" d="m47.13,15.71l-.04-2.46c0-.07-.04-.13-.13-.13l-2.39-.02c-.07,0-.13-.05-.13-.13v-5.04c0-.05-.04-.09-.09-.09h-2.43c-.05,0-.09-.04-.09-.09l-.02-2.46c0-.07-.04-.11-.11-.11h-2.27c-.16,0-.25.09-.25.25v2.32c0,.05.04.09.09.09h2.46c.05,0,.09.04.09.09v2.46c0,.05-.04.09-.09.09h-2.48c-.05,0-.09-.04-.09-.09v-2.39c0-.11-.09-.18-.18-.18h0l-2.32.04c-.09,0-.13.05-.13.14l.04,2.39c0,.07-.04.09-.09.09h-2.37c-.11,0-.2-.09-.2-.22v-2.34c0-.07-.04-.11-.11-.11h-4.93c-.05,0-.09.04-.09.09v2.48c0,.05-.04.09-.09.09h-2.48c-.05,0-.09.04-.09.09l.02,2.41c0,.07.04.11.11.11h7.48c.13,0,.18.05.18.18v2.36c0,.07.04.11.11.11l2.43.04c.09,0,.13-.04.13-.13l-.05-2.3c0-.14.11-.25.23-.25h.02l2.3.05c.05,0,.09.04.09.09v2.41c0,.07.04.11.11.11l2.28-.02c.16,0,.25.09.25.25v4.73c0,.14-.07.2-.2.2h-2.32c-.09,0-.14.04-.14.14v2.43c0,.07.04.09.09.09l2.43-.05c.05,0,.09.04.09.09l.05,2.46c0,.07-.04.11-.11.11l-5.13-.02s-.07-.04-.07-.07l.02-5.06c0-.07-.04-.11-.11-.11h-2.48c-.05,0-.07-.02-.07-.07l.02-5.02c0-.07-.04-.11-.11-.11l-2.32.02c-.07,0-.11.04-.11.11v4.88c0,.13-.05.18-.18.18h-2.36c-.07,0-.11-.04-.11-.11v-4.86c0-.14-.07-.2-.2-.22l-2.36-.04s-.05.04-.05.05v7.7c0,.05-.04.09-.09.09h-2.43c-.07,0-.13-.05-.13-.13h0l.04-2.43c0-.07-.04-.09-.09-.09h-2.46c-.07,0-.11.04-.11.11l.02,2.45c0,.05-.04.09-.09.09h-2.19c-.13,0-.23-.11-.23-.23v-2.34c0-.05-.04-.09-.09-.09h-7.61c-.13,0-.2.07-.2.2v2.36c0,.07-.04.11-.11.11h-2.3c-.14,0-.22-.07-.22-.22l.05-2.34c0-.07-.04-.11-.11-.11l-2.46.04c-.07,0-.11.04-.11.11v2.45c0,.05-.04.09-.09.09h-2.32c-.07,0-.11.04-.11.11v5c0,.09.04.13.13.13l2.27-.02c.07,0,.13-.04.13-.13v-2.34c0-.09.07-.16.16-.16h2.34c.07,0,.13.04.13.13l.04,2.41c0,.07.04.11.11.11l2.39.02c.07,0,.13-.04.13-.11v-2.45c0-.05.04-.09.09-.09h2.48c.05,0,.09-.04.09-.09v-2.43c0-.09.04-.13.13-.13h5c.09,0,.13.04.13.13v2.3c0,.14-.07.22-.22.22l-2.34.04c-.07,0-.11.04-.11.11v2.41c0,.09.04.13.13.13l2.21-.04c.2,0,.31.09.31.29l.05,2.16c0,.11.09.18.18.18h2.18c.07,0,.11-.04.11-.11v-5.06c0-.07.04-.11.11-.11h2.36c.07,0,.13.04.13.13.07,1.67.05,3.35-.02,5.02,0,.07.05.13.11.13h2.3c.18,0,.27.09.27.27l.04,2.19c0,.05.04.09.09.09l2.45-.02c.05,0,.09-.04.09-.09v-2.34c0-.05-.04-.09-.09-.09h-2.43c-.07,0-.14-.05-.14-.14v-5.02c0-.07.04-.13.11-.13l5.06.04c.07,0,.11.04.11.11l-.04,2.39c0,.05-.04.09-.09.09l-2.48.07c-.05,0-.09.04-.07.09l.07,2.32c0,.13.07.18.2.18h4.79c.09,0,.14-.04.14-.14v-2.39c0-.05.04-.09.09-.09h2.46c.05,0,.09.04.09.09l.02,2.43c0,.07-.04.11-.09.11h-2.46c-.07,0-.11.04-.11.11l-.04.94c0,.07.04.11.11.11l5.02.04c.09,0,.16-.07.18-.16l.05-.94c0-.07.04-.11.13-.11l4.98.02c.05,0,.09-.04.09-.09v-2.45c0-.05.04-.09.09-.09l5-.05c.05,0,.07-.04.07-.09v-2.39c0-.07-.04-.09-.09-.09l-4.91-.04c-.11,0-.18-.05-.18-.18v-2.34c0-.05.04-.09.09-.09l2.48-.02c.05,0,.09-.04.09-.09v-2.3c0-.14-.11-.25-.25-.25h-2.3c-.07,0-.11-.04-.11-.11v-4.95c0-.07.04-.11.11-.11l2.59-.04" vector-effect="non-scaling-stroke"/>
            <path class="cls-3" d="m47.13,15.71l-.02,5.09c0,.07.04.11.11.11l2.3.02c.05,0,.09.04.09.09v2.43c0,.05.04.09.09.09h2.48c.05,0,.09.04.09.09l-.04,2.43c0,.07.05.13.13.13h5.04c.09,0,.14.04.14.14v2.41c0,.07-.04.11-.11.11h-2.46c-.07,0-.09.04-.09.09l.07,2.41c0,.07.04.13.13.11l2.34-.04c.07,0,.11.04.11.11l.04,1.06c0,.07.04.09.11.09l2.37-.04c.07,0,.13-.05.13-.13v-3.6c0-.05.04-.09.09-.09l2.43-.05c.07,0,.13.05.13.13h0v2.39c0,.09.04.13.13.13h2.3c.05,0,.09.04.09.09l.04,2.39c0,.07-.04.09-.09.09l-.94-.07c-.14-.02-.22.05-.22.2v2.41c0,.05.05.11.11.11h0l3.72-.05v2.55c0,.05.04.09.09.09h2.43c.07,0,.09.04.09.09v2.45c0,.07-.05.11-.13.11h-2.45c-.05,0-.09.04-.09.09v2.41c0,.07.04.13.11.11l2.46-.04c.05,0,.07.02.07.07v2.52c0,.05.04.09.09.09l2.43-.02c.05,0,.09-.04.09-.09v-2.46c0-.05.04-.09.09-.09h2.48c.05,0,.09-.04.09-.09v-2.43c0-.05-.04-.09-.09-.09h-2.45c-.07,0-.11-.04-.11-.11l-.02-2.41c0-.09.05-.14.14-.14h2.41c.07,0,.11.04.11.11v2.39c0,.05.04.09.09.09l2.16.04c.2,0,.29-.09.29-.27v-4.84c0-.09.04-.14.14-.14h2.41c.05,0,.09.04.09.09v5.04c0,.09-.04.13-.13.13h-2.16c-.2,0-.36.16-.36.38v2.16c0,.05.04.09.09.09h7.74c.05,0,.09.04.09.09v4.95c0,.07-.05.14-.14.14h-2.41c-.07,0-.11.04-.11.11v5.11c0,.09.04.14.14.14h2.43c.05,0,.09.04.09.09v2.37c0,.11-.07.18-.18.18h-2.37c-.07,0-.11.04-.11.11v2.37c0,.11-.09.18-.18.18h0l-2.32-.02c-.07,0-.11-.04-.11-.11v-2.41c0-.07-.04-.11-.11-.11l-2.46-.04c-.07,0-.09-.04-.09-.09v-2.43c0-.05.04-.09.09-.09h2.45c.07,0,.11-.04.11-.11v-2.39c0-.07-.04-.11-.11-.11h-2.3c-.13,0-.23-.11-.23-.23v-4.84c0-.07-.04-.11-.11-.11h-2.32c-.05,0-.09.04-.09.09v5c0,.05.04.09.09.09h2.36c.05,0,.07.02.07.07l-.02,2.37c0,.07-.05.13-.13.13l-2.27.05c-.07,0-.11.04-.11.11v5c0,.07-.04.11-.11.11l-2.45.05c-.07,0-.09.04-.09.09l-.04,2.43c0,.09.04.13.13.13l2.43-.07c.07,0,.11-.04.11-.11l.02-2.43c0-.05.04-.09.09-.09l2.12-.02c.16,0,.29.13.29.29h0v12.7c0,.05-.04.09-.09.09h-4.95c-.05,0-.09-.04-.09-.09l-.02-2.43c0-.05.04-.09.09-.09h2.45c.05,0,.09-.04.09-.09v-2.46c0-.07-.04-.13-.13-.13l-2.36.04c-.09,0-.18-.07-.18-.16h0v-2.37c0-.05-.04-.09-.09-.09h-2.45s-.07.04-.07.07v7.7c0,.05-.04.09-.09.09h-2.43c-.05,0-.09-.04-.09-.09l-.07-2.41c0-.07-.04-.09-.11-.11l-2.41-.05c-.07,0-.11-.04-.11-.11v-2.41c0-.05.04-.09.09-.09l2.46-.02c.05,0,.09-.04.09-.09l-.02-2.43c0-.05-.04-.09-.09-.09l-2.41.02c-.05,0-.09-.04-.09-.09h0v-2.34c0-.09-.04-.13-.13-.13l-.9-.02c-.07,0-.13.05-.13.11l-.09,1.08c0,.07-.04.11-.11.11-1.15.09-2.3.11-3.45.02-.18-.02-.32.13-.34.31v.05l.05.7c0,.09-.04.13-.11.13l-2.37.05c-.13,0-.18-.05-.18-.18v-.94c0-.07-.04-.11-.11-.11h-2.43c-.07,0-.13.04-.13.13v1.01c0,.05-.04.09-.09.09h-2.45c-.05,0-.07.02-.07.07l-.02,2.41c0,.07-.04.11-.11.11l-2.37.04c-.07,0-.11.04-.11.13l-.02,2.37c0,.09.04.13.13.13l2.39.02c.05,0,.09.04.09.09v2.52l-10.31.02s-.07-.04-.07-.07h0v-2.46c0-.05-.04-.09-.09-.09h-2.52" vector-effect="non-scaling-stroke"/>
            <path class="cls-3" d="m39.22,70.7l-.04-2.55c0-.07-.04-.11-.11-.11l-2.39.04c-.09,0-.13.04-.13.13l-.02,2.5" vector-effect="non-scaling-stroke"/>
            <path class="cls-3" d="m36.52,70.7h-2.34c-.18,0-.27-.09-.27-.25v-2.28c0-.05-.05-.11-.11-.11h-2.3c-.07,0-.11.04-.11.13v2.36c0,.09.04.14.14.14l2.27.05c.09,0,.13.05.13.13v2.37c0,.05.04.09.09.09h2.46c.05,0,.09-.04.09-.09l-.05-2.54" vector-effect="non-scaling-stroke"/>
            <path class="cls-3" d="m39.22,70.7l-.02,5.15c0,.05.05.11.11.11h5.02c.07,0,.11.04.11.11l.02,2.34s.02.05.07.07l2.45.05c.09,0,.13.05.13.14v2.37c0,.07-.04.09-.09.09h-2.39c-.07,0-.11-.04-.11-.11l-.05-2.41c0-.09-.05-.13-.13-.13l-5.04-.02c-.07,0-.11-.04-.11-.11v-2.3c0-.07-.04-.09-.09-.09h-15.54s-.07-.04-.07-.07h0l.02-2.5c0-.05-.02-.07-.07-.07l-7.59.02c-.07,0-.11-.04-.11-.11l-.02-2.52" vector-effect="non-scaling-stroke"/>
            <path class="cls-3" d="m15.71,70.7l2.55-.05c.07,0,.11-.04.11-.11l-.02-2.37c0-.07-.04-.11-.11-.11l-2.43.04c-.07,0-.11.04-.11.11v2.5" vector-effect="non-scaling-stroke"/>
            <path class="cls-3" d="m15.71,70.7h-2.5c-.07,0-.11-.04-.11-.11v-7.57c0-.05-.04-.09-.09-.09h-4.82c-.2,0-.36-.16-.36-.36l-.05-2.25c0-.07.04-.09.09-.09l2.45.05c.07,0,.13-.05.13-.11h0v-5.11c0-.05.04-.09.09-.09h2.46c.07,0,.13-.04.13-.13l-.05-2.37c0-.07-.04-.11-.13-.11h-4.98c-.07,0-.13.04-.13.11v2.39c0,.05-.04.09-.09.09h-2.46c-.05,0-.09-.04-.09-.09h0l-.02-2.45c0-.05.02-.07.07-.07h2.5c.05,0,.09-.04.09-.09v-4.95c0-.09-.04-.14-.14-.14h-2.41c-.05,0-.09.04-.09.09l.02,2.37s-.02.05-.05.05l-2.37-.02c-.07,0-.11-.04-.11-.11v-2.18c0-.16-.07-.23-.23-.23H.11c-.05,0-.09.04-.09.09v4.98c0,.05.04.09.09.09h2.5c.05,0,.07.02.07.07l-.02,5.11c0,.07-.04.11-.11.11l-2.41.04c-.09,0-.13.04-.13.13v2.39c0,.07.04.11.11.09l4.88-.02c.09,0,.18.07.18.18h0l.02,2.37c0,.07.04.11.11.11l2.39.04c.07,0,.11.04.11.11l.05,2.32c0,.07.04.09.11.09l2.39-.04c.05,0,.09.04.09.09v2.5s-.02.07-.05.07l-2.46.05c-.07,0-.09.04-.09.09l.02,2.36c0,.07.04.11.11.11l2.41.05c.05,0,.07.04.07.09v2.43c0,.05.04.09.09.09h2.45c.07,0,.13.04.13.11v2.43c0,.05.04.09.09.09h7.59c.07,0,.09.04.09.09v2.34c0,.05.04.09.09.09l5.07.02c.07,0,.11.04.11.11v7.7c0,.05.04.09.09.09h7.59c.05,0,.09.04.09.09v2.27c0,.2-.09.29-.29.29l-7.39.02c-.05,0-.09-.04-.09-.09v-2.41c0-.07-.04-.11-.11-.11h-2.48" vector-effect="non-scaling-stroke"/>
            <path class="cls-3" d="m23.53,86.46l-.04-5.2c0-.07-.05-.13-.13-.11h0l-2.41.04c-.05,0-.09.04-.09.09l-.02,5c0,.09.05.14.14.14l2.54.04" vector-effect="non-scaling-stroke"/>
            <path class="cls-3" d="m23.53,86.46l.02,2.52c0,.05-.04.09-.09.09h-2.46c-.07,0-.11.05-.11.13v2.41c0,.07.04.09.09.09l2.5.02c.05,0,.07.02.07.07l-.02,2.36c0,.05.04.09.09.09h2.36c.09,0,.16.07.16.16v2.39c0,.05.04.09.09.09h2.43c.09,0,.14-.05.14-.14l-.02-2.41c0-.07-.04-.11-.11-.11h-2.45c-.05,0-.09-.04-.09-.09v-2.36c0-.05.02-.07.07-.07h5.11c.05,0,.07.02.07.07v4.89c0,.13.07.2.2.2l2.25-.04c.05,0,.09-.04.09-.09v-2.43c0-.05.04-.09.09-.09h5.07c.05,0,.09-.04.09-.09v-2.34c0-.05-.04-.09-.09-.09h-2.41c-.07,0-.11-.04-.11-.11l-.04-2.48c0-.05.04-.09.09-.09h0l2.32.04c.14,0,.25-.11.25-.23v-.02l-.05-2.32c0-.05.04-.09.09-.09h2.45c.07,0,.13-.04.13-.13v-2.39c0-.07-.04-.11-.11-.11h-2.43c-.07,0-.11-.04-.11-.11v-2.37c0-.09.04-.14.14-.14h2.39c.07,0,.11.04.11.11l.04,2.43c0,.07.04.09.11.09l2.45.04c.05,0,.09.04.09.09l-.07,2.27c0,.13.09.23.22.23h4.86c.07,0,.11-.04.11-.11v-5c0-.07.04-.11.11-.11l2.45-.05c.07,0,.11-.04.11-.13l-.02-2.41c0-.05.04-.09.09-.09l2.39-.02c.09,0,.13.04.13.13l.02,2.45c0,.05.04.09.09.09h5.09c.05,0,.09-.04.09-.09v-2.46c0-.07.04-.13.13-.13l2.45.04c.07,0,.09.04.09.11l.02,5.07c0,.07.04.11.11.11l4.95-.05c.05,0,.07-.02.07-.07l-.02-5.07c0-.07-.04-.11-.11-.11l-2.39-.02c-.07,0-.11-.04-.11-.11v-2.18c0-.13-.11-.23-.23-.23h-2.19c-.05,0-.09-.04-.09-.09v-2.43c0-.07.05-.14.14-.14h0l2.3.02c.05,0,.09.04.09.09l-.04,2.46c0,.05.02.09.09.09h2.45c.05,0,.09.04.09.09.07.68.05,1.37-.02,2.05-.02.18.11.36.31.38h2.23c.09,0,.13-.04.13-.13v-2.21c0-.13.05-.18.18-.18h2.28c.11,0,.18.05.16.18l-.04,10.09c0,.09-.07.18-.18.18h-4.97c-.05,0-.07.02-.07.07l-.02,4.88c0,.18.14.34.34.34h2.12c.11,0,.16.05.16.16v4.93c0,.05.04.09.09.09h2.43c.07,0,.11-.04.11-.09l-.02-7.63c0-.05.04-.09.09-.09l2.36-.05c.13,0,.23.09.23.22h0v2.34c0,.05.04.09.09.09l2.34.05c.05,0,.09-.04.09-.09h0v-5.11c0-.05.04-.09.09-.09h7.74c.05,0,.09.04.09.09v2.43c0,.07-.05.14-.14.14l-5.02-.02c-.07,0-.09.04-.09.11v5.02c0,.05-.02.07-.07.07h-4.97c-.09,0-.14.05-.14.14v2.41c0,.05.02.07.07.07l7.63.02s.07-.04.07-.07h0v-4.93c0-.18.09-.25.25-.23.74.07,1.51.07,2.36,0l.04,5.06c0,.09.05.14.14.14l10.22-.02c.05,0,.09-.04.09-.09l-.04-2.45c0-.05-.04-.09-.09-.09l-2.43.05c-.07,0-.11-.04-.11-.11l-.02-2.25c0-.11-.09-.2-.2-.2l-2.16-.02c-.09,0-.14-.05-.14-.14l.02-2.39c0-.09.04-.13.13-.13l2.25.04c.07,0,.11.04.11.11l.02,2.39c0,.07.04.13.13.13l2.39.04c.09,0,.14-.05.14-.14l-.02-2.41c0-.07-.04-.11-.11-.11h-2.39c-.09,0-.14-.04-.14-.14v-2.41c0-.07-.04-.11-.13-.11l-2.3.02c-.07,0-.11.04-.11.11l.04,2.37c0,.07-.05.14-.14.14h-2.28c-.13,0-.22-.09-.22-.22l-.04-7.57c0-.07.05-.11.11-.11h0l2.59-.02" vector-effect="non-scaling-stroke"/>
            <path class="cls-3" d="m91.57,81.14l-.04,2.5c0,.07.04.11.11.11h2.28c.07,0,.11-.04.11-.11v-2.41c0-.05.04-.09.09-.09h2.46c.05,0,.09-.04.09-.09l-.05-7.65c0-.05-.02-.07-.07-.07l-2.41.04c-.05,0-.11.05-.11.11l-.02,7.54c0,.07-.04.13-.13.13h-2.32" vector-effect="non-scaling-stroke"/>
            <path class="cls-3" d="m91.57,81.14l-.04-7.83" vector-effect="non-scaling-stroke"/>
            <path class="cls-3" d="m91.53,73.33l.05-.09" vector-effect="non-scaling-stroke"/>
            <path class="cls-3" d="m91.59,73.22c.79.13,1.58.14,2.37.07.07,0,.09-.04.09-.11v-4.98c0-.05-.04-.09-.09-.09l-2.37-.07s-.07-.04-.07-.07l.04-4.82c0-.13-.11-.23-.23-.23h-2.34c-.05,0-.09.04-.09.09v2.34c0,.05-.04.09-.09.09h-2.43c-.05,0-.09-.04-.09-.09h0v-7.63c0-.05.04-.09.09-.09h2.43c.05,0,.09.04.09.09v2.37c0,.13.07.2.2.2l2.5-.05" vector-effect="non-scaling-stroke"/>
            <path class="cls-3" d="m91.57,60.23v2.57c0,.07.04.13.11.13h2.28c.07,0,.09-.04.09-.09v-2.48c0-.05-.02-.07-.07-.07l-2.41-.05" vector-effect="non-scaling-stroke"/>
            <path class="cls-3" d="m91.57,60.23l-.04-5.11c0-.09.07-.16.16-.16h2.21c.09,0,.14-.04.14-.14v-4.95c0-.11-.09-.18-.18-.18h-2.23c-.05,0-.09.04-.09.09h0v2.46c0,.05-.04.09-.09.09h-2.48s-.07-.04-.07-.07v-2.45c0-.09.04-.14.14-.14h2.27c.16,0,.23-.07.23-.23l-.02-2.16c0-.05-.04-.09-.09-.09h-2.46c-.05,0-.09-.04-.09-.09v-5.07c0-.05-.04-.09-.09-.09h-5.07c-.05,0-.11-.05-.11-.11v-2.46c0-.05.04-.09.09-.09h2.48c.05,0,.09-.04.09-.09v-2.48c0-.05-.04-.09-.09-.09h-2.46c-.07,0-.13-.04-.13-.13l.04-2.39c0-.11.05-.14.16-.14l2.36.05c.09,0,.13-.04.13-.13l-.02-2.25c0-.11.07-.18.18-.18h2.34c.05,0,.09.04.09.09v2.36c0,.05.04.11.11.11l2.46.04c.07,0,.09-.04.09-.09v-2.39c0-.05.04-.09.09-.09h2.25c.09,0,.14.07.14.14l.05,2.27c0,.05-.04.09-.09.09l-2.32.04c-.09,0-.14.05-.14.14l.04,2.28c0,.13-.05.2-.2.2h-2.1c-.18,0-.34-.14-.34-.34l-.02-2.16c0-.09-.04-.14-.14-.14l-2.3-.02c-.11,0-.2.09-.2.18h0v2.36c0,.07.04.11.11.11l2.41-.02c.05,0,.07.02.07.07l.04,2.5c0,.07.04.11.11.11h7.48c.13,0,.2-.07.2-.2l-.02-7.52c0-.07-.05-.13-.13-.13l-2.37.02c-.07,0-.11-.04-.11-.11v-5.02c0-.07-.04-.09-.09-.09l-2.27-.04c-.11,0-.18-.09-.18-.18h0l.02-2.25c0-.09-.07-.16-.16-.16h-2.39c-.07,0-.11-.04-.11-.11v-2.48c0-.05-.02-.09-.09-.09h-2.43c-.05,0-.09.04-.09.09v2.48c0,.05-.04.09-.09.09h-5.06c-.05,0-.09.04-.09.09v2.43c0,.05-.04.09-.09.09h-2.48c-.05,0-.09-.04-.09-.09v-5.09c0-.05-.04-.09-.09-.09h-2.32c-.07,0-.11.04-.11.11l.02,5.06c0,.05-.04.09-.09.09h-2.43c-.09,0-.14-.05-.14-.14l.02-7.52c0-.07-.04-.13-.11-.13h-2.37c-.07,0-.11-.04-.11-.11l-.04-2.43c0-.07.04-.13.11-.13h2.41c.05,0,.09-.04.09-.09v-2.43c0-.09.04-.13.13-.13h2.41c.05,0,.11-.05.11-.11v-5.02c0-.07-.04-.09-.09-.09l-5.07-.04c-.05,0-.09-.04-.09-.09v-2.46c0-.05.04-.09.09-.09l2.41.02c.05,0,.09-.04.09-.09l.02-2.34c0-.07-.04-.09-.09-.09h-5.06c-.09,0-.13-.04-.13-.13l.02-2.19c0-.2-.14-.34-.34-.34h0l-7.39.07s-.07.04-.07.07h0l.05,2.41c0,.07.04.11.11.11h4.88c.09,0,.14.04.14.14v2.28c0,.05.04.09.09.09l2.43.04c.07,0,.11.04.11.11v2.45c0,.05-.02.07-.07.07h-2.45c-.05,0-.09-.04-.09-.09l-.02-2.46c0-.07-.04-.11-.11-.11l-2.28.07c-.07,0-.11.04-.11.11v4.97c0,.07.05.13.13.13l4.88.04c.07,0,.13.04.13.13v2.39c0,.05.04.09.09.09h2.46c.05,0,.09.04.09.09v2.48c0,.05-.04.09-.09.09h-2.48c-.05,0-.09.04-.09.09v2.39c0,.09.05.14.14.14l2.39.02c.07,0,.13.05.11.13v2.28c0,.05-.04.09-.09.09h-2.37c-.11,0-.18.07-.18.18v2.37c0,.05-.04.09-.09.09h-2.43c-.05,0-.09-.04-.09-.09v-2.46c0-.05.04-.09.09-.09h2.43c.05,0,.09-.04.09-.09l.04-2.36s-.04-.07-.07-.07h-2.46c-.05,0-.09-.04-.09-.09v-2.48c0-.05.04-.09.09-.09h2.43c.05,0,.09-.04.09-.09v-2.45c0-.07-.04-.11-.11-.11h-4.82c-.13,0-.2.07-.2.2v10.16c0,.05-.05.11-.11.11h-2.46c-.05,0-.09-.04-.09-.09v-2.43c0-.07-.05-.14-.14-.14h-7.68c-.05,0-.07-.04-.07-.07l.04-2.34c0-.07-.04-.11-.11-.11h-2.39c-.09,0-.14-.07-.14-.14l-.04-2.39c0-.07-.04-.11-.11-.11l-2.34-.04" vector-effect="non-scaling-stroke"/>
            <path class="cls-3" d="m91.59,73.22v-2.43c0-.07-.04-.09-.09-.09h-2.3c-.18,0-.32-.14-.32-.32l.02-2.21c0-.07-.04-.11-.11-.11l-7.68-.02c-.05,0-.09.04-.09.09v5.06c0,.07.04.11.11.11h2.41c.05,0,.09-.04.09-.09v-2.34c0-.13.05-.18.18-.18h4.97c.07,0,.11.04.11.11l.07,2.27c0,.16.14.29.29.29h0l2.3-.05" vector-effect="non-scaling-stroke"/>
            <path class="cls-3" d="m86.23,91.68l2.57.04c.07,0,.11.04.11.11l.02,2.27c0,.07.05.14.14.14h2.36c.07,0,.13-.04.13-.13v-2.3c0-.05-.04-.09-.09-.09h-2.37c-.09,0-.14-.05-.14-.14l-.05-2.41c0-.05-.05-.11-.11-.11h-2.12c-.2,0-.38.16-.38.36l-.05,2.27" vector-effect="non-scaling-stroke"/>
            <path class="cls-3" d="m52.23,73.33l.05,2.57c0,.05.04.07.07.07l2.43.04c.07,0,.11.04.11.11v2.28c0,.05.04.09.09.09h2.43c.07,0,.14-.05.14-.14v-2.14c0-.16-.09-.25-.25-.25h-2.3c-.05,0-.09-.04-.09-.09v-2.46c0-.05-.04-.09-.09-.09l-2.59.02" vector-effect="non-scaling-stroke"/>
            <path class="cls-3" d="m67.93,36.63h2.57c.05,0,.09-.04.09-.09v-2.45c0-.07.04-.13.13-.11l2.37.04c.09,0,.13.04.13.13l.04,2.41c0,.05.04.09.09.09h2.45s.07-.04.07-.07h0v-2.41c0-.07-.04-.11-.11-.11l-2.43-.07c-.09,0-.13-.05-.13-.13v-2.27c0-.07.05-.11.13-.11h2.41c.07,0,.13-.04.13-.11v-2.41c0-.07-.04-.11-.11-.11l-2.43.04c-.07,0-.11-.04-.11-.11l-.02-2.41c0-.09-.04-.13-.13-.13h-2.37c-.07,0-.11.04-.11.11v2.39c0,.09-.07.16-.16.16h0l-2.37-.05c-.07,0-.13.04-.13.13v7.65" vector-effect="non-scaling-stroke"/>
            <path class="cls-3" d="m75.83.13c0-.05-.05-.11-.11-.11h0l-2.43.02c-.05,0-.11.05-.11.11l.02,2.41c0,.05.05.11.11.11h0l2.43-.02c.05,0,.11-.05.11-.11l-.02-2.41" vector-effect="non-scaling-stroke"/>
            <path class="cls-3" d="m96.7.14c0-.05-.04-.09-.09-.09h-18.15c-.05,0-.09.04-.09.09h0v18.17c0,.05.04.09.09.09h18.15c.05,0,.09-.04.09-.09h0V.14" vector-effect="non-scaling-stroke"/>
            <path class="cls-3" d="m57.53,5.11s-.04.05-.05.05l-2.54.05s-.05.04-.05.05v2.48s.04.05.07.05h2.52s.07-.04.07-.05h0v-2.52s.04-.07.07-.07h0l2.48.04s.07-.04.07-.05h0l.02-2.41s-.04-.05-.05-.05h-2.5s-.07.04-.07.05h0v2.37" vector-effect="non-scaling-stroke"/>
            <path class="cls-3" d="m49.65,13.13l-.04,2.39c0,.11.07.18.18.18h0l2.32.02c.07,0,.11.04.11.11l.04,2.43c0,.05.04.09.09.09l2.41.05c.07,0,.11-.04.11-.11l-.02-2.46c0-.07-.04-.11-.11-.11h-2.39c-.05,0-.09-.04-.09-.09l-.05-2.43c0-.05-.04-.09-.09-.09-.83-.04-1.66-.04-2.46.02" vector-effect="non-scaling-stroke"/>
            <path class="cls-3" d="m49.65,13.13c-.04-.14-.09-.27-.09-.43.05-1.57.05-3.15.04-4.7,0-.09-.07-.16-.18-.16l-2.25.04c-.05,0-.09.04-.09.09v4.93c0,.11.09.2.2.2l2.37.04" vector-effect="non-scaling-stroke"/>
            <path class="cls-3" d="m54.87,7.92s-.02-.05-.05-.05h-2.48s-.05.02-.05.05v5.13s.02.05.05.05h2.48s.05-.02.05-.05h0v-5.13" vector-effect="non-scaling-stroke"/>
            <path class="cls-3" d="m23.51,15.8s-.02-.05-.05-.05h0l-2.54.02s-.05.02-.05.05h0l.02,2.55s.02.05.05.05h0l2.54-.02s.05-.02.05-.05h0l-.02-2.55" vector-effect="non-scaling-stroke"/>
            <path class="cls-3" d="m39.16,15.81s-.04-.07-.07-.07l-2.48.04s-.07.04-.07.07l.04,2.48s.04.07.07.07l2.48-.04s.07-.04.07-.07l-.04-2.48" vector-effect="non-scaling-stroke"/>
            <path class="cls-3" d="m60.14,15.8s-.04-.07-.07-.07h0l-2.5.02s-.07.04-.07.07h0l.02,2.52s.04.07.07.07h0l2.5-.02s.07-.04.07-.07h0l-.02-2.52" vector-effect="non-scaling-stroke"/>
            <path class="cls-3" d="m75.83,15.81s-.04-.07-.07-.07h0l-2.46.02s-.07.04-.07.07h0l.02,2.48s.04.07.07.07h0l2.46-.02s.07-.04.07-.07h0l-.02-2.48" vector-effect="non-scaling-stroke"/>
            <path class="cls-3" d="m96.68,21.01c0-.05-.04-.09-.09-.09l-2.45.02c-.05,0-.09.04-.09.09l.02,2.45c0,.05.04.09.09.09l2.45-.02c.05,0,.09-.04.09-.09l-.02-2.45" vector-effect="non-scaling-stroke"/>
            <path class="cls-3" d="m2.7,31.48l-.02,2.41s.04.07.07.07h2.3c.07,0,.13-.04.13-.11v-2.27c0-.05-.04-.09-.09-.09l-2.39-.02" vector-effect="non-scaling-stroke"/>
            <path class="cls-3" d="m2.7,31.48l-.04-2.45c0-.11-.09-.2-.22-.2H.11c-.07,0-.11.04-.11.11v2.41c0,.07.04.09.09.09l2.61.04" vector-effect="non-scaling-stroke"/>
            <path class="cls-3" d="m10.45,31.54s-.04-.07-.07-.07l-2.48-.02s-.07.04-.07.07h0l-.02,2.37s.04.07.07.07l2.48.02s.07-.04.07-.07h0l.02-2.37" vector-effect="non-scaling-stroke"/>
            <path class="cls-3" d="m18.37,31.52s-.04-.07-.07-.07h-2.52s-.07.04-.07.07h0v2.39s.04.07.07.07h2.52s.07-.04.07-.07h0v-2.39" vector-effect="non-scaling-stroke"/>
            <path class="cls-3" d="m52.26,31.57s-.04-.07-.07-.07h-2.5s-.07.04-.07.07v1.03s.04.07.07.07h2.5s.07-.04.07-.07h0v-1.03" vector-effect="non-scaling-stroke"/>
            <path class="cls-3" d="m2.66,34.11c0-.07-.05-.13-.13-.13H.14c-.07,0-.13.05-.13.13v2.39c0,.07.05.13.13.13h2.39c.07,0,.13-.05.13-.13v-2.39" vector-effect="non-scaling-stroke"/>
            <path class="cls-3" d="m5.16,42.01c0-.05.05-.11.11-.11h0l2.45.02c.05,0,.11.05.11.11v2.41c0,.05.05.11.11.11h4.98c.05,0,.11-.05.11-.11l.05-5.04c0-.05-.05-.11-.11-.11h-7.7c-.05,0-.11-.05-.11-.11h0l.02-2.43c0-.05.05-.11.11-.11h2.43c.05,0,.11-.05.11-.11h0l-.04-2.41c0-.05-.05-.11-.11-.11h0l-2.41.02c-.05,0-.11.05-.11.11h0v2.39c0,.05-.05.11-.11.11h-2.28c-.05,0-.11.05-.11.11v7.7c0,.05.05.11.11.11h2.3c.05,0,.11-.05.11-.11l-.02-2.45" vector-effect="non-scaling-stroke"/>
            <path class="cls-3" d="m23.44,65.45h-2.43c-.07,0-.14.05-.14.13h0v2.39c0,.05.04.09.09.09l2.46.04c.07,0,.11.04.11.11l-.02,2.37c0,.07.04.11.11.11l2.45.05c.05,0,.09.04.09.09v2.36c0,.09.07.16.16.16h0l2.19-.04c.2,0,.29-.11.29-.31l-.02-7.47c0-.07.04-.11.11-.11h4.93c.07,0,.11.04.11.11l.02,2.45s.02.05.05.05h2.41c.07,0,.14-.05.14-.14l.05-3.6c0-.05-.04-.09-.09-.09l-3.81-.02c-.05,0-.09-.04-.09-.09v-3.74c0-.05-.04-.09-.09-.09h-3.51c-.13,0-.22-.09-.22-.22l-.02-2.34c0-.07.04-.09.09-.09h2.43c.05,0,.09-.04.09-.09v-2.45c0-.07.04-.11.11-.11h1.01c.05,0,.09-.04.09-.09v-10.07c0-.18-.09-.27-.27-.27l-.85-.02c-.07,0-.11-.04-.11-.11l.02-5.02c0-.07-.04-.11-.11-.11h-5.06c-.05,0-.09.04-.09.09v2.41c0,.07-.04.13-.13.13h-4.97c-.09,0-.14-.07-.16-.14l-.05-2.41c0-.05.02-.09.07-.09l2.34-.02c.16,0,.29-.13.29-.29v-.02c-.09-1.62-.07-3.24.02-4.86,0-.05-.04-.11-.11-.13h0l-4.89-.02c-.13,0-.2.07-.2.2v2.39c0,.07-.04.09-.09.09l-5.04-.07c-.07,0-.13-.04-.13-.13l-.02-2.36c0-.09-.09-.18-.18-.18h0l-2.32.07c-.07,0-.13.05-.13.13v2.27c0,.16.07.23.23.23l2.3-.02c.07,0,.11.04.11.11v2.5c0,.05.04.09.09.09h5.04c.09,0,.14.04.14.14v2.37c0,.05-.04.09-.09.09l-2.48.07c-.05,0-.09.04-.09.09v2.43c0,.05.04.09.09.09l2.46-.02c.05,0,.09.04.09.09l.05,2.48c0,.05.04.09.09.09h7.54c.07,0,.11.04.11.11v2.3c0,.05.04.09.09.09h2.43c.05,0,.09.04.09.09l.07,2.48c0,.05-.04.09-.09.09h-2.5c-.05,0-.09-.04-.09-.09l-.02-2.25c0-.22-.11-.31-.31-.31h-4.68c-.18,0-.27.09-.27.27v2.25c0,.07.04.09.09.09l2.48.05c.05,0,.09.04.09.09l-.07,2.41c0,.07.04.09.09.09h2.5c.05,0,.09.04.09.09v5.09c0,.07-.05.14-.14.14l-5.04-.04c-.05,0-.07.02-.07.07l-.02,2.46c0,.07.04.11.11.11l2.46.04c.05,0,.09.04.09.09l.02,2.34c-.02.05-.04.07-.11.07" vector-effect="non-scaling-stroke"/>
            <path class="cls-3" d="m32.6,34.16c0-.11-.09-.18-.18-.18h-.83c-.11,0-.18.09-.18.18v2.27c0,.11.09.18.18.18h.83c.11,0,.18-.09.18-.18v-2.27" vector-effect="non-scaling-stroke"/>
            <path class="cls-3" d="m41.07,48.09c.23-3.78,3.27-6.57,7.03-6.69.04,0,.07-.04.07-.07l-.02-5.67c0-.07-.05-.13-.13-.13h0c-4.48.27-7.95,2.1-10.42,5.52-3.31,4.61-3.13,10.96.27,15.36,4.79,6.19,13.92,6.82,19.43,1.28,2.39-2.41,3.67-5.42,3.81-9.01,0-.04-.04-.07-.07-.07h0l-5.5-.07c-.14,0-.25.11-.25.23-.16,3.42-2.7,6.39-6.12,6.82-4.43.58-8.4-2.95-8.11-7.5" vector-effect="non-scaling-stroke"/>
            <path class="cls-3" d="m65.3,39.33s-.02-.05-.05-.05h-1.12s-.05.02-.05.05v2.52s.02.05.05.05h1.12s.05-.02.05-.05v-2.52" vector-effect="non-scaling-stroke"/>
            <path class="cls-3" d="m55.28,41.54c0-.07-.05-.14-.14-.14l-6.84-.02c-.07,0-.14.05-.14.14h0l-.02,6.87c0,.07.05.14.14.14l6.84.02c.07,0,.14-.05.14-.14h0l.02-6.87" vector-effect="non-scaling-stroke"/>
            <path class="cls-3" d="m94,44.54s.05.04.05.05l-.02,5.06s.04.05.05.05h2.5s.05-.04.05-.05h0l-.02-7.66s-.04-.05-.05-.05h-5s-.05.04-.05.05h0v2.48s.04.05.05.05h2.43" vector-effect="non-scaling-stroke"/>
            <path class="cls-3" d="m65.32,44.69c0-.09-.07-.16-.16-.16h-.88c-.09,0-.16.07-.16.16h0l-.02,2.36c0,.09.07.16.16.16h.88c.09,0,.16-.07.16-.16h0l.02-2.36" vector-effect="non-scaling-stroke"/>
            <path class="cls-3" d="m18.35,47.31c0-.07-.05-.13-.11-.13h-5.02c-.07,0-.13.05-.13.11v2.28c0,.07.05.13.11.13h5.02c.07,0,.13-.05.13-.11v-2.28" vector-effect="non-scaling-stroke"/>
            <path class="cls-3" d="m65.32,49.83c0-.09-.07-.16-.16-.16h-.88c-.09,0-.16.07-.16.16v2.36c0,.09.07.16.16.16h.88c.09,0,.16-.07.16-.16v-2.36" vector-effect="non-scaling-stroke"/>
            <path class="cls-3" d="m73.2,49.76s-.04-.05-.05-.05l-2.5.02s-.05.04-.05.05l.02,2.54s.04.05.05.05l2.5-.02s.05-.04.05-.05l-.02-2.54" vector-effect="non-scaling-stroke"/>
            <path class="cls-3" d="m20.87,52.42s-.04-.07-.07-.07h-5s-.07.04-.07.07h0v2.46s.04.07.07.07h5s.07-.04.07-.07h0v-2.46" vector-effect="non-scaling-stroke"/>
            <path class="cls-3" d="m70.58,55.05s-.02-.05-.05-.05h-2.52s-.05.02-.05.05h0v2.5s.02.05.05.05h2.52s.05-.02.05-.05h0v-2.5" vector-effect="non-scaling-stroke"/>
            <path class="cls-3" d="m15.71,60.34c0-.05.05-.11.11-.11h4.95c.05,0,.11-.05.11-.11v-2.39c0-.05-.05-.11-.11-.11h-7.56c-.05,0-.11.05-.11.11v5.07c0,.05.05.11.11.11h0l2.39-.05c.05,0,.11-.05.11-.11v-2.41" vector-effect="non-scaling-stroke"/>
            <path class="cls-3" d="m67.91,57.71c0-.05-.04-.09-.09-.09h0l-3.65.02c-.05,0-.09.04-.09.09v2.46c0,.05.04.09.09.09h0l3.65-.02c.05,0,.09-.04.09-.09v-2.46" vector-effect="non-scaling-stroke"/>
            <path class="cls-3" d="m18.37,62.98s-.02-.05-.05-.05h-2.55s-.05.02-.05.05v2.43s.02.05.05.05h2.55s.05-.02.05-.05v-2.43" vector-effect="non-scaling-stroke"/>
            <path class="cls-3" d="m2.54,65.45c.07,0,.11.05.11.11h0l.02,2.37c0,.07.05.11.11.11h2.28c.07,0,.11-.05.11-.11h0v-4.89c0-.07-.05-.11-.11-.11H.13c-.07,0-.11.05-.11.11H.02v2.28c0,.07.05.11.11.11h2.41" vector-effect="non-scaling-stroke"/>
            <path class="cls-3" d="m47.08,68.18c0-.05.05-.11.11-.11h2.34c.05,0,.11-.05.11-.11h0l-.07-2.39c0-.05-.05-.11-.11-.11h-2.25c-.05,0-.11-.05-.11-.11v-.99c0-.05-.05-.11-.11-.11h0l-2.45-.02c-.05,0-.11.05-.11.11h0l.07.99c0,.05-.04.11-.11.11h-2.45c-.05,0-.11-.05-.11-.11v-.99c0-.05-.05-.11-.11-.11h-2.43c-.05,0-.11.05-.11.11v.95c0,.05.05.11.11.11h2.43c.05,0,.11.05.11.11v5.07c0,.05.05.11.11.11l5.06.02c.05,0,.11-.05.11-.11h0l-.04-2.43" vector-effect="non-scaling-stroke"/>
            <path class="cls-3" d="m52.24,64.39c0-.09-.07-.16-.16-.16h-2.32c-.09,0-.16.07-.16.16h0v.85c0,.09.07.16.16.16h2.32c.09,0,.16-.07.16-.16h0v-.85" vector-effect="non-scaling-stroke"/>
            <path class="cls-3" d="m2.7,70.7l-.04,2.63" vector-effect="non-scaling-stroke"/>
            <path class="cls-3" d="m2.66,73.33H.11c-.07,0-.09.04-.09.09v2.45c0,.07.04.13.13.11l2.45-.02c.05,0,.09-.04.09-.09l-.02-2.54" vector-effect="non-scaling-stroke"/>
            <path class="cls-3" d="m2.66,73.33h2.39c.05,0,.09-.04.09-.09l.02-2.41c0-.07-.04-.11-.11-.11h-2.36" vector-effect="non-scaling-stroke"/>
            <path class="cls-3" d="m2.7,70.7l-.04-2.45c0-.13-.09-.22-.22-.22H.14c-.09,0-.13.04-.13.13l-.02,2.43c0,.05.04.09.09.09l2.61.02" vector-effect="non-scaling-stroke"/>
            <path class="cls-3" d="m18.35,78.58s-.02-.05-.05-.05H.07s-.05.02-.05.05v18.21s.02.05.05.05h18.22s.05-.02.05-.05v-18.21" vector-effect="non-scaling-stroke"/>
            <path class="cls-3" d="m55.01,83.8c-.07,0-.13-.05-.13-.13v-2.39c0-.07-.05-.13-.13-.13h0l-2.36.02c-.07,0-.13.05-.13.13h0v2.32c0,.07.05.13.13.13l2.36.04c.07,0,.13.05.13.13v2.37c0,.07.05.13.13.13h2.39c.07,0,.13.05.13.13v2.39c0,.07.05.13.13.13h5c.07,0,.13-.05.13-.13v-5c0-.07-.05-.13-.13-.13h-2.41c-.07,0-.13.05-.13.13h0l.05,2.34c0,.07-.05.13-.13.13h0l-2.39.04c-.07,0-.13-.05-.13-.13h0v-2.39c0-.07-.05-.13-.13-.13h-2.39" vector-effect="non-scaling-stroke"/>
            <path class="cls-3" d="m52.28,94.18s-.04.07-.05.07h-5.04s-.07.04-.07.05h0v2.48s.04.07.05.07h10.31s.07-.04.07-.05l-.02-2.48s-.04-.05-.07-.05h-2.52s-.07-.04-.07-.05v-7.65s-.04-.07-.05-.07h0l-5.13-.07s-.07.04-.07.05h0l-.02,2.54s.04.05.07.05h2.54s.07.04.07.05h0v5.06" vector-effect="non-scaling-stroke"/>
            <path class="cls-3" d="m44.47,91.79c0-.05-.04-.09-.09-.09h-2.46c-.05,0-.09.04-.09.09v2.36c0,.05.04.09.09.09h2.46c.05,0,.09-.04.09-.09h0v-2.36" vector-effect="non-scaling-stroke"/>
            <path class="cls-3" d="m65.27,94.27l-2.37-.04c-.05,0-.09.04-.09.09l-.02,2.37c0,.09.04.14.14.14h2.28c.07,0,.09-.04.09-.09l-.04-2.48" vector-effect="non-scaling-stroke"/>
            <path class="cls-3" d="m65.27,94.27l2.55-.04c.07,0,.09-.04.09-.09v-2.28c0-.07-.05-.13-.13-.13l-2.39-.02c-.05,0-.09.04-.09.09l-.04,2.46" vector-effect="non-scaling-stroke"/>
            <path class="cls-3" d="m62.79,91.82c0-.07-.05-.13-.13-.13h-2.41c-.07,0-.13.05-.13.13v2.27c0,.07.05.13.13.13h2.41c.07,0,.13-.05.13-.13v-2.27" vector-effect="non-scaling-stroke"/>
            <path class="cls-3" d="m15.71,2.7s-.02-.05-.05-.05l-12.93.02s-.05.02-.05.05h0l.02,12.97s.02.05.05.05l12.93-.02s.05-.02.05-.05h0l-.02-12.97" vector-effect="non-scaling-stroke"/>
            <path class="cls-3" d="m70.58,23.67c0-.07-.05-.14-.14-.14h-2.37c-.07,0-.14.05-.14.14v2.37c0,.07.05.14.14.14h2.37c.07,0,.14-.05.14-.14v-2.37" vector-effect="non-scaling-stroke"/>
            <path class="cls-3" d="m88.87,26.25s-.04-.05-.07-.05h-2.48s-.05.04-.05.07v2.52s.04.05.07.05h2.48s.05-.04.05-.07v-2.52" vector-effect="non-scaling-stroke"/>
            <path class="cls-3" d="m80.96,31.45s.05.04.05.05v2.41s.04.05.05.05l2.48-.02s.05-.04.05-.05h0l.02-5s-.04-.05-.05-.05h-5.16s-.05.04-.05.05l.02,2.48s.04.05.05.05h2.54" vector-effect="non-scaling-stroke"/>
            <path class="cls-3" d="m57.51,68.24c0-.09-.07-.16-.16-.16h-4.91c-.09,0-.16.07-.16.16h0v2.32c0,.09.07.16.16.16h4.91c.09,0,.16-.07.16-.16h0v-2.32" vector-effect="non-scaling-stroke"/>
            <path class="cls-3" d="m62.79,70.81c0-.07-.05-.11-.11-.11h0l-2.41.02c-.07,0-.11.05-.11.11l.02,2.37c0,.07.05.11.11.11h0l2.41-.02c.07,0,.11-.05.11-.11l-.02-2.37" vector-effect="non-scaling-stroke"/>
            <path class="cls-3" d="m60.14,73.4s-.04-.07-.07-.07h-2.45s-.07.04-.07.07h0v2.48s.04.07.07.07h2.45s.07-.04.07-.07h0v-2.48" vector-effect="non-scaling-stroke"/>
            <path class="cls-3" d="m88.89,73.4s-.02-.05-.05-.05h-2.52s-.05.02-.05.05h0v2.54s.02.05.05.05h2.52s.05-.02.05-.05h0v-2.54" vector-effect="non-scaling-stroke"/>
            <path class="cls-3" d="m83.62,76.01s-.02-.05-.05-.05h0l-7.68.02s-.05.02-.05.05h0l.02,7.68s.02.05.05.05l7.68-.02s.05-.02.05-.05h0l-.02-7.68" vector-effect="non-scaling-stroke"/>
            <path class="cls-3" d="m88.89,78.58c0-.05-.04-.09-.09-.09h0l-2.45.02c-.05,0-.09.04-.09.09l.02,2.48c0,.05.04.09.09.09h0l2.45-.02c.05,0,.09-.04.09-.09l-.02-2.48" vector-effect="non-scaling-stroke"/>
            <path class="cls-3" d="m33.93,81.24c0-.05-.04-.09-.09-.09h-4.97c-.05,0-.09.04-.09.09v2.45c0,.05.04.09.09.09h4.97c.05,0,.09-.04.09-.09h0v-2.45" vector-effect="non-scaling-stroke"/>
            <path class="cls-3" d="m94.05,2.72s-.02-.05-.05-.05h-12.95s-.05.02-.05.05h0v12.99s.02.05.05.05h12.95s.05-.02.05-.05h0V2.72" vector-effect="non-scaling-stroke"/>
            <path class="cls-3" d="m13.1,5.33c0-.09-.07-.14-.14-.14h-7.63c-.09,0-.14.07-.14.14l.02,7.63c0,.09.07.14.14.14l7.63-.02c.09,0,.14-.07.14-.14l-.02-7.61" vector-effect="non-scaling-stroke"/>
            <path class="cls-3" d="m91.53,5.31c0-.07-.05-.13-.13-.13h-7.66c-.07,0-.13.05-.13.13v7.66c0,.07.05.13.13.13h7.66c.07,0,.13-.05.13-.13v-7.66" vector-effect="non-scaling-stroke"/>
            <path class="cls-3" d="m28.77,44.6s-.04-.07-.07-.07h-2.48s-.07.04-.07.07v2.52s.04.07.07.07h2.48s.07-.04.07-.07h0v-2.52" vector-effect="non-scaling-stroke"/>
            <path class="cls-3" d="m28.78,60.37c0-.05-.05-.11-.11-.11h-2.43c-.05,0-.11.05-.11.11h0v2.46c0,.05.05.11.11.11h2.43c.05,0,.11-.05.11-.11v-2.46" vector-effect="non-scaling-stroke"/>
            <path class="cls-3" d="m81.01,78.54s-.04-.05-.05-.05l-2.54.02s-.05.04-.05.05l.02,2.52s.04.05.05.05l2.54-.02s.05-.04.05-.05l-.02-2.52" vector-effect="non-scaling-stroke"/>
            <path class="cls-3" d="m15.72,81.21s-.04-.05-.05-.05H2.72s-.05.04-.05.05v12.97s.04.05.05.05h12.93s.05-.04.05-.05h0v-12.97" vector-effect="non-scaling-stroke"/>
            <path class="cls-3" d="m13.1,83.91c0-.05-.05-.11-.11-.11h-7.7c-.05,0-.11.05-.11.11h0v7.7c0,.05.05.11.11.11h7.7c.05,0,.11-.05.11-.11v-7.7" vector-effect="non-scaling-stroke"/>
          </g>
          <path class="cls-4" d="m18.35,18.35s-.02.05-.05.05H.05s-.05-.02-.05-.05h0V.09s.02-.05.05-.05h18.26s.05.02.05.05h0v18.26h-.02Zm-2.64-15.65s-.02-.05-.05-.05l-12.93.02s-.05.02-.05.05h0l.02,12.97s.02.05.05.05l12.93-.02s.05-.02.05-.05h0l-.02-12.97Z"/>
          <path class="cls-4" d="m23.53,7.72V2.77c0-.05-.04-.09-.09-.09l-2.46-.02c-.05,0-.11-.04-.11-.09h0l.02-2.39c0-.05.04-.09.09-.09h2.43c.05,0,.11.04.11.09h0l-.02,2.41c0,.05.04.11.09.11h2.46c.05,0,.11-.04.11-.09h0V.14c0-.05.04-.09.11-.09h0l2.45.02c.05,0,.11.04.11.09h0v2.41c0,.05.04.11.11.11h2.41c.05,0,.11-.04.11-.09h0V.13c0-.05.04-.11.11-.11h4.97c.05,0,.11.04.11.09h0v2.43c0,.05-.04.11-.11.11h-2.45c-.05,0-.11.04-.11.09h0v2.32c0,.05-.04.11-.11.11h-4.93c-.05,0-.11-.04-.11-.09h0l-.02-2.32c0-.05-.04-.09-.09-.11h-2.48c-.05,0-.11.04-.11.09h0v7.61c0,.05-.04.09-.09.09l-5.07.02c-.05,0-.11-.04-.11-.09h0v-2.39c0-.05.04-.09.09-.09l2.46-.05c.09,0,.13-.05.13-.11Z"/>
          <path class="cls-4" d="m49.69,2.66h2.52s.07-.04.07-.05h0V.13s.04-.05.07-.05h2.48s.07.04.07.05h0v5s-.04.05-.07.05h-7.65s-.07-.04-.07-.05h0V.09s.04-.07.07-.07h0l2.37.02s.07.04.07.05h0l.02,2.48c-.04.05,0,.09.04.09h0Z"/>
          <path class="cls-4" d="m91.57,60.23l-2.5.05c-.13,0-.2-.05-.2-.2v-2.37c0-.05-.04-.09-.09-.09h-2.43c-.05,0-.09.04-.09.09h0v7.65c0,.05.04.09.09.09h2.43c.05,0,.09-.04.09-.09v-2.34c0-.05.04-.09.09-.09h2.34c.13,0,.23.11.23.23h0l-.04,4.82s.04.07.07.07l2.37.07c.05,0,.09.04.09.09v4.97c0,.07-.04.11-.09.11-.79.07-1.58.05-2.37-.07v-2.43c0-.07-.04-.09-.09-.09h-2.28c-.18,0-.32-.14-.32-.32l.02-2.21c0-.07-.04-.11-.11-.11l-7.68-.02c-.05,0-.09.04-.09.09v5.06c0,.07.04.11.11.11h2.41c.05,0,.09-.04.09-.09v-2.34c0-.13.05-.18.18-.18h4.97c.07,0,.11.04.11.11l.07,2.27c0,.16.14.29.29.29h0l2.3-.05.04,7.83-2.59.02c-.07,0-.11.05-.11.11h0l.04,7.57c0,.13.09.22.22.22h2.28c.07,0,.14-.07.14-.14h0l-.04-2.37c0-.07.04-.11.11-.11l2.3-.02c.07,0,.13.04.13.11v2.41c0,.09.04.14.14.14h2.39c.07,0,.11.04.11.11l.02,2.41c0,.09-.05.14-.14.14l-2.39-.04c-.07,0-.13-.04-.13-.13l-.02-2.39c0-.07-.04-.11-.11-.11l-2.25-.04c-.09,0-.13.04-.13.13l-.02,2.39c0,.11.05.14.14.14l2.16.02c.11,0,.2.09.2.2l.02,2.25c0,.07.04.11.11.11l2.43-.05c.05,0,.09.04.09.09l.04,2.45c0,.05-.04.09-.09.09l-10.22.02c-.09,0-.14-.05-.14-.14l-.04-5.06,2.57.04c.07,0,.11.04.11.11l.02,2.27c0,.07.05.14.14.14h2.36c.07,0,.13-.04.13-.13v-2.3c0-.05-.04-.09-.09-.09h-2.37c-.09,0-.14-.05-.14-.14l-.05-2.41c0-.05-.05-.11-.11-.11h-2.12c-.2,0-.38.16-.38.36l-.04,2.25c-.83.07-1.62.07-2.36,0-.18-.02-.25.05-.25.23v4.88s-.04.07-.07.07h0l-7.63-.02c-.05,0-.07-.02-.07-.07v-2.41c0-.09.05-.14.14-.14h4.97c.05,0,.07-.02.07-.07v-5.02c0-.07.04-.11.09-.11l5.02.02c.07,0,.14-.05.14-.14v-2.34c0-.05-.04-.09-.09-.09h-7.74c-.05,0-.09.04-.09.09v5.13c0,.05-.04.09-.09.09h0l-2.34-.05c-.05,0-.09-.04-.09-.09v-2.34c0-.13-.11-.22-.22-.22h0l-2.36.05c-.05,0-.09.04-.09.09l.02,7.63c0,.07-.04.09-.11.09h-2.45c-.05,0-.09-.04-.09-.09v-4.93c0-.11-.05-.16-.16-.16h-2.12c-.18,0-.34-.14-.34-.34h0l.02-4.88c0-.05.02-.07.07-.07h4.97c.09,0,.18-.07.18-.18l.04-10.09c0-.11-.05-.18-.16-.18h-2.28c-.13,0-.18.05-.18.18v2.21c0,.09-.04.13-.13.13h-2.19c-.2,0-.34-.16-.34-.34v-.04c.07-.68.07-1.37.02-2.05,0-.05-.04-.09-.09-.09h-2.45c-.05,0-.09-.04-.09-.09l.04-2.46c0-.05-.04-.09-.09-.09l-2.3-.02c-.07,0-.14.05-.14.13h0v2.46c0,.05.04.09.09.09h2.18c.13,0,.23.11.23.23v2.18c0,.07.04.11.11.11l2.39.02c.07,0,.11.04.11.11l.02,5.07c0,.05-.02.07-.07.07l-4.95.05c-.07,0-.11-.04-.11-.11l-.02-5.07c0-.07-.04-.11-.09-.11l-2.45-.04c-.07,0-.13.04-.13.13v2.46c0,.05-.04.09-.09.09h-5.09c-.05,0-.09-.04-.09-.09l-.02-2.45c0-.09-.04-.13-.13-.13l-2.39.02c-.05,0-.09.04-.09.09l.02,2.41c0,.07-.04.11-.11.13l-2.45.05c-.07,0-.11.04-.11.11v5c0,.07-.04.11-.11.11h-4.86c-.13,0-.23-.11-.23-.23h0l.07-2.27c0-.05-.04-.09-.09-.09l-2.46-.02c-.07,0-.09-.04-.11-.09l-.04-2.43c0-.07-.04-.11-.11-.11h-2.39c-.09,0-.14.04-.14.14v2.41c0,.07.04.11.11.11h2.43c.07,0,.11.04.11.11v2.39c0,.07-.04.13-.13.13h-2.45c-.05,0-.09.04-.09.09h0l.05,2.32c0,.14-.11.25-.23.25h-.02l-2.32-.04c-.05,0-.09.04-.09.09h0l.04,2.48c0,.07.04.11.11.11h2.41c.05,0,.09.04.09.09v2.34c0,.05-.04.09-.09.09h-5.07c-.05,0-.09.04-.09.09v2.36c0,.05-.04.09-.09.09l-2.25.04c-.13,0-.2-.05-.2-.2v-4.89c0-.05-.02-.07-.07-.07h-5.11c-.05,0-.07.02-.07.07v2.36c0,.05.04.09.09.09h2.45c.07,0,.11.04.11.11l.02,2.41c0,.09-.04.14-.14.14h-2.39c-.05,0-.09-.04-.09-.09v-2.39c0-.09-.07-.16-.16-.16h-2.36c-.05,0-.09-.04-.09-.09h0l.02-2.36c0-.05-.02-.07-.07-.07l-2.5-.02c-.07,0-.09-.04-.09-.09v-2.41c0-.07.05-.13.11-.13h2.46c.05,0,.09-.04.09-.09l-.02-2.52h2.48c.07,0,.11.04.11.11v2.41c0,.05.04.09.09.09l7.39-.02c.2,0,.29-.09.29-.29v-2.28c0-.05-.04-.09-.09-.09h-7.57c-.05,0-.09-.04-.09-.09v-7.7c0-.07-.04-.11-.11-.11l-5.07-.02c-.05,0-.09-.04-.09-.09v-2.34c0-.07-.04-.09-.09-.09h-7.59c-.05,0-.09-.04-.09-.09v-2.45c0-.07-.04-.11-.13-.11h-2.45c-.05,0-.09-.04-.09-.09v-2.43c0-.05-.04-.09-.07-.09l-2.41-.05c-.07,0-.11-.04-.11-.11l-.02-2.36c0-.07.04-.09.09-.09l2.46-.05s.05-.02.05-.07v-2.5c0-.05-.04-.09-.09-.09l-2.39.04c-.07,0-.11-.04-.11-.09l-.05-2.32c0-.07-.04-.11-.11-.11l-2.39-.04c-.07,0-.11-.04-.11-.11v-2.36c0-.09-.07-.18-.18-.18h0l-4.89.02c-.07,0-.11-.04-.11-.09v-2.39c0-.09.04-.13.13-.13l2.43-.04c.07,0,.11-.04.11-.11l.02-5.07c0-.05-.02-.07-.07-.07H.11c-.05,0-.09-.04-.09-.09v-4.98c0-.05.04-.09.09-.09h2.32c.16,0,.23.07.23.23v2.18c0,.07.04.11.11.11l2.37.02s.05-.02.05-.05l-.02-2.39c0-.05.04-.09.09-.09h2.43c.09,0,.14.04.14.14v4.95c0,.05-.04.09-.09.09h-2.52c-.05,0-.07.02-.07.07l.02,2.45c0,.05.04.09.09.09h2.46c.05,0,.09-.04.09-.09v-2.39c0-.07.04-.11.13-.11h4.98c.07,0,.13.04.13.11l.05,2.37c0,.07-.04.13-.13.13h-2.46c-.05,0-.09.04-.09.09v5.11c0,.07-.05.13-.13.13h0l-2.43-.09c-.07,0-.09.04-.09.09l.05,2.25c0,.2.16.36.36.36h4.82c.05,0,.09.04.09.09v7.57c0,.07.04.11.11.11h2.5l.02,2.52c0,.07.04.11.11.11l7.59-.02c.05,0,.07.02.07.07l-.02,2.5s.04.07.07.07h15.54c.07,0,.09.04.09.09l-.02,2.3c0,.07.04.11.11.11l5.04.02c.09,0,.13.04.13.13l.05,2.41c0,.07.04.11.11.11h2.39c.07,0,.09-.04.09-.09v-2.37c0-.09-.04-.13-.13-.14l-2.45-.05s-.07-.02-.07-.07l-.02-2.34c0-.07-.04-.11-.11-.11h-5.02c-.07,0-.11-.05-.11-.11h0l.02-5.15h2.52c.05,0,.09.04.09.09v2.46s.04.07.07.07h0l10.31-.02.05,2.57c0,.05.04.07.07.07l2.43.04c.07,0,.11.04.11.11v2.32c0,.05.04.09.09.09h2.43c.07,0,.14-.05.14-.14v-2.14c0-.16-.09-.25-.25-.25h-2.3c-.05,0-.09-.04-.09-.09v-2.46c0-.05-.04-.09-.09-.09h-2.55v-2.52c0-.05-.04-.09-.09-.09l-2.39-.02c-.09,0-.13-.04-.13-.13l.02-2.37c0-.07.04-.13.11-.13l2.37-.04c.07,0,.11-.04.11-.11l.02-2.41c0-.05.02-.07.07-.07h2.45c.05,0,.09-.04.09-.09v-1.01c0-.07.04-.13.13-.13h2.43c.07,0,.11.04.11.11v.94c0,.13.07.18.18.18l2.37-.05c.09,0,.13-.04.11-.13l-.05-.7c-.02-.18.13-.32.29-.34h.05c1.15.07,2.3.07,3.45-.02.07,0,.11-.04.11-.11l.09-1.08c0-.07.05-.11.13-.11l.9.02c.09,0,.13.05.13.13v2.34c0,.05.04.09.09.09h0l2.41-.02c.05,0,.09.04.09.09l.02,2.43c0,.07-.04.09-.09.09l-2.46.02c-.05,0-.09.04-.09.09v2.41c0,.07.04.11.11.11l2.41.05c.07,0,.09.04.11.11l.07,2.41c0,.05.04.09.09.09h2.45c.05,0,.09-.04.09-.09v-7.7s.04-.07.07-.07h2.45c.05,0,.09.04.09.09v2.37c0,.09.07.18.16.18h0l2.36-.04c.07,0,.13.04.13.13v2.46c0,.05-.04.09-.09.09h-2.45c-.05,0-.09.04-.09.09l.02,2.43c0,.05.04.09.09.09h4.95c.05,0,.09-.04.09-.09v-12.7c0-.16-.13-.29-.29-.29h0l-2.12.02c-.05,0-.09.04-.09.09l-.02,2.43c0,.07-.04.11-.11.11l-2.43.07c-.09,0-.13-.04-.13-.13l.04-2.43c0-.07.04-.09.09-.09l2.45-.05c.07,0,.11-.04.11-.11v-5c0-.07.04-.11.11-.11l2.27-.05c.07,0,.13-.05.13-.13l.02-2.37c0-.05-.02-.07-.07-.07h-2.36c-.05,0-.09-.04-.09-.09v-5.11c0-.05.04-.09.09-.09h2.32c.07,0,.11.04.11.11v4.84c0,.13.11.23.23.23h2.3c.07,0,.11.04.11.11v2.39c0,.07-.04.11-.11.11h-2.45c-.05,0-.09.04-.09.09v2.43c0,.07.04.09.09.09l2.46.04c.07,0,.11.04.11.11v2.41c0,.07.04.11.11.11l2.32.02c.11,0,.18-.07.18-.18h0v-2.37c0-.07.04-.11.11-.11h2.37c.11,0,.18-.07.18-.18v-2.37c0-.05-.04-.09-.09-.09h-2.43c-.09,0-.14-.04-.14-.14v-5.02c0-.07.04-.11.11-.11h2.39c.07,0,.14-.05.14-.14v-4.95c0-.05-.04-.09-.09-.09h-7.74c-.05,0-.09-.04-.09-.09v-2.16c0-.2.16-.38.36-.38h2.16c.09,0,.13-.04.13-.13v-5.04c0-.05-.04-.09-.09-.09h-2.43c-.09,0-.14.04-.14.14v4.84c0,.2-.09.29-.29.27l-2.16-.04c-.05,0-.09-.04-.09-.09v-2.39c0-.07-.04-.11-.11-.11h-2.41c-.09,0-.14.05-.14.14l.02,2.41c0,.07.04.11.11.11h2.45c.05,0,.09.04.09.09v2.43c0,.05-.04.09-.09.09h-2.48c-.05,0-.09.04-.09.09v2.48c0,.05-.04.09-.09.09l-2.43.02c-.05,0-.09-.04-.09-.09v-2.52c0-.05-.02-.07-.07-.07l-2.46.04c-.07,0-.11-.04-.11-.11v-2.41c0-.05.04-.09.09-.09h2.45c.07,0,.13-.05.13-.11v-2.48c0-.07-.04-.09-.09-.09h-2.46c-.05,0-.09-.04-.09-.09v-2.55h2.57c.05,0,.09-.04.09-.09v-2.45c0-.07.04-.13.13-.11l2.37.04c.09,0,.13.04.13.13l.04,2.41c0,.05.04.09.09.09h2.45s.07-.04.07-.07h0v-2.41c0-.07-.04-.11-.11-.11l-2.43-.07c-.09,0-.13-.05-.13-.13v-2.27c0-.07.05-.11.13-.11h2.41c.07,0,.13-.04.13-.11v-2.41c0-.07-.04-.11-.11-.11l-2.43.04c-.07,0-.11-.04-.11-.11l-.02-2.41c0-.09-.04-.13-.13-.13h-2.37c-.07,0-.11.04-.11.11v2.39c0,.09-.07.16-.16.16h0l-2.37-.05c-.07,0-.13.04-.13.13v7.7l-3.72.05c-.05,0-.11-.04-.11-.09h0v-2.41c0-.14.07-.22.22-.2l.94.07c.07,0,.09-.02.09-.09l-.04-2.39c0-.05-.04-.09-.09-.09h-2.3c-.09,0-.13-.04-.13-.13v-2.48c0-.07-.05-.13-.13-.13h0l-2.43.05c-.05,0-.09.04-.09.09v3.6c0,.07-.05.13-.13.13l-2.37.04c-.07,0-.11-.04-.11-.09l-.04-1.06c0-.07-.04-.11-.11-.11l-2.34.04c-.07,0-.13-.04-.13-.11l-.07-2.41c0-.07.04-.09.09-.09h2.46c.07,0,.11-.04.11-.11v-2.41c0-.09-.04-.14-.14-.14h-5.04c-.07,0-.13-.05-.13-.13h0l.04-2.43c0-.05-.04-.09-.09-.09h-2.48c-.05,0-.09-.04-.09-.09v-2.46c0-.05-.04-.09-.09-.09l-2.3-.02c-.07,0-.11-.04-.11-.11l.02-5.09,2.34.04c.07,0,.11.04.11.11l.04,2.39c0,.09.07.14.14.14h2.39c.07,0,.11.04.11.11l-.04,2.34c0,.05.02.07.07.07h7.68c.07,0,.14.05.14.14v2.43c0,.05.04.09.09.09h2.46c.05,0,.11-.05.11-.11v-10.16c0-.13.07-.2.2-.2h4.82c.07,0,.11.04.11.11v2.45c0,.05-.04.09-.09.09h-2.43c-.05,0-.09.04-.09.09v2.48c0,.05.04.09.09.09h2.46s.07.04.07.07h0l-.04,2.36c0,.05-.04.09-.09.09h-2.43c-.05,0-.09.04-.09.09v2.48c0,.05.04.09.09.09h2.43c.05,0,.09-.04.09-.09v-2.37c0-.11.07-.18.18-.18h2.46c.05,0,.09-.04.09-.09v-2.32c0-.07-.05-.13-.11-.13l-2.39-.02c-.09,0-.14-.05-.14-.14v-2.39c0-.05.04-.09.09-.09h2.46c.05,0,.09-.04.09-.09v-2.48c0-.05-.04-.09-.09-.09h-2.48c-.05,0-.09-.04-.09-.09v-2.39c0-.07-.04-.13-.13-.13l-4.88-.04c-.07,0-.13-.05-.13-.13v-4.98c0-.07.04-.11.11-.11l2.28-.07c.07,0,.11.04.11.11l.02,2.46c0,.05.04.09.09.09h2.45c.05,0,.07-.02.07-.07v-2.45c0-.07-.04-.11-.11-.11l-2.43-.04c-.05,0-.09-.04-.09-.09v-2.27c0-.09-.04-.14-.14-.14h-4.88c-.07,0-.11-.04-.11-.11l-.04-2.41s.04-.07.07-.07h0l7.39-.07c.2,0,.34.14.34.34h0l-.02,2.19c0,.09.04.13.13.13h5.06c.07,0,.09.04.09.09l-.02,2.34c0,.05-.04.09-.09.09h-2.41c-.05,0-.09.04-.09.09v2.46c0,.05.04.09.09.09l5.07.04c.07,0,.09.04.09.09v5.02c0,.05-.05.11-.11.11h-2.41c-.09,0-.13.04-.13.13v2.43c0,.05-.04.09-.09.09h-2.41c-.07,0-.11.04-.11.13l.04,2.43c0,.07.04.11.11.11h2.37c.07,0,.11.04.11.13l-.02,7.54c0,.09.05.14.14.14h2.43c.05,0,.09-.04.09-.09l-.02-5.06c0-.07.04-.11.11-.11h2.32c.05,0,.09.04.09.09v5.07c0,.05.04.09.09.09h2.48c.05,0,.09-.04.09-.09v-2.43c0-.05.04-.09.09-.09h5.09c.05,0,.09-.04.09-.09v-2.48c0-.05.04-.09.09-.09h2.43c.05,0,.09.04.09.09v2.45c0,.07.04.11.11.11h2.39c.09,0,.16.07.16.16h0l-.02,2.25c0,.11.07.18.18.18h0l2.27.04c.05,0,.09.04.09.09v5.02c0,.07.04.11.11.11l2.37-.02c.07,0,.13.05.13.13l.02,7.52c0,.13-.07.2-.2.2h-7.48c-.07,0-.11-.04-.11-.11l-.04-2.5c0-.05-.02-.07-.07-.07l-2.41.02c-.07,0-.11-.04-.11-.11v-2.32c0-.11.09-.18.2-.18h0l2.3.02c.09,0,.14.05.14.14l.02,2.16c0,.18.14.34.34.34h2.1c.13,0,.2-.07.2-.2l-.05-2.28c0-.09.04-.14.14-.14l2.32-.04c.05,0,.09-.04.09-.09l-.05-2.27c0-.09-.07-.14-.14-.14h-2.25c-.05,0-.09.04-.09.09v2.39c0,.07-.04.09-.09.09l-2.46-.04c-.05,0-.11-.05-.11-.11v-2.36c0-.05-.04-.09-.09-.09h-2.34c-.11,0-.18.09-.18.18h0l.02,2.25c0,.07-.04.13-.13.13l-2.36-.05c-.11,0-.16.05-.16.14l-.04,2.39c0,.07.04.13.13.13h2.46c.05,0,.09.04.09.09v2.48c0,.05-.04.09-.09.09h-2.48c-.05,0-.09.04-.09.09v2.46c0,.05.05.11.11.11h5.07c.05,0,.09.04.09.09v5.07c0,.05.04.09.09.09h2.46c.05,0,.09.04.09.09h0l-.02,2.18c0,.16-.09.23-.23.23h-2.28c-.09,0-.14.04-.14.14v2.45s.04.07.07.07h2.48c.05,0,.09-.04.09-.09v-2.46c0-.05.04-.09.09-.09h2.27c.11,0,.18.09.18.18h0v4.95c0,.09-.04.14-.14.14h-2.19c-.09,0-.16.07-.16.16h0l.02,5.09Zm-20.99-36.56c0-.07-.05-.14-.14-.14h-2.37c-.07,0-.14.05-.14.14v2.37c0,.07.05.14.14.14h2.37c.07,0,.14-.05.14-.14v-2.37Zm18.3,2.57s-.04-.05-.07-.05h-2.48s-.05.04-.05.07v2.52s.04.05.07.05h2.48s.05-.04.05-.07v-2.52Zm-7.92,5.2s.05.04.05.05v2.41s.04.05.05.05l2.48-.02s.05-.04.05-.05h0l.02-5s-.04-.05-.05-.05h-5.16s-.05.04-.05.05l.02,2.48s.04.05.05.05h2.54v.02Zm-23.44,36.79c0-.09-.07-.16-.16-.16h-4.91c-.09,0-.16.07-.16.16h0v2.32c0,.09.07.16.16.16h4.91c.09,0,.16-.07.16-.16h0v-2.32Zm5.27,2.57c0-.07-.05-.11-.11-.11h0l-2.41.02c-.07,0-.11.05-.11.11l.02,2.37c0,.07.05.11.11.11h0l2.41-.02c.07,0,.11-.05.11-.11l-.02-2.37Zm-2.64,2.59s-.04-.07-.07-.07h-2.45s-.07.04-.07.07h0v2.48s.04.07.07.07h2.45s.07-.04.07-.07h0v-2.48Zm28.75,0s-.02-.05-.05-.05h-2.52s-.05.02-.05.05h0v2.54s.02.05.05.05h2.52s.05-.02.05-.05h0v-2.54Zm-5.27,2.61s-.02-.05-.05-.05h0l-7.68.02s-.05.02-.05.05h0l.02,7.68s.02.05.05.05l7.68-.02s.05-.02.05-.05h0l-.02-7.68Zm5.27,2.57c0-.05-.04-.09-.09-.09h0l-2.45.02c-.05,0-.09.04-.09.09l.02,2.48c0,.05.04.09.09.09h0l2.45-.02c.05,0,.09-.04.09-.09l-.02-2.48Zm-54.96,2.66c0-.05-.04-.09-.09-.09h-4.97c-.05,0-.09.04-.09.09v2.45c0,.05.04.09.09.09h4.97c.05,0,.09-.04.09-.09h0v-2.45Z"/>
          <path class="cls-4" d="m73.29.05l2.43-.02c.05,0,.11.04.11.11l.02,2.41c0,.05-.04.11-.11.11l-2.43.02c-.05,0-.11-.04-.11-.11l-.02-2.41c0-.05.05-.11.11-.11Z"/>
          <path class="cls-4" d="m96.7,18.31c0,.05-.04.09-.09.09h-18.15c-.05,0-.09-.04-.09-.09h0V.14c0-.05.04-.09.09-.09h18.15c.05,0,.09.04.09.09h0v18.17Zm-2.64-15.6s-.02-.05-.05-.05h-12.95s-.05.02-.05.05h0v12.99s.02.05.05.05h12.95s.05-.02.05-.05h0V2.72Z"/>
          <path class="cls-4" d="m57.53,5.11v-2.39s.04-.05.07-.05h2.5s.05.04.05.05l-.02,2.41s-.04.05-.07.05h0l-2.48-.04s-.07.04-.07.05h0v2.54s-.04.05-.07.05h-2.52s-.07-.04-.07-.05h0v-2.45s.04-.05.05-.05l2.54-.05c.05-.02.09-.04.09-.07Z"/>
          <path class="cls-4" d="m5.33,5.18l7.63-.02c.09,0,.14.07.14.14l.02,7.63c0,.09-.07.14-.14.14l-7.63.02c-.09,0-.14-.07-.14-.14l-.02-7.61c0-.09.05-.16.14-.16Z"/>
          <path class="cls-4" d="m47.13,15.71l-2.59.04c-.07,0-.11.04-.11.11v4.95c0,.07.04.11.11.11h2.3c.14,0,.25.11.25.25h0v2.3c0,.05-.04.09-.09.09l-2.48.02c-.05,0-.09.04-.09.09v2.34c0,.11.05.18.18.18l4.91.04c.07,0,.09.04.09.09v2.39c0,.05-.04.09-.07.09l-5,.05c-.05,0-.09.04-.09.09v2.43c0,.05-.04.09-.09.09h-5c-.07,0-.11.04-.13.11l-.05.94c0,.09-.09.16-.18.16l-5.02-.04c-.07,0-.11-.04-.11-.11l.04-.94c0-.07.04-.11.11-.11h2.46c.07,0,.09-.04.09-.11l-.02-2.43c0-.05-.04-.09-.09-.09h-2.46c-.05,0-.09.04-.09.09v2.37c0,.09-.04.14-.14.14h-4.77c-.13,0-.2-.05-.2-.18l-.07-2.32c0-.05.02-.09.07-.09l2.48-.07c.05,0,.09-.04.09-.09l.04-2.39c0-.07-.04-.11-.11-.11l-5.06-.04c-.07,0-.11.04-.11.13v5.02c0,.07.05.14.14.14h2.43c.05,0,.09.04.09.09v2.34c0,.05-.04.09-.09.09l-2.45.02c-.05,0-.09-.04-.09-.09l-.04-2.19c0-.18-.09-.27-.27-.27h-2.28c-.07,0-.11-.05-.11-.11h0c.07-1.67.07-3.35.02-5.02,0-.07-.04-.13-.13-.13h-2.39c-.07,0-.11.04-.11.11v5.06c0,.07-.04.11-.11.11h-2.18c-.11,0-.18-.07-.18-.18l-.05-2.16c0-.2-.11-.31-.31-.29l-2.21.04c-.09,0-.13-.04-.13-.13v-2.41c0-.07.04-.11.11-.11l2.34-.04c.14,0,.22-.07.22-.22v-2.3c0-.09-.04-.13-.13-.13h-5c-.09,0-.13.04-.13.13v2.43c0,.05-.04.09-.09.09h-2.48c-.05,0-.09.04-.09.09v2.45c0,.07-.04.11-.13.11l-2.39-.02c-.07,0-.11-.04-.11-.11l-.04-2.41c0-.07-.04-.13-.13-.13h-2.34c-.09,0-.16.07-.16.16h0v2.34c0,.07-.04.13-.13.13l-2.27.02c-.09,0-.13-.04-.13-.13v-5c0-.07.04-.11.11-.11h2.32c.05,0,.09-.04.09-.09v-2.45c0-.07.04-.11.11-.11l2.46-.04c.07,0,.11.04.11.11l-.05,2.34c0,.14.07.22.22.22h2.36c.07,0,.11-.04.11-.11v-2.36c0-.13.05-.2.2-.2h7.61c.05,0,.09.04.09.09v2.34c0,.13.11.23.23.23h2.19c.05,0,.09-.04.09-.09l-.02-2.45c0-.07.04-.11.11-.11h2.46c.07,0,.09.04.09.09l-.04,2.43c0,.07.05.13.13.13h2.43c.05,0,.09-.04.09-.09v-7.66s.04-.05.05-.05l2.36.04c.14,0,.2.07.2.22v4.86c0,.07.04.11.11.11h2.36c.13,0,.18-.05.18-.18v-4.88c0-.07.04-.11.11-.11l2.32-.02c.07,0,.11.04.11.11l-.02,5.02c0,.05.02.07.07.07h2.48c.07,0,.11.04.11.11l-.02,5.06s.04.07.07.07l5.13.02c.07,0,.11-.04.11-.11l-.05-2.46c0-.05-.04-.09-.09-.09l-2.43.05c-.07,0-.09-.04-.09-.09v-2.43c0-.09.04-.14.14-.14h2.32c.14,0,.2-.07.2-.2v-4.73c0-.16-.09-.25-.25-.25l-2.28.02c-.07,0-.11-.04-.11-.11v-2.41c0-.07-.04-.09-.09-.09l-2.3-.05c-.14,0-.25.11-.25.23v.02l.05,2.3c0,.09-.04.13-.13.13l-2.43-.04c-.07,0-.11-.04-.11-.11v-2.39c0-.13-.05-.18-.18-.18h-7.48c-.07,0-.11-.04-.11-.11l-.02-2.41c0-.05.04-.09.09-.09h2.48c.05,0,.09-.04.09-.09v-2.48c0-.05.04-.09.09-.09h4.93c.07,0,.11.04.11.11v2.34c0,.11.09.22.2.22h2.32c.07,0,.09-.04.09-.09l-.04-2.39c0-.09.04-.13.13-.14l2.32-.04c.11,0,.18.07.18.18h0v2.39c0,.05.04.09.09.09h2.48c.05,0,.09-.04.09-.09v-2.48c0-.05-.04-.09-.09-.09h-2.46c-.05,0-.09-.04-.09-.09v-2.32c0-.16.09-.25.25-.25h2.27c.07,0,.11.04.11.11l.02,2.46c0,.05.04.09.09.09h2.43c.05,0,.09.04.09.09v5.04c0,.07.05.13.13.13l2.39.02c.09,0,.13.04.13.13l.05,2.48Z"/>
          <path class="cls-4" d="m83.74,5.18h7.66c.07,0,.13.05.13.13v7.66c0,.07-.05.13-.13.13h-7.66c-.07,0-.13-.05-.13-.13v-7.66c0-.07.05-.13.13-.13Z"/>
          <path class="cls-4" d="m49.65,13.13l-2.37-.04c-.11,0-.2-.09-.2-.2v-4.93c0-.05.04-.09.09-.09l2.25-.04c.09,0,.16.07.18.16.04,1.57.02,3.13-.04,4.7.02.16.07.29.09.43Z"/>
          <path class="cls-4" d="m52.32,7.86h2.48s.05.02.05.05v5.13s-.02.05-.05.05h-2.48s-.05-.02-.05-.05v-5.13s.04-.05.05-.05Z"/>
          <path class="cls-4" d="m49.65,13.13c.81-.07,1.64-.07,2.46-.02.05,0,.09.04.09.09l.05,2.43c0,.05.04.09.09.09h2.39c.07,0,.11.04.11.11l.02,2.46c0,.07-.04.11-.11.11l-2.41-.05c-.05,0-.09-.04-.09-.09l-.04-2.43c0-.07-.04-.11-.11-.11l-2.32-.02c-.11,0-.18-.09-.18-.18h0l.04-2.39Z"/>
          <path class="cls-4" d="m20.92,15.76l2.54-.02s.05.02.05.05l.02,2.55s-.02.05-.05.05l-2.54.02s-.05-.02-.05-.05l-.02-2.55s.02-.05.05-.05Z"/>
          <path class="cls-4" d="m36.61,15.76l2.48-.04s.07.04.07.07l.04,2.48s-.04.07-.07.07l-2.48.04s-.07-.04-.07-.07l-.04-2.48s.04-.07.07-.07Z"/>
          <path class="cls-4" d="m57.59,15.76l2.5-.02s.07.04.07.07l.02,2.52s-.04.07-.07.07l-2.5.02s-.07-.04-.07-.07l-.02-2.52s.04-.07.07-.07Z"/>
          <path class="cls-4" d="m73.29,15.76l2.46-.02s.07.04.07.07l.02,2.48s-.04.07-.07.07l-2.46.02s-.07-.04-.07-.07l-.02-2.48s.04-.07.07-.07Z"/>
          <path class="cls-4" d="m94.14,20.94l2.45-.02c.05,0,.09.04.09.09l.02,2.45c0,.05-.04.09-.09.09l-2.45.02c-.05,0-.09-.04-.09-.09l-.02-2.45c-.02-.05.04-.09.09-.09Z"/>
          <path class="cls-4" d="m2.7,31.48l-2.59-.04c-.07,0-.09-.04-.09-.09v-2.41c0-.07.04-.11.11-.11h2.34c.11,0,.2.09.22.2l.02,2.45Z"/>
          <path class="cls-4" d="m7.9,31.45l2.48.02s.07.04.07.07l-.02,2.37s-.04.07-.07.07l-2.48-.02s-.07-.04-.07-.07l.02-2.37s.04-.07.07-.07Z"/>
          <path class="cls-4" d="m15.78,31.46h2.52s.07.04.07.07v2.39s-.04.07-.07.07h-2.52s-.07-.04-.07-.07v-2.39s.04-.07.07-.07Z"/>
          <path class="cls-4" d="m2.7,31.48h2.37c.05,0,.09.04.09.09v2.27c0,.07-.04.11-.13.11h-2.28s-.07-.04-.07-.07h0l.02-2.39Z"/>
          <path class="cls-4" d="m49.69,31.5h2.5s.07.04.07.07v1.03s-.04.07-.07.07h-2.5s-.07-.04-.07-.07v-1.03s.04-.07.07-.07Z"/>
          <path class="cls-4" d="m.13,34h2.39c.07,0,.13.05.13.13v2.39c0,.07-.05.13-.13.13H.13c-.07,0-.13-.05-.13-.13v-2.39c0-.07.07-.13.13-.13Z"/>
          <path class="cls-4" d="m5.16,42.01l.02,2.43c0,.05-.05.11-.11.11h-2.3c-.05,0-.11-.05-.11-.11v-7.7c0-.05.05-.11.11-.11h2.28c.05,0,.11-.05.11-.11v-2.39c0-.05.05-.11.11-.11h0l2.41-.02c.05,0,.11.05.11.11h0l.04,2.41c0,.05-.05.11-.11.11h-2.43c-.05,0-.11.05-.11.11l-.02,2.43c0,.05.05.11.11.11h7.7c.05,0,.11.05.11.11h0l-.05,5.04c0,.05-.05.11-.11.11h-4.98c-.05,0-.11-.05-.11-.11v-2.41c0-.05-.05-.11-.11-.11l-2.43-.02c-.07,0-.13.05-.13.13h0Z"/>
          <path class="cls-4" d="m23.53,65.36l-.02-2.34c0-.05-.04-.09-.09-.09l-2.46-.04c-.07,0-.11-.04-.11-.11l.02-2.46c0-.05.02-.07.07-.07l5.04.04c.07,0,.14-.05.14-.14v-5.09c0-.05-.04-.09-.09-.09h-2.48c-.07,0-.09-.04-.09-.09l.07-2.41c0-.05-.04-.09-.09-.09l-2.48-.05c-.05,0-.09-.04-.09-.09v-2.25c0-.18.09-.27.27-.27h4.68c.22,0,.31.11.31.31l.02,2.25c0,.05.04.09.09.09h2.48c.05,0,.09-.04.09-.09h0l-.07-2.48c0-.05-.04-.09-.09-.09h-2.41c-.05,0-.09-.04-.09-.09v-2.3c0-.07-.04-.11-.11-.11h-7.54c-.05,0-.09-.04-.09-.09l-.05-2.48c0-.05-.04-.09-.09-.09l-2.46.02c-.05,0-.09-.04-.09-.09v-2.43c0-.05.04-.09.09-.09l2.48-.07c.05,0,.09-.04.09-.09v-2.37c0-.09-.04-.14-.14-.14h-5.04c-.05,0-.09-.04-.09-.09v-2.45c0-.07-.04-.11-.11-.11l-2.3.02c-.16,0-.23-.07-.23-.23v-2.25c0-.07.05-.13.13-.13l2.32-.07c.09,0,.18.07.18.18h0l.02,2.36c0,.07.04.13.13.13l5.04.07c.05,0,.09-.04.09-.09v-2.39c0-.13.07-.2.2-.2l4.89.02c.05,0,.11.05.11.11h0c-.11,1.62-.11,3.24-.02,4.86,0,.16-.11.29-.27.29h-.02l-2.34.02c-.05,0-.07.04-.07.09l.05,2.37c0,.09.07.14.16.14h4.97c.07,0,.13-.04.13-.13v-2.41c0-.05.04-.09.09-.09h5.06c.07,0,.11.04.11.11l-.02,5.02c0,.07.04.11.11.11l.85.02c.18,0,.27.09.27.27v10.07c0,.05-.04.09-.09.09h-1.01c-.07,0-.11.04-.11.11v2.46c0,.05-.04.09-.09.09h-2.43c-.07,0-.09.04-.09.09l.02,2.34c0,.13.11.22.22.22h3.51c.05,0,.09.04.09.09v3.74c0,.05.04.09.09.09l3.8.05c.05,0,.09.04.09.09l-.05,3.6c0,.07-.05.14-.14.14h-2.41s-.05-.02-.05-.05l-.02-2.45c0-.07-.04-.11-.11-.11h-4.93c-.07,0-.11.04-.11.11l.02,7.47c0,.2-.09.29-.29.31l-2.19.04c-.09,0-.16-.07-.18-.16h0v-2.37c0-.05-.04-.09-.09-.09l-2.45-.05c-.07,0-.11-.04-.11-.11l.02-2.37c0-.07-.04-.11-.11-.11l-2.46-.04c-.05,0-.09-.04-.09-.09v-2.37c0-.07.05-.14.14-.14h0l2.43.02c.11-.04.13-.05.13-.13Zm5.24-20.76s-.04-.07-.07-.07h-2.48s-.07.04-.07.07v2.52s.04.07.07.07h2.48s.07-.04.07-.07h0v-2.52Zm.02,15.78c0-.05-.05-.11-.11-.11h-2.43c-.05,0-.11.05-.11.11h0v2.46c0,.05.05.11.11.11h2.43c.05,0,.11-.05.11-.11v-2.46Z"/>
          <path class="cls-4" d="m31.59,33.98h.83c.11,0,.18.09.18.18v2.27c0,.11-.09.18-.18.18h-.83c-.11,0-.18-.09-.18-.18v-2.27c0-.11.07-.18.18-.18Z"/>
          <path class="cls-1" d="m41.07,48.09c-.29,4.55,3.69,8.08,8.1,7.5,3.42-.45,5.95-3.4,6.12-6.82,0-.14.13-.23.25-.23l5.52.07s.07.04.07.07h0c-.14,3.6-1.4,6.6-3.81,9.01-5.5,5.56-14.66,4.93-19.43-1.28-3.42-4.43-3.58-10.76-.27-15.36,2.45-3.42,5.92-5.25,10.42-5.52.07,0,.13.05.13.11h0l.02,5.67s-.04.07-.07.07c-3.76.14-6.8,2.93-7.03,6.71Z"/>
          <path class="cls-4" d="m64.13,39.27h1.12s.05.02.05.05v2.52s-.02.05-.05.05h-1.12s-.05-.02-.05-.05v-2.52s.04-.05.05-.05Z"/>
          <path class="cls-2" d="m48.3,41.38l6.84.02c.07,0,.14.05.14.14l-.02,6.87c0,.07-.05.14-.14.14l-6.84-.02c-.07,0-.14-.05-.14-.14l.04-6.87c0-.07.05-.14.13-.14Z"/>
          <path class="cls-4" d="m94,44.54h-2.41s-.05-.04-.05-.05h0v-2.48s.04-.05.05-.05h5s.05.04.05.05h0l.02,7.66s-.04.05-.05.05h-2.5s-.05-.04-.05-.05h0l.02-5.06c-.02-.05-.04-.07-.07-.07Z"/>
          <path class="cls-4" d="m64.28,44.53h.88c.09,0,.16.07.16.16l-.02,2.36c0,.09-.07.16-.16.16h-.88c-.09,0-.16-.07-.16-.16l.02-2.36c0-.09.07-.16.16-.16Z"/>
          <path class="cls-4" d="m13.22,47.19h5.02c.07,0,.11.05.11.13v2.28c0,.07-.05.11-.13.11h-5.02c-.07,0-.11-.05-.11-.13v-2.28c0-.05.05-.11.13-.11Z"/>
          <path class="cls-4" d="m64.26,49.67h.88c.09,0,.16.07.16.16v2.36c0,.09-.07.16-.16.16h-.88c-.09,0-.16-.07-.16-.16v-2.36c0-.09.07-.16.16-.16Z"/>
          <path class="cls-4" d="m70.63,49.72l2.5-.02s.05.02.05.05l.02,2.54s-.02.05-.05.05l-2.5.02s-.05-.02-.05-.05l-.02-2.54s.02-.05.05-.05Z"/>
          <path class="cls-4" d="m15.81,52.37h5s.07.04.07.07v2.46s-.04.07-.07.07h-5s-.07-.04-.07-.07v-2.46s.02-.07.07-.07Z"/>
          <path class="cls-4" d="m68,55.01h2.52s.05.02.05.05v2.5s-.02.05-.05.05h-2.52s-.05-.02-.05-.05v-2.5s.02-.05.05-.05Z"/>
          <path class="cls-4" d="m15.71,60.34v2.41c0,.05-.05.11-.11.11l-2.39.05c-.05,0-.11-.05-.11-.11h0v-5.07c0-.05.05-.11.11-.11h7.56c.05,0,.11.05.11.11v2.39c0,.05-.05.11-.11.11h-4.95c-.05,0-.11.05-.11.11Z"/>
          <path class="cls-4" d="m64.19,57.62l3.65-.02c.05,0,.09.04.09.09v2.46c0,.05-.04.09-.09.09l-3.65.02c-.05,0-.09-.04-.09-.09v-2.46s.04-.09.09-.09Z"/>
          <path class="cls-4" d="m91.57,60.23l2.41.05c.05,0,.07.02.07.07v2.48c0,.07-.04.09-.09.09h-2.28c-.07,0-.11-.04-.11-.13v-2.57Z"/>
          <path class="cls-4" d="m15.76,62.93h2.55s.05.02.05.05v2.43s-.02.05-.05.05h-2.55s-.05-.02-.05-.05v-2.43s.02-.05.05-.05Z"/>
          <path class="cls-4" d="m2.54,65.45H.13c-.07,0-.11-.05-.11-.11H.02v-2.28c0-.07.05-.11.11-.11h4.95c.07,0,.11.05.11.11h0v4.89c0,.07-.05.11-.11.11h-2.28c-.07,0-.11-.05-.11-.11h0l-.02-2.39c0-.05-.05-.11-.13-.11h0Z"/>
          <path class="cls-4" d="m47.08,68.18l.04,2.43c0,.05-.05.11-.11.11h0l-5.06-.02c-.05,0-.11-.05-.11-.11v-5.07c0-.05-.05-.11-.11-.11h-2.43c-.05,0-.11-.05-.11-.11v-.95c0-.05.05-.11.11-.11h2.43c.05,0,.11.05.11.11v.99c0,.05.05.11.11.11h2.45c.05,0,.11-.05.11-.11h0l-.07-.99c0-.05.04-.11.11-.11h0l2.45.02c.05,0,.11.05.11.11h0v.99c0,.05.05.11.11.11h2.25c.05,0,.11.05.11.11l.07,2.39c0,.05-.05.11-.11.11h-2.34c-.05,0-.11.04-.11.11h0Z"/>
          <path class="cls-4" d="m49.76,64.22h2.32c.09,0,.16.07.16.16v.85c0,.09-.07.16-.16.16h-2.32c-.09,0-.16-.07-.16-.16v-.85c0-.09.07-.16.16-.16Z"/>
          <path class="cls-4" d="m2.7,70.7H.09c-.05,0-.09-.04-.09-.09l.02-2.43c0-.09.04-.13.13-.13h2.3c.13,0,.22.09.22.22l.04,2.43Z"/>
          <path class="cls-4" d="m15.71,70.7v-2.54c0-.07.04-.11.11-.11l2.43-.04c.07,0,.11.04.11.11l.02,2.37c0,.07-.04.11-.11.11l-2.55.09Z"/>
          <path class="cls-4" d="m36.52,70.7l.05,2.52c0,.05-.04.09-.09.09h-2.48c-.05,0-.09-.04-.09-.09v-2.37c0-.09-.04-.13-.13-.13l-2.27-.05c-.09,0-.14-.05-.14-.14v-2.36c0-.07.04-.13.11-.13h2.3c.05,0,.11.05.11.11v2.28c0,.18.09.25.27.25l2.36.02Z"/>
          <path class="cls-4" d="m39.22,70.7h-2.7l.02-2.5c0-.07.04-.13.13-.13l2.39-.04c.07,0,.11.04.11.11l.05,2.55Z"/>
          <path class="cls-4" d="m2.7,70.7h2.36c.07,0,.11.04.11.11l-.02,2.41c0,.05-.04.09-.09.09h-2.39l.04-2.61Z"/>
          <path class="cls-4" d="m2.66,73.33v2.57c0,.05-.04.09-.09.09l-2.45.02c-.07,0-.13-.04-.13-.11v-2.45c0-.07.04-.09.09-.09h2.57v-.04Z"/>
          <path class="cls-4" d="m91.57,81.14l2.34-.02c.07,0,.13-.04.13-.13l.02-7.54c0-.05.05-.11.11-.11l2.41-.04c.05,0,.07.02.07.07l.05,7.65c0,.05-.04.09-.09.09h-2.46c-.05,0-.09.04-.09.09v2.41c0,.07-.04.11-.11.11h-2.28c-.07,0-.11-.04-.11-.11l.02-2.48Z"/>
          <path class="cls-4" d="m18.35,96.79s-.02.05-.05.05H.07s-.05-.02-.05-.05v-18.21s.02-.05.05-.05h18.22s.05.02.05.05v18.21Zm-2.63-15.58s-.04-.05-.05-.05H2.72s-.05.04-.05.05v12.97s.04.05.05.05h12.93s.05-.04.05-.05h0v-12.97h.02Z"/>
          <path class="cls-4" d="m78.4,78.51l2.54-.02s.05.02.05.05l.02,2.52s-.02.05-.05.05l-2.54.02s-.05-.02-.05-.05l-.02-2.52s.02-.05.05-.05Z"/>
          <path class="cls-4" d="m23.53,86.46l-2.52-.04c-.09,0-.14-.05-.14-.14l.02-5c0-.07.04-.09.09-.09l2.41-.04c.07,0,.13.05.13.11h0l.02,5.2Z"/>
          <path class="cls-4" d="m55.01,83.8h2.39c.07,0,.13.05.13.13v2.39c0,.07.05.13.13.13h0l2.39-.04c.07,0,.13-.05.13-.13h0l-.05-2.34c0-.07.05-.13.13-.13h2.41c.07,0,.13.05.13.13v5c0,.07-.05.13-.13.13h-5c-.07,0-.13-.05-.13-.13v-2.39c0-.07-.05-.13-.13-.13h-2.39c-.07,0-.13-.05-.13-.13v-2.37c0-.07-.05-.13-.13-.13l-2.36-.04c-.07,0-.13-.05-.13-.13v-2.36c0-.07.05-.13.13-.13h0l2.36-.02c.07,0,.13.05.13.13h0v2.39c0,.09.05.14.13.14Z"/>
          <path class="cls-4" d="m5.29,83.8h7.7c.05,0,.11.05.11.11v7.7c0,.05-.05.11-.11.11h-7.7c-.05,0-.11-.05-.11-.11v-7.7c0-.05.05-.11.11-.11Z"/>
          <path class="cls-4" d="m52.28,94.18v-5.06s-.04-.07-.05-.07h-2.54s-.07-.04-.07-.05l.02-2.54s.04-.07.05-.07h0l5.13.07s.07.04.07.05h0v7.65s.04.05.07.05h2.52s.07.04.07.05l.02,2.48s-.04.05-.07.05h-10.31s-.07-.04-.07-.05h0v-2.48s.04-.07.05-.07h5.04s.07.02.07-.02h0Z"/>
          <path class="cls-4" d="m41.92,91.71h2.46c.05,0,.09.04.09.09v2.36c0,.05-.04.09-.09.09h-2.46c-.05,0-.09-.04-.09-.09v-2.36c0-.05.04-.09.09-.09Z"/>
          <path class="cls-4" d="m65.27,94.27l.04-2.48c0-.05.04-.09.09-.09l2.39.02c.07,0,.13.05.13.13v2.28c0,.07-.04.09-.09.09l-2.55.05Z"/>
          <path class="cls-4" d="m60.25,91.71h2.41c.07,0,.13.05.13.13v2.27c0,.07-.05.13-.13.13h-2.41c-.07,0-.13-.05-.13-.13v-2.27c.02-.07.07-.13.13-.13Z"/>
          <path class="cls-4" d="m65.27,94.27l.04,2.46c0,.07-.04.09-.09.09h-2.28c-.09,0-.14-.05-.14-.14l.02-2.37c0-.05.04-.09.09-.09l2.37.05Z"/>
        </g>
      </g>
    </g>
  </g>
</svg>