<?xml version="1.0" encoding="UTF-8"?>
<svg id="Layer_2" data-name="Layer 2" xmlns="http://www.w3.org/2000/svg" viewBox="0 0 116.79 83.67">
  <defs>
    <style>
      .cls-1 {
        fill: #010101;
      }
    </style>
  </defs>
  <g id="Capa_1" data-name="Capa 1">
    <g id="cmponent_1">
      <g id="logo">
        <path class="cls-1" d="m25.95,72.6c-1.27-1.24-2.83-1.87-4.63-1.87-1.18,0-2.27.29-3.22.86-.95.57-1.7,1.36-2.23,2.33-.52.97-.79,2.04-.79,3.2s.27,2.23.79,3.2c.53.97,1.28,1.76,2.23,2.33.95.57,2.04.86,3.22.86,1.8,0,3.36-.63,4.63-1.87,1.27-1.24,1.91-2.76,1.91-4.52s-.64-3.28-1.91-4.52m-.63,8.41h0c-1.09,1.07-2.44,1.61-4,1.61s-2.81-.52-3.82-1.58c-1.01-1.05-1.52-2.37-1.52-3.91s.51-2.86,1.52-3.91c1.02-1.07,2.27-1.58,3.82-1.58s2.91.54,4,1.61c1.11,1.08,1.64,2.35,1.64,3.88s-.54,2.8-1.64,3.88m33.48,2.06c0,.26-.19.45-.46.45h-8.48c-.27,0-.46-.18-.46-.45s.19-.45.46-.45h8.48c.27,0,.46.18.46.45m-13.86-3.2c0,1.41-.58,2.42-1.73,3.03-.75.41-1.75.63-2.97.63h-4.24c-.25,0-.44-.19-.44-.45s.18-.45.44-.45h4.24c1.07,0,1.92-.17,2.54-.51.85-.45,1.26-1.18,1.26-2.24s-.4-1.8-1.23-2.24c-.62-.31-1.48-.48-2.57-.48h-4.24c-.25,0-.44-.19-.44-.45s.18-.45.44-.45h3.98c1.02,0,1.85-.16,2.48-.48.79-.4,1.17-1.03,1.17-1.92s-.37-1.45-1.14-1.82c-.6-.27-1.44-.41-2.5-.41h-3.98c-.25,0-.44-.19-.44-.45s.18-.45.44-.45h3.98c1.2,0,2.16.17,2.88.51,1.09.5,1.65,1.38,1.65,2.61s-.55,2.14-1.64,2.7c-.05.02-.09.05-.14.07.17.06.33.13.48.21h0c1.15.6,1.73,1.62,1.73,3.03m4.47-2.74c0-.27.19-.46.46-.46h7.63c.27,0,.46.19.46.46s-.19.46-.46.46h-7.63c-.27,0-.46-.19-.46-.46m-46.94-3.93c-1.06,1.06-1.57,2.34-1.57,3.93s.53,2.88,1.57,3.92c1.06,1.06,2.34,1.57,3.92,1.57s2.75-.47,3.78-1.45v-3.59h-5.48c-.27,0-.46-.19-.46-.46s.19-.46.46-.46h5.93c.27,0,.46.19.46.46v4.24c0,.12-.05.24-.13.32-1.21,1.21-2.75,1.83-4.57,1.83s-3.34-.62-4.56-1.84c-1.22-1.22-1.84-2.75-1.84-4.56s.62-3.34,1.84-4.56c1.22-1.22,2.75-1.84,4.56-1.84s3.35.61,4.57,1.83c.09.09.13.2.13.32,0,.27-.19.46-.46.46-.12,0-.24-.05-.33-.13-1.04-1.05-2.35-1.58-3.92-1.58s-2.88.53-3.92,1.57m114.32,3.93c0,1.96-.54,3.49-1.62,4.57-1.23,1.21-3.12,1.83-5.63,1.83h-1.69c-.27,0-.46-.18-.46-.45s.19-.45.46-.45h1.69c2.27,0,3.95-.53,4.98-1.58.9-.9,1.35-2.22,1.35-3.92s-.46-3.02-1.35-3.92c-1.04-1.05-2.71-1.58-4.98-1.58h-1.69c-.27,0-.46-.18-.46-.45s.19-.45.46-.45h1.69c2.51,0,4.41.61,5.63,1.82h0c1.07,1.07,1.62,2.61,1.62,4.57m-14.05-5.93v11.87c0,.2-.1.35-.27.42v.19l-.12-.16c-.17.03-.36-.05-.46-.2l-7.66-10.71v10.45c0,.27-.18.46-.45.46s-.45-.19-.45-.46v-11.87c0-.19.1-.34.25-.41v-.2l.12.16c.16-.03.35.04.46.19l7.66,10.71v-10.45c0-.27.19-.46.46-.46s.46.19.46.46m-15.3,1.41c-1.27-1.24-2.83-1.87-4.63-1.87-1.18,0-2.27.29-3.22.86-.95.57-1.7,1.36-2.23,2.33-.52.97-.79,2.04-.79,3.2s.27,2.23.79,3.2c.53.97,1.28,1.76,2.23,2.33.95.57,2.04.86,3.22.86,1.8,0,3.36-.63,4.63-1.87,1.27-1.24,1.91-2.76,1.91-4.52s-.64-3.28-1.91-4.52m-.63,8.41h0c-1.09,1.07-2.44,1.61-4,1.61s-2.81-.52-3.83-1.58c-1.01-1.05-1.52-2.37-1.52-3.91s.51-2.86,1.52-3.91c1.02-1.07,2.27-1.58,3.83-1.58s2.91.54,4,1.61c1.11,1.08,1.64,2.35,1.64,3.88s-.54,2.8-1.64,3.88m-12.92-9.82c0,.07-.02.15-.05.22l-.04.06-5.01,6.38v5.21c0,.27-.19.46-.45.46s-.45-.19-.45-.44v-5.23l-4.98-6.37c-.1-.1-.12-.21-.12-.29,0-.27.19-.46.46-.46.15,0,.28.07.36.2l4.73,6.01,4.73-6.03c.07-.11.2-.18.35-.18.27,0,.46.19.46.46m-15.08,0c0,.26-.19.45-.46.45h-8.48c-.27,0-.46-.18-.46-.45s.19-.45.46-.45h8.48c.27,0,.46.18.46.45"/>
        <path class="cls-1" d="m85.51,6.14l.32-1.21,1.32-4.94-5.02,1.35-1.1.29c-1.04-.45-2.19-.7-3.39-.7-1.01,0-1.96.18-2.86.49h0c-1.6.57-2.99,1.61-3.98,2.95-.5.67-.91,1.42-1.19,2.22h0c-.32.9-.49,1.86-.49,2.87,0,.54.05,1.06.15,1.57,0,0,0,.02,0,.03.3,1.62-.15,3.29-1.31,4.45l-.5.5-2.76,2.75-5.77,5.77c-1.18,1.18-2.86,1.63-4.5,1.33-.51-.1-1.04-.14-1.58-.14-1,0-1.97.17-2.86.49h0c-2.41.86-4.32,2.77-5.17,5.18h0c-.32.9-.49,1.86-.49,2.86,0,1.42.35,2.76.96,3.93.81,1.56,2.09,2.83,3.65,3.64,1.4.72,3.01,1.07,4.72.92,3.99-.36,7.24-3.56,7.68-7.54.1-.88.06-1.75-.1-2.56-.3-1.6.13-3.24,1.28-4.39l5.81-5.81c2.44,3.27,3.84,7.37,3.84,11.85,0,10.75-8.24,19.37-19.37,19.37-4.53,0-8.59-1.45-11.79-3.91-1.38-1.05-2.6-2.28-3.63-3.67-1.06-1.42-1.93-2.99-2.57-4.69-.71-1.89-1.14-3.92-1.25-6.04h0c-.02-.36-.03-.71-.03-1.06,0-10.84,8.25-19.47,19.28-19.47.42,0,.84.01,1.24.04l3.41-3.4c-1.49-.28-3.04-.43-4.64-.43-13.36,0-23.18,10.39-23.18,23.25,0,1.56.15,3.08.43,4.56.37,1.94.97,3.79,1.78,5.52.75,1.61,1.68,3.11,2.77,4.49,1.06,1.35,2.29,2.57,3.64,3.66,3.9,3.1,8.91,4.96,14.56,4.96,13.45,0,23.27-10.41,23.27-23.19,0-5.54-1.82-10.63-4.98-14.62l.52-.52c1.16-1.16,2.82-1.61,4.44-1.3,0,0,.02,0,.02,0,.51.1,1.03.15,1.57.15,1.93,0,3.71-.64,5.14-1.73,2.06-1.56,3.39-4.03,3.39-6.81,0-1.18-.24-2.3-.67-3.32h0Zm-7.86,8.44c-.45,0-.88-.06-1.3-.16-.1-.03-.19-.05-.28-.09-1.56-.5-2.79-1.73-3.29-3.29-.03-.09-.06-.17-.08-.26-.11-.41-.17-.85-.17-1.31,0-2.82,2.29-5.12,5.12-5.12.45,0,.89.06,1.31.17,1.77.47,3.17,1.87,3.64,3.65.11.41.16.85.16,1.3,0,2.82-2.29,5.11-5.11,5.11"/>
      </g>
    </g>
  </g>
</svg>