<?xml version="1.0" encoding="UTF-8"?>
<svg id="Layer_2" data-name="Layer 2" xmlns="http://www.w3.org/2000/svg" xmlns:xlink="http://www.w3.org/1999/xlink" viewBox="0 0 260.19 40.46">
  <defs>
    <style>
      .cls-1 {
        fill: url(#linear-gradient-2);
      }

      .cls-2, .cls-3, .cls-4 {
        fill: none;
      }

      .cls-3 {
        clip-path: url(#clippath);
      }

      .cls-4 {
        clip-path: url(#clippath-1);
      }

      .cls-5 {
        fill: url(#linear-gradient);
      }
    </style>
    <clipPath id="clippath">
      <path class="cls-2" d="m143.04,34.01c-.47,0-.8.32-.8.79s.33.79.8.79h14.85c.47,0,.8-.32.8-.79s-.33-.79-.8-.79h-14.85Zm0-10.42c-.47,0-.8.33-.8.8s.33.8.8.8h13.35c.47,0,.8-.33.8-.8s-.33-.8-.8-.8h-13.35Zm-84.07-7.17c-2.13,2.13-3.21,4.82-3.21,7.98s1.08,5.84,3.21,7.98c2.13,2.13,4.81,3.21,7.97,3.21s5.87-1.08,7.99-3.2c.15-.15.23-.35.23-.57v-7.42c0-.47-.33-.8-.8-.8h-10.39c-.47,0-.8.33-.8.8s.33.8.8.8h9.58v6.28c-1.8,1.7-3.97,2.54-6.62,2.54s-5.02-.9-6.87-2.75c-1.82-1.82-2.75-4.13-2.75-6.87s.9-5.02,2.75-6.87c1.82-1.82,4.13-2.75,6.87-2.75s5.04.93,6.85,2.76c.15.15.35.23.57.23.47,0,.8-.33.8-.8,0-.22-.08-.42-.23-.57-2.12-2.12-4.81-3.2-7.99-3.2s-5.84,1.08-7.97,3.21m27.41,14.82c-1.76-1.85-2.66-4.15-2.66-6.85s.89-5,2.66-6.85c1.78-1.86,3.97-2.77,6.69-2.77s5.1.95,7.01,2.82c1.94,1.89,2.88,4.12,2.88,6.8s-.94,4.91-2.87,6.8h0c-1.91,1.87-4.27,2.82-7.01,2.82s-4.91-.91-6.69-2.77m1.06-16.52c-1.67,1-2.98,2.38-3.9,4.08-.92,1.7-1.38,3.58-1.38,5.6s.47,3.9,1.38,5.6c.92,1.71,2.24,3.08,3.9,4.08s3.56,1.51,5.63,1.51c3.16,0,5.88-1.1,8.1-3.27,2.22-2.18,3.35-4.84,3.35-7.91s-1.13-5.74-3.35-7.91c-2.22-2.17-4.95-3.27-8.1-3.27-2.07,0-3.97.51-5.63,1.51m31.33-1.51c-.44,0-.77.33-.77.79s.32.79.77.79h6.96c1.86,0,3.34.24,4.38.71,1.35.64,2,1.68,2,3.18s-.67,2.65-2.05,3.35c-1.09.56-2.55.84-4.34.84h-6.96c-.44,0-.77.33-.77.79s.32.79.77.79h7.42c1.9,0,3.41.28,4.5.83,1.45.77,2.16,2.05,2.16,3.92s-.72,3.14-2.2,3.93c-1.09.59-2.58.9-4.45.9h-7.42c-.44,0-.77.33-.77.79s.32.79.77.79h7.42c2.13,0,3.88-.37,5.19-1.1,2.01-1.05,3.03-2.84,3.03-5.3s-1.02-4.24-3.03-5.3h0c-.26-.14-.54-.26-.84-.37.08-.04.16-.08.24-.12,1.9-.99,2.87-2.58,2.87-4.73s-.98-3.7-2.89-4.58c-1.25-.59-2.94-.89-5.04-.89h-6.96Zm24.27,0c-.47,0-.8.32-.8.79s.33.79.8.79h14.85c.47,0,.8-.32.8-.79s-.33-.79-.8-.79h-14.85Zm40.63.32l-8.27,10.55-8.28-10.52c-.15-.22-.38-.35-.64-.35-.47,0-.8.33-.8.8,0,.13.04.32.21.51l8.72,11.14v9.16c0,.45.33.77.79.77s.79-.32.79-.8v-9.12l8.77-11.16.06-.1c.06-.12.09-.25.09-.38,0-.47-.33-.8-.8-.8-.26,0-.49.13-.62.32m10.33,17.72c-1.76-1.85-2.66-4.15-2.66-6.85s.89-5,2.66-6.85c1.78-1.86,3.97-2.77,6.7-2.77s5.1.95,7.01,2.82c1.94,1.89,2.88,4.12,2.88,6.8s-.94,4.91-2.87,6.8h0c-1.91,1.87-4.27,2.82-7.01,2.82s-4.92-.91-6.7-2.77m1.06-16.52c-1.67,1-2.98,2.38-3.9,4.08-.92,1.7-1.38,3.58-1.38,5.6s.46,3.9,1.38,5.6c.92,1.71,2.24,3.08,3.9,4.08,1.67,1,3.57,1.51,5.64,1.51,3.16,0,5.88-1.1,8.1-3.27,2.22-2.18,3.35-4.84,3.35-7.91s-1.13-5.74-3.35-7.91c-2.22-2.17-4.95-3.27-8.1-3.27-2.07,0-3.97.51-5.64,1.51m49.48-1.51c-.47,0-.8.32-.8.79s.33.79.8.79h2.96c3.97,0,6.91.93,8.72,2.76,1.57,1.57,2.36,3.87,2.36,6.85s-.8,5.29-2.37,6.86c-1.81,1.83-4.74,2.76-8.72,2.76h-2.96c-.47,0-.8.32-.8.79s.33.79.8.79h2.96c4.4,0,7.71-1.08,9.86-3.2,1.88-1.88,2.83-4.57,2.83-7.99s-.95-6.11-2.83-7.99h0c-2.14-2.12-5.46-3.2-9.85-3.2h-2.96Zm-24.97.08c-.27.12-.43.39-.43.73v20.77c0,.47.32.8.79.8s.79-.33.79-.8v-18.3l13.4,18.75c.18.26.51.39.81.34l.2.28v-.34c.28-.12.47-.39.47-.74V14c0-.47-.33-.8-.8-.8s-.8.33-.8.8v18.3l-13.4-18.75c-.18-.27-.51-.39-.8-.34l-.21-.29v.35Z"/>
    </clipPath>
    <linearGradient id="linear-gradient" x1="-336.72" y1="1712.21" x2="-335.46" y2="1712.21" gradientTransform="translate(54411.28 276418.91) scale(161.43 -161.43)" gradientUnits="userSpaceOnUse">
      <stop offset="0" stop-color="#a9872e"/>
      <stop offset=".03" stop-color="#a9872e"/>
      <stop offset=".34" stop-color="#f4c22e"/>
      <stop offset=".68" stop-color="#faf397"/>
      <stop offset="1" stop-color="#be972e"/>
    </linearGradient>
    <clipPath id="clippath-1">
      <path class="cls-2" d="m32.89,10.15c-.07-.02-.13-.04-.19-.06-1.1-.35-1.97-1.22-2.32-2.31-.02-.06-.04-.12-.06-.19-.08-.29-.12-.6-.12-.92,0-1.99,1.61-3.6,3.6-3.6.32,0,.63.04.92.12,1.25.33,2.23,1.32,2.56,2.57.07.29.12.6.12.91,0,1.99-1.61,3.6-3.6,3.6-.32,0-.62-.04-.91-.12M36.96.95l-.77.21c-.73-.32-1.54-.49-2.39-.49-.71,0-1.38.12-2.01.35h0c-1.13.4-2.1,1.13-2.8,2.08-.35.47-.64,1-.84,1.57h0c-.22.63-.35,1.31-.35,2.02,0,.38.03.75.1,1.11,0,0,0,.01,0,.02.21,1.14-.1,2.31-.92,3.13l-.35.35-1.94,1.94-4.06,4.06c-.83.83-2.02,1.15-3.17.93-.36-.07-.73-.1-1.11-.1-.7,0-1.38.12-2.01.35h0c-1.7.61-3.04,1.95-3.64,3.65h0c-.22.63-.35,1.31-.35,2.01,0,1,.25,1.94.68,2.77.57,1.1,1.47,1.99,2.57,2.57.98.51,2.12.76,3.33.64,2.81-.26,5.1-2.51,5.4-5.31.07-.62.04-1.23-.07-1.81-.21-1.12.09-2.28.9-3.09l4.09-4.09c1.72,2.3,2.71,5.19,2.71,8.34,0,7.57-5.8,13.64-13.64,13.64-3.19,0-6.04-1.02-8.3-2.75-.97-.74-1.83-1.61-2.55-2.58-.75-1-1.36-2.11-1.81-3.3-.5-1.33-.81-2.76-.88-4.25h0c-.02-.25-.02-.5-.02-.75,0-7.63,5.81-13.7,13.57-13.7.3,0,.59,0,.88.03l2.4-2.39c-1.05-.2-2.14-.3-3.26-.3C6.91,7.77,0,15.09,0,24.14c0,1.1.11,2.17.3,3.21.26,1.37.68,2.67,1.25,3.89.53,1.13,1.18,2.19,1.95,3.16.75.95,1.61,1.81,2.56,2.58,2.75,2.18,6.27,3.49,10.25,3.49,9.47,0,16.38-7.33,16.38-16.32,0-3.9-1.28-7.48-3.51-10.29l.37-.36c.82-.82,1.99-1.13,3.12-.92,0,0,.01,0,.02,0,.36.07.73.1,1.11.1,1.36,0,2.61-.45,3.62-1.21,1.45-1.1,2.38-2.83,2.38-4.79,0-.83-.17-1.62-.47-2.34h0s.23-.85.23-.85l.93-3.47-3.53.95Z"/>
    </clipPath>
    <linearGradient id="linear-gradient-2" x1="-330.24" y1="1747.47" x2="-328.97" y2="1747.47" gradientTransform="translate(10559.55 55896.13) scale(31.98 -31.98)" xlink:href="#linear-gradient"/>
  </defs>
  <g id="hero_banner">
    <g id="logo">
      <g class="cls-3">
        <rect class="cls-5" x="55.76" y="12.93" width="204.42" height="22.92"/>
      </g>
      <g class="cls-4">
        <rect class="cls-1" x="0" width="40.49" height="40.46"/>
      </g>
    </g>
  </g>
</svg>