<?xml version="1.0" encoding="UTF-8"?>
<svg id="Layer_2" data-name="Layer 2" xmlns="http://www.w3.org/2000/svg" viewBox="0 0 96.19 96.35">
  <defs>
    <style>
      .cls-1 {
        fill: #415fab;
      }

      .cls-2 {
        fill: #5ec095;
      }

      .cls-3 {
        fill: none;
      }

      .cls-4 {
        fill: #010101;
      }
    </style>
  </defs>
  <g id="Capa_1" data-name="Capa 1">
    <g id="component_5">
      <g id="qr_bitcoin">
        <g id="QR">
          <g>
            <path class="cls-3" d="m20.44.05S20.42,0,20.39,0H.09s-.05.02-.05.05H.04v20.35s.02.05.05.05h20.32s.05-.02.05-.05V.05" vector-effect="non-scaling-stroke"/>
            <path class="cls-3" d="m35.01,17.53v-8.58c0-.05.04-.09.09-.09h2.71c.05,0,.07-.02.07-.07l-.02-8.7c0-.05-.04-.09-.09-.09h-5.66c-.05,0-.09.04-.09.09v2.79c0,.05.04.09.09.09h2.79c.05,0,.09.04.09.09v2.57c0,.16-.07.23-.23.23l-5.54-.02c-.05,0-.07-.02-.07-.07V.11c0-.05-.04-.09-.09-.09h-5.66c-.05,0-.09.04-.09.09v2.79c0,.05.04.09.09.09h2.79c.07,0,.09.04.09.09v5.7c0,.05-.04.09-.09.09h-2.79c-.05,0-.09.04-.09.09v2.66c0,.05.04.09.09.09h5.63c.07,0,.13.05.13.13h0l.02,14.38c0,.07.04.11.11.11h2.54c.14,0,.22-.07.22-.22l-.05-2.64c0-.07.04-.09.09-.09h8.72c.05,0,.07-.02.07-.07l-.02-2.68c0-.07-.04-.11-.11-.11l-2.71-.02c-.07,0-.13-.05-.13-.13h0v-2.62c0-.07.04-.13.11-.13h2.75c.07,0,.11-.04.11-.11v-2.59c0-.16-.09-.25-.25-.25h-2.59c-.07,0-.11.05-.11.13v2.71c0,.05-.02.09-.07.09-.95,0-1.89.02-2.82-.07" vector-effect="non-scaling-stroke"/>
            <path class="cls-3" d="m35.01,17.53l-2.91.04c-.05,0-.09.04-.09.09l.05,2.71c0,.05.04.09.09.09h2.77c.05,0,.09-.04.09-.09v-2.84" vector-effect="non-scaling-stroke"/>
            <path class="cls-3" d="m66.97,26.27l.04,2.84c0,.05.04.09.09.09l2.7-.02c.05,0,.09-.04.09-.09v-2.64c0-.11-.05-.16-.16-.16l-2.75-.02" vector-effect="non-scaling-stroke"/>
            <path class="cls-3" d="m66.97,26.27c.07-.95.07-1.87.02-2.77,0-.07.05-.14.13-.14h5.65c.07,0,.11.04.11.11v11.49c0,.05-.04.09-.09.09h-2.62c-.18,0-.25.09-.25.27l.02,2.57c0,.05.04.09.09.09h2.77c.07,0,.11.04.11.13l-.02,5.59c0,.05-.04.09-.09.09l-2.8.04s-.07-.04-.07-.07h0v-5.65c0-.05-.04-.09-.09-.09h-2.7c-.05,0-.09-.04-.09-.09v-2.8c0-.05-.04-.09-.09-.09h-2.34c-.16,0-.29-.13-.29-.27-.16-2.79-.22-5.56-.14-8.34,0-.07-.04-.11-.11-.11h-5.66c-.05,0-.09-.04-.09-.09h0l-.04-2.77c0-.05.04-.09.09-.09l2.73-.04c.05,0,.09-.04.09-.09v-5.57c0-.05-.04-.09-.09-.09h-2.7c-.05,0-.09.04-.09.09v2.7c0,.05-.04.09-.09.09h-2.75c-.09,0-.18-.07-.18-.16h0l.04-2.59c0-.07-.04-.13-.13-.13h-2.66c-.07,0-.13.04-.13.13l.02,2.66c0,.05-.04.09-.09.09h-2.61c-.11,0-.18.07-.18.18v8.43c0,.05.04.09.09.09l2.7.07c.05,0,.09.04.09.09v2.52c0,.07-.04.11-.11.11l-2.66.04c-.07,0-.11-.04-.11-.13v-2.36c0-.18-.14-.34-.32-.34h0l-2.62.05" vector-effect="non-scaling-stroke"/>
            <path class="cls-3" d="m46.62,29.22v-2.82c0-.07-.04-.11-.11-.11l-2.77-.04" vector-effect="non-scaling-stroke"/>
            <path class="cls-3" d="m43.74,26.27v-2.84c0-.05.04-.09.09-.09h2.68c.07,0,.09-.04.09-.09v-2.7c0-.05-.04-.09-.09-.09h-2.79" vector-effect="non-scaling-stroke"/>
            <path class="cls-3" d="m43.74,20.46v-2.79c0-.05-.04-.09-.09-.09h-2.61c-.09,0-.14.05-.14.14l-.02,2.62c0,.07.04.11.11.11h2.75" vector-effect="non-scaling-stroke"/>
            <path class="cls-3" d="m43.74,20.46v2.79c0,.05-.04.09-.09.09h-2.62c-.05,0-.11.05-.11.11l-.07,2.68c0,.11.05.18.18.18l2.71-.04" vector-effect="non-scaling-stroke"/>
            <path class="cls-3" d="m43.74,26.27v2.84c0,.07.04.09.09.09l2.79.04" vector-effect="non-scaling-stroke"/>
            <path class="cls-3" d="m46.62,29.22v2.66c0,.05-.04.09-.09.09h-2.66c-.09,0-.13.04-.11.13l.02.11c.02.07.05.11.13.11.68-.02,1.35-.02,2.03,0,1.85.07,3.54.04,5.32,0,1.2-.02,3,.02,4.53-.14.81-.09,1.56-.11,2.37-.11.09,0,.16-.07.16-.16h0l-.07-2.59c0-.05.04-.09.09-.09h2.75c.05,0,.09.04.09.09v2.97c0,.05.04.09.09.09l2.39.05c.18,0,.27.09.27.27-.02.76.02,1.47.11,2.14.14.97.11,1.78.11,2.7,0,.05-.02.11-.05.16-.13.18-.18.32-.18.41v14.26c0,.07.04.13.13.13h.05c.07,0,.14-.05.14-.13h0l.02-11.34c0-.07.04-.09.09-.11l2.5-.05c.09,0,.18.07.18.18h0v5.5c0,.07.04.11.11.11l2.66.02c.07,0,.09.04.09.11l.04,2.75c0,.05-.04.11-.11.11h-2.71c-.05,0-.09.04-.09.09v2.7c0,.05.04.09.09.09h5.66c.07,0,.09-.04.09-.09v-5.61c0-.07.05-.14.14-.14h2.64c.07,0,.09-.04.09-.09v-2.68c0-.05.04-.09.09-.09l5.66-.05c.05,0,.09-.04.09-.09v-2.64c0-.05-.04-.09-.09-.09h-5.66c-.05,0-.09-.04-.09-.09l-.02-2.79c0-.05.04-.09.09-.09l2.7-.02c.07,0,.11-.04.11-.11v-2.71c0-.05.04-.09.09-.09h2.79c.05,0,.09-.04.09-.09l-.04-2.73c0-.07-.04-.11-.11-.11l-2.82-.07v-2.7c0-.05-.04-.09-.09-.09h-2.71s-.07-.02-.07-.07l-.04-5.74c0-.07-.04-.11-.11-.11l-2.52.02c-.16,0-.23-.07-.23-.23v-11.27c0-.07-.07-.14-.14-.14h0l-2.64.04c-.11,0-.18-.05-.18-.18v-2.61c0-.05-.04-.09-.09-.09h-2.59c-.11,0-.2-.09-.2-.2V3.25c0-.13-.11-.23-.25-.23l-5.45-.04c-.09,0-.14-.05-.14-.14V.2c0-.13-.05-.18-.18-.18h-5.5c-.09,0-.14.04-.14.14v2.73c0,.05-.04.09-.09.09h-5.57c-.05,0-.09-.04-.09-.09V.11c0-.05-.04-.09-.09-.09h-2.7c-.13,0-.18.07-.18.18l.07,2.68c0,.05-.04.09-.09.09h-2.71c-.09,0-.13.04-.13.13v2.7c0,.05-.04.09-.09.09h-2.68c-.07,0-.11.04-.11.11v8.5c0,.07.04.11.11.11h2.7s.07-.04.07-.07v-5.59c0-.05.04-.09.09-.09l2.7-.02c.07,0,.11.04.11.11l-.02,2.66c0,.05.04.09.09.09h2.8c.05,0,.09-.04.09-.09l-.04-5.56c0-.07.05-.14.14-.14h2.64c.07,0,.11.04.11.11v5.61c0,.07.04.11.09.11h2.7c.05,0,.09.04.09.09l-.02,2.68c0,.07.05.14.13.14h2.73c.07,0,.11-.04.11-.11v-5.56c0-.05-.04-.09-.09-.09l-2.8.02c-.05,0-.09-.04-.09-.09h0l.02-2.79c0-.05.04-.09.09-.09h5.66c.05,0,.09.04.09.09v2.77c0,.07.04.11.11.11h5.61c.05,0,.11.05.11.11l.02,2.64c0,.09-.04.13-.13.13l-2.61-.04c-.05,0-.07.02-.07.07l-.07,2.71c0,.05.04.09.09.09h5.57c.05,0,.09.04.09.09v5.66c0,.05-.04.09-.09.09h-2.7c-.05,0-.09-.04-.09-.09v-2.66c0-.09-.04-.14-.14-.14h-2.59c-.07,0-.13.04-.11.11l.02,8.52c0,.05.02.07.07.07l2.7-.04" vector-effect="non-scaling-stroke"/>
            <path class="cls-3" d="m78.62,32.02l-2.8.05c-.05,0-.07.02-.07.07l-.02,2.82c0,.07.04.11.11.11l2.7-.04c.07,0,.11-.04.11-.11l-.02-2.91" vector-effect="non-scaling-stroke"/>
            <path class="cls-3" d="m69.78,2.97c.07,0,.13.05.13.13h0v5.61c0,.07.05.13.13.13l2.71.04c.07,0,.13-.05.13-.13h0V.13C72.87.05,72.82,0,72.74,0h-5.59c-.07,0-.13.05-.13.13h0v2.71c0,.07.05.13.13.13h2.62" vector-effect="non-scaling-stroke"/>
            <path class="cls-3" d="m96.13.05S96.12,0,96.08,0h-20.3s-.05.02-.05.05h0v20.35s.02.05.05.05h20.32s.05-.02.05-.05h0V.05" vector-effect="non-scaling-stroke"/>
            <path class="cls-3" d="m49.57,17.66s.04-.07.07-.07h2.73s.07-.04.07-.07v-2.82s-.04-.07-.07-.07h-5.68s-.07.04-.07.07l-.04,5.7s.04.07.07.07h2.84s.07-.04.07-.07v-2.73" vector-effect="non-scaling-stroke"/>
            <path class="cls-3" d="m26.29,17.66s-.04-.07-.07-.07h-2.8s-.07.04-.07.07v2.71s.04.07.07.07h2.8s.07-.04.07-.07v-2.71" vector-effect="non-scaling-stroke"/>
            <path class="cls-3" d="m23.27,32.06s.07.04.07.07l-.02,2.8s.04.07.07.07h2.8s.07.04.07.07h0v2.77s-.04.07-.07.07h-2.8s-.07.04-.07.07h0v2.8s.04.07.07.07h2.8s.07-.04.07-.07h0v-2.8s.04-.07.07-.07h2.73s.07-.04.07-.07h0l-.04-2.75s-.04-.07-.07-.07h0l-2.71.02s-.07-.04-.07-.07h0v-5.66s-.04-.07-.07-.07h-2.8s-.07-.04-.07-.07h0v-2.77s.04-.07.07-.07h0l2.8.02s.07-.04.07-.07h0v-2.82s-.04-.07-.07-.07h-2.8s-.07.04-.07.07h0v2.8s-.04.07-.07.07h0l-2.71-.02s-.07-.04-.07-.07l-.04-2.82s-.04-.07-.07-.07l-8.54.02s-.07.04-.07.07h0v5.72s-.04.07-.07.07h-2.68s-.07.04-.07.07h0v2.66s.04.07.07.07h0l2.68.04s.07.04.07.07h0v2.8s.04.07.07.07h5.68s.07.04.07.07h0v2.77s.04.07.07.07h2.71s.07-.04.07-.07h0v-2.73s-.04-.07-.07-.07h-2.71s-.07-.04-.07-.07h0v-2.8s.04-.07.07-.07h5.65" vector-effect="non-scaling-stroke"/>
            <path class="cls-3" d="m5.84,35.02s.07.04.07.07h0l-.04,2.75s.04.07.07.07h2.82s.07-.04.07-.07l-.02-5.72s-.04-.07-.07-.07h-2.8s-.07-.04-.07-.07h0v-2.68s.04-.07.07-.07l2.8-.04s.07-.04.07-.07v-5.68s-.04-.07-.07-.07h-2.79s-.07.04-.07.07h0v2.82s-.04.07-.07.07h-2.73s-.07.04-.07.07h0l.02,8.56s.04.07.07.07h2.73" vector-effect="non-scaling-stroke"/>
            <path class="cls-3" d="m84.36,32.07c.05,0,.11.05.09.11v5.68c0,.05.05.11.11.11h0l2.62-.02c.05,0,.11-.05.11-.11v-14.38c0-.05-.05-.11-.11-.11h-2.62c-.05,0-.11.05-.11.11v2.77c0,.05-.05.11-.11.11h-2.68c-.05,0-.11.05-.11.11v5.52c0,.05.04.11.09.11h2.71" vector-effect="non-scaling-stroke"/>
            <path class="cls-3" d="m96.13,23.43s-.04-.09-.07-.09h-2.8s-.09.04-.09.07v2.8s.04.09.07.09h2.8s.09-.04.09-.07v-2.8" vector-effect="non-scaling-stroke"/>
            <path class="cls-3" d="m37.74,31.98l-2.62-.07c-.07,0-.11-.04-.11-.11v-2.48c0-.05-.04-.09-.09-.09h-2.79c-.05,0-.09.04-.09.09v2.66c0,.07.04.13.13.11.83-.05,1.65-.04,2.48.04,2.03.2,4.03.29,6.06.25.09,0,.14-.07.14-.16v-2.89c0-.05-.04-.09-.09-.09h-2.79c-.05,0-.09.04-.09.09v2.54c0,.07-.04.13-.14.13" vector-effect="non-scaling-stroke"/>
            <path class="cls-3" d="m96.13,29.32c0-.05-.05-.11-.11-.11h-2.77c-.05,0-.11.05-.11.11h0v8.52c0,.05.05.11.11.11h2.77c.05,0,.11-.05.11-.11h0v-8.52" vector-effect="non-scaling-stroke"/>
            <path class="cls-3" d="m5.88,67.08l-2.64.02c-.13,0-.23-.11-.23-.23h0v-2.52c0-.05-.04-.09-.09-.09H.14c-.07,0-.09.04-.09.09v2.64c0,.05.04.09.09.09l2.77.02c.09,0,.14.05.14.14v2.66c0,.07.04.11.11.11h2.62c.07,0,.13-.04.13-.13l-.04-2.8" vector-effect="non-scaling-stroke"/>
            <path class="cls-3" d="m5.88,67.08h2.88c.09,0,.13.04.13.13v2.66c0,.07.04.13.13.13h5.59" vector-effect="non-scaling-stroke"/>
            <path class="cls-3" d="m14.62,69.99v2.88c0,.05.04.09.09.09h5.61c.07,0,.13-.04.13-.13l.04-2.73c0-.07-.04-.11-.11-.11h-5.75" vector-effect="non-scaling-stroke"/>
            <path class="cls-3" d="m14.62,69.99l.02-2.82c0-.07.04-.11.13-.11l5.63.05c.05,0,.09.04.09.09l.02,2.7c0,.07.04.11.11.11h2.66c.05,0,.09.04.09.09v5.65c0,.05.04.09.09.09h2.79c.05,0,.09.04.09.09v2.64c0,.07-.05.14-.14.14h-2.73c-.05,0-.09.04-.09.09v5.66c0,.05.04.09.09.09l2.68.02c.16,0,.23.09.23.25l-.05,2.52c0,.07.04.09.09.09h2.64c.07,0,.11.04.11.09l.04,2.79c0,.05.04.09.09.09l2.66.05c.05,0,.09.04.09.09l.04,2.68c0,.07-.04.09-.09.09h-2.7c-.05,0-.09-.04-.09-.09v-2.61c0-.13-.11-.23-.23-.23h-2.41c-.13,0-.23-.11-.23-.23v-2.52c0-.13-.11-.22-.22-.22h-2.66c-.05,0-.09.04-.09.09v2.8c0,.05.04.09.09.09h2.8s.07.04.07.07v5.68c0,.05.04.09.09.09h20.14c.05,0,.09-.04.09-.09v-2.7c0-.07.04-.11.11-.11l2.86-.02" vector-effect="non-scaling-stroke"/>
            <path class="cls-3" d="m49.57,93.33v2.84c0,.05.04.09.09.09h0l5.57.02c.07,0,.11-.04.11-.11l-.05-2.66c0-.09.07-.18.16-.18h2.71c.07,0,.11-.04.11-.11v-5.65c0-.09-.04-.14-.14-.14h-2.73c-.05,0-.09.04-.09.09v2.79c0,.05-.02.07-.07.07l-2.8.02" vector-effect="non-scaling-stroke"/>
            <path class="cls-3" d="m52.45,90.4v-2.91c0-.05-.02-.07-.07-.07l-2.7.02c-.05,0-.09-.04-.09-.09v-2.66c0-.05.04-.09.09-.09l5.57-.02c.05,0,.07-.02.07-.07l-.04-5.79" vector-effect="non-scaling-stroke"/>
            <path class="cls-3" d="m55.29,78.71l3.02-.04v2.89c0,.09.04.13.13.13h5.57c.07,0,.13.05.13.13l.04,2.68c0,.07.04.09.09.09h2.59c.09,0,.13-.04.13-.13l.04-2.64c0-.07-.04-.13-.13-.13h-2.61c-.09,0-.16-.07-.16-.16v-2.7c0-.07.04-.11.11-.11h5.57s.07.04.07.07v8.56c0,.05-.04.09-.09.09h-2.7c-.05,0-.09.04-.09.09h0v2.77c0,.05.04.09.09.09h14.29c.13,0,.18-.05.18-.18l-.07-5.52c0-.05.04-.09.09-.09h2.73c.05,0,.09-.04.09-.09v-2.73c0-.05.04-.09.09-.09h2.7c.07,0,.09.04.09.09v2.68c0,.05.04.09.09.09l2.75.02c.09,0,.13.04.13.13l-.02,2.66s.04.07.07.07h2.7c.07,0,.09.04.09.09l.05,2.79c0,.07-.04.13-.13.13h-2.68c-.05,0-.09.04-.09.09v2.7c0,.05.04.09.09.09h2.7c.07,0,.09.04.09.09v2.75c0,.07.04.11.09.11l2.71.04c.07,0,.14-.07.14-.14h0v-8.59c0-.09-.04-.14-.14-.14h-2.73c-.05,0-.09-.04-.09-.09l-.04-2.68c0-.05.04-.09.09-.09l2.8-.04c.07,0,.11-.04.11-.11v-2.62c0-.09-.04-.14-.14-.14h-2.73c-.05,0-.09-.04-.09-.09l-.05-2.8c0-.05.04-.09.09-.09h2.84s.07-.04.07-.07h0v-8.59c0-.05-.02-.07-.07-.07l-2.8.02c-.07,0-.11-.04-.11-.11l-.02-2.66c0-.11.05-.16.16-.16h2.73c.05,0,.09-.04.09-.09v-8.54c0-.05-.04-.09-.09-.09h-2.79c-.05,0-.09-.04-.09-.09v-2.79c0-.05.04-.09.09-.09h2.79c.05,0,.09-.04.09-.09v-11.4c0-.07-.04-.11-.11-.11l-2.8-.02s-.05.02-.05.05v8.61s-.02.07-.05.07l-5.7.05c-.05,0-.09.04-.09.09v2.64c0,.05.04.09.09.09h2.79c.05,0,.09.04.09.09v2.79c0,.05-.04.09-.09.09h-2.62c-.11,0-.18-.09-.18-.18h0v-2.66c0-.05-.05-.11-.11-.11h-2.61c-.09,0-.13.04-.13.13v2.73c0,.05.04.09.09.09h2.7c.07,0,.09.04.09.09l-.04,2.66c0,.09.04.14.13.14l5.65.04c.05,0,.09.04.09.09v2.79c0,.05-.04.09-.09.09h-2.7c-.05,0-.09.04-.09.09v11.27c0,.14-.07.23-.23.23h-5.54c-.05,0-.09-.04-.09-.09v-2.7c0-.07.04-.09.09-.09l2.64.02c.07,0,.11-.04.11-.11l-.02-8.54s-.02-.07-.07-.07h-2.68c-.05,0-.09-.04-.09-.09v-2.73c0-.09-.04-.14-.14-.14h-5.63c-.07,0-.09-.04-.09-.09l.02-11.31c0-.16-.09-.25-.25-.25h-2.54c-.07,0-.11.04-.11.11v2.68c0,.05-.04.09-.09.09l-2.64.05c-.07,0-.11.04-.11.11l-.04,2.55c0,.09.04.14.14.14h2.66c.05,0,.09.04.09.09v11.51c0,.07.04.09.09.09h2.68c.07,0,.09-.04.09-.11v-2.66c0-.05.04-.09.09-.09h5.63c.07,0,.11.04.11.11v5.56c0,.05-.04.09-.09.09h-8.54c-.05,0-.09-.04-.09-.09v-2.7c0-.07-.04-.11-.11-.11l-2.73-.04s-.05-.02-.05-.05l.04-5.65s-.04-.07-.07-.07h-5.68c-.05,0-.09-.04-.09-.09v-5.72c0-.05-.04-.09-.09-.09h-2.93c-.07,0-.09.04-.09.09l.05,8.27c0,.07-.05.13-.13.13h0c-1.89-.02-3.79.02-5.72.13-.86.05-1.85,0-2.91.13-1.47.18-3.22-.11-4.28-.14-4.51-.16-9.1-.2-13.59.23-.68.07-1.38.07-2.09,0-.09,0-.13.04-.13.11v2.66c0,.07.04.09.09.09l2.71-.02c.07,0,.11-.04.11-.11l-.04-2.37c0-.14.07-.22.22-.22l2.7-.09c.05,0,.09.02.09.09v2.61c0,.05.04.09.09.09h8.56c.05,0,.07-.02.07-.07l-.02-2.59c0-.05.04-.11.11-.11h0l2.68.04c.07,0,.11.04.11.11l.04,2.54c0,.05.04.09.09.09h5.57c.07,0,.14.05.14.14h0v2.64c0,.07-.05.14-.14.14h-2.73c-.05,0-.09.04-.09.09v2.68c0,.09.07.18.18.18l2.45.04c.18,0,.34-.14.34-.34h0v-2.52c0-.09.04-.13.13-.13h2.66c.05,0,.09-.04.09-.09v-2.7c0-.07.04-.11.09-.11l2.77.02c.05,0,.07.04.07.07l.05,5.56c0,.11-.09.2-.2.2h-5.56c-.07,0-.11.04-.11.11l-.02,2.5c0,.14-.13.27-.27.27h-2.46c-.16,0-.23.07-.25.23l-.07,2.75" vector-effect="non-scaling-stroke"/>
            <path class="cls-3" d="m55.29,78.71l-2.71.02c-.07,0-.11-.04-.11-.11l.02-2.68c0-.07.04-.11.11-.11h2.61c.05,0,.11-.05.11-.11h0l-.02-2.66c0-.07-.04-.11-.11-.11l-5.5.02c-.05,0-.09-.04-.09-.09l-.02-2.77c0-.07-.04-.11-.11-.11h-2.77c-.05,0-.09.04-.09.09v5.65c0,.05.04.09.09.09h2.79c.05,0,.09.04.09.09v2.7c0,.05-.04.09-.09.09h-2.79c-.07,0-.09-.04-.09-.09l.02-2.7c0-.05-.04-.09-.09-.09h-5.52c-.07,0-.14.07-.14.14v2.64c0,.05-.04.09-.09.09h-2.77c-.07,0-.11.04-.11.11l.02,5.63c0,.05-.04.09-.09.09l-2.68.07c-.07,0-.11-.05-.11-.11h0v-5.7c0-.07-.04-.11-.11-.11l-5.74.02v-2.79c0-.05.04-.09.09-.09h11.51c.05,0,.09-.04.09-.09v-2.7c0-.05-.04-.09-.09-.09h-8.63c-.05,0-.09-.04-.09-.09l-.02-11.49c0-.07-.04-.11-.11-.11h-2.48c-.14,0-.27-.13-.27-.27v-2.55c0-.05-.04-.09-.09-.09h-2.54c-.14,0-.25-.11-.25-.25h0l.02-2.39c0-.22-.11-.32-.32-.32h-2.57c-.05,0-.09-.04-.09-.09v-2.7c0-.05.04-.09.09-.09h2.79c.05,0,.09-.04.09-.09v-2.68c0-.07-.04-.11-.11-.11h-2.77c-.05,0-.09-.04-.09-.09v-2.79c0-.05-.04-.09-.09-.09h-5.56c-.05,0-.09.04-.09.09l-.05,2.75c0,.07.04.13.11.13l2.68.02c.07,0,.11.04.11.11v2.68c0,.05-.04.09-.09.09h-5.66c-.05,0-.09-.04-.09-.09v-2.73c0-.05-.02-.07-.07-.07l-2.7.02c-.05,0-.11-.05-.11-.11h0v-2.77c0-.05-.04-.09-.09-.09h-2.64c-.05,0-.09.04-.09.09l-.04,2.75c0,.07-.04.13-.13.13h-2.68c-.09,0-.13-.04-.14-.13l-.05-2.7c0-.11.05-.14.14-.14l2.57.04c.14,0,.27-.11.27-.25h0v-2.55c0-.05-.04-.09-.09-.09h-2.7c-.09,0-.13-.04-.13-.13l-.04-2.64c0-.07-.04-.09-.09-.09h-2.7c-.05,0-.09-.04-.09-.09v-5.66c0-.07-.05-.13-.13-.13h0l-2.75.04c-.05,0-.07.02-.07.07v11.45c0,.05.04.09.09.09h2.79c.07,0,.09.04.09.09v2.79c0,.05-.04.09-.09.09H.13c-.05,0-.09.04-.09.09v5.57c0,.05.04.09.09.09h8.63c.07,0,.14-.05.14-.14v-2.66c0-.07.04-.09.09-.09l2.61.07c.09,0,.13.05.13.13v2.61c0,.05-.04.09-.09.09h-2.66c-.05,0-.09.04-.09.09l.02,2.68c0,.11.09.2.2.2h5.41c.05,0,.09.04.09.09l.02,2.71c0,.05-.02.07-.07.07l-2.59.02c-.14,0-.22.07-.22.22v2.68c0,.07-.04.09-.09.09l-5.63-.07c-.05,0-.09.04-.09.09l-.04,2.75" vector-effect="non-scaling-stroke"/>
            <path class="cls-3" d="m29.18,78.71l-2.79.02c-.07,0-.11.04-.11.11l.02,2.77c0,.05.04.09.09.09h2.7c.05,0,.09-.04.09-.09v-2.89" vector-effect="non-scaling-stroke"/>
            <path class="cls-3" d="m52.45,90.4h-2.75c-.09,0-.13.04-.13.13v2.79" vector-effect="non-scaling-stroke"/>
            <path class="cls-3" d="m58.31,78.66l5.74.04c.07,0,.11-.05.11-.11h0v-2.61c0-.09-.04-.14-.14-.14h-5.57c-.09,0-.13.04-.13.13v2.7" vector-effect="non-scaling-stroke"/>
            <path class="cls-3" d="m49.57,93.33h2.77c.07,0,.11-.04.11-.11v-2.82" vector-effect="non-scaling-stroke"/>
            <path class="cls-3" d="m29.18,43.78h-2.79c-.05,0-.09.04-.09.09v2.7c0,.05.04.09.09.09h2.7c.07,0,.11-.04.11-.09l-.02-2.79" vector-effect="non-scaling-stroke"/>
            <path class="cls-3" d="m29.18,43.78l2.66-.04c.11,0,.2-.09.2-.2.04-1.83.29-3.72.27-5.47-.02-.97-.04-1.94-.05-2.91,0-.13-.11-.22-.22-.14-.05.04-.09.11-.09.18l.02,2.45c0,.14-.11.25-.25.25l-2.32.04c-.11,0-.18.09-.18.18l-.04,5.66" vector-effect="non-scaling-stroke"/>
            <path class="cls-3" d="m41.64,51.55c-2.61-4.85.97-10.23,6.18-10.45.05,0,.09-.04.09-.09v-5.61c0-.09-.07-.16-.16-.16h-.02c-4.91.32-8.56,2.46-10.95,6.4-3.04,5.02-2.21,11.78,2.01,15.84,8.27,7.93,21.66,2.43,22.04-9.08,0-.07-.04-.11-.11-.11l-5.56-.05c-.09,0-.13.04-.14.13-.09.59-.14,1.28-.31,1.8-1.82,6.15-10.01,7.12-13.09,1.38" vector-effect="non-scaling-stroke"/>
            <path class="cls-3" d="m93.19,38.08c0-.07-.05-.14-.13-.14h0l-2.61-.02c-.07,0-.14.05-.14.13h0l-.02,2.7c0,.07.05.14.13.14h0l2.61.02c.07,0,.14-.05.14-.13h0l.02-2.7" vector-effect="non-scaling-stroke"/>
            <path class="cls-3" d="m11.72,40.97s-.04-.07-.07-.07h-2.7s-.07.04-.07.07h0v2.7s.04.07.07.07h2.7s.07-.04.07-.07h0v-2.7" vector-effect="non-scaling-stroke"/>
            <path class="cls-3" d="m17.57,43.83c0-.05.04-.09.09-.09h2.7c.05,0,.09-.04.09-.09v-2.66c0-.05-.04-.09-.09-.09h-5.65c-.05,0-.09.04-.09.09v5.57c0,.05.04.09.09.09h2.79c.05,0,.09-.04.09-.09l-.02-2.73" vector-effect="non-scaling-stroke"/>
            <path class="cls-3" d="m55.02,41.23c0-.07-.05-.11-.13-.11h0l-6.89.02c-.07,0-.11.05-.11.13h0l.02,6.89c0,.07.05.11.13.11h0l6.89-.02c.07,0,.11-.05.11-.13h0l-.02-6.89" vector-effect="non-scaling-stroke"/>
            <path class="cls-3" d="m90.31,43.85s-.02-.05-.05-.05h-2.86s-.05.02-.05.05h0v2.77s.02.05.05.05h2.86s.05-.02.05-.05v-2.77" vector-effect="non-scaling-stroke"/>
            <path class="cls-3" d="m81.48,49.62c.05,0,.11.05.11.11l-.02,5.56c0,.05.05.11.11.11h2.68c.05,0,.11-.05.11-.11h0v-8.5c0-.05-.05-.11-.11-.11h-5.63c-.05,0-.11.05-.11.11v2.73c0,.05.05.11.11.11h2.75" vector-effect="non-scaling-stroke"/>
            <path class="cls-3" d="m31.97,52.43c0,.05-.04.09-.09.09h0l-5.47.04c-.07,0-.14.05-.14.14h0l.07,2.55c0,.09.04.13.13.13h5.27c.13,0,.22.09.22.22h0c0,.29-.09,2.75.16,2.8.07.02.14-.04.16-.11v-.04c-.05-1.71.09-3.61.07-5.11-.02-1.15-.05-2.3-.11-3.45,0-.07-.04-.11-.09-.13-.09-.02-.14,0-.14.09-.04.93-.05,1.85-.04,2.77" vector-effect="non-scaling-stroke"/>
            <path class="cls-3" d="m72.87,55.45s-.02-.05-.05-.05h0l-2.86-.02s-.05.02-.05.05l-.02,2.86s.02.05.05.05h0l2.86.02s.05-.02.05-.05l.02-2.86" vector-effect="non-scaling-stroke"/>
            <path class="cls-3" d="m8.86,58.4s-.02-.05-.05-.05l-8.72.02s-.05.02-.05.05H.04v2.79s.02.05.05.05H.09l8.72-.02s.05-.02.05-.05h0v-2.79" vector-effect="non-scaling-stroke"/>
            <path class="cls-3" d="m43.71,70.08c0-.05-.05-.11-.11-.11l-2.64.04c-.05,0-.11.05-.11.11h0l.04,2.75c0,.05.05.11.11.11l2.64-.04c.05,0,.11-.05.11-.11h0l-.04-2.75" vector-effect="non-scaling-stroke"/>
            <path class="cls-3" d="m3,70.05s-.02-.05-.05-.05H.11s-.05.02-.05.05v2.86s.02.05.05.05h2.86s.05-.02.05-.05v-2.86" vector-effect="non-scaling-stroke"/>
            <path class="cls-3" d="m8.86,70.1c0-.05-.05-.11-.11-.11h-2.75c-.05,0-.11.05-.11.11v2.75c0,.05.05.11.11.11h2.75c.05,0,.11-.05.11-.11h0v-2.75" vector-effect="non-scaling-stroke"/>
            <path class="cls-3" d="m20.44,75.96c0-.07-.05-.13-.13-.13H.18c-.07,0-.13.05-.13.13v20.14c0,.07.05.13.13.13h20.14c.07,0,.13-.05.13-.13v-20.14" vector-effect="non-scaling-stroke"/>
            <path class="cls-3" d="m64.13,87.49s-.02-.05-.05-.05h-2.88s-.05.02-.05.05h0v5.79s.02.05.05.05h2.88s.05-.02.05-.05h0v-5.79" vector-effect="non-scaling-stroke"/>
            <path class="cls-3" d="m67.03,93.38s-.02-.05-.05-.05l-2.75-.02s-.05.02-.05.05h0l-.02,2.82s.02.05.05.05h0l2.75.02s.05-.02.05-.05h0l.02-2.82" vector-effect="non-scaling-stroke"/>
            <path class="cls-3" d="m75.75,93.44c0-.07-.05-.13-.11-.13l-5.61-.02c-.07,0-.13.05-.13.11l-.02,2.7c0,.07.05.13.11.13l5.61.02c.07,0,.13-.05.13-.11l.02-2.7" vector-effect="non-scaling-stroke"/>
            <path class="cls-3" d="m87.32,93.44c0-.07-.05-.13-.13-.13l-2.62.02c-.07,0-.13.05-.13.13l.02,2.7c0,.07.05.13.13.13l2.62-.02c.07,0,.13-.05.13-.13h0l-.02-2.7" vector-effect="non-scaling-stroke"/>
            <path class="cls-3" d="m17.57,3.06s-.02-.05-.05-.05H3.06s-.05.02-.05.05h0v14.49s.02.05.05.05h14.47s.05-.02.05-.05V3.06" vector-effect="non-scaling-stroke"/>
            <path class="cls-3" d="m32.02,8.97c0-.07-.05-.13-.13-.13h0l-2.61.02c-.07,0-.13.05-.13.13h0l.02,2.59c0,.07.05.13.13.13h0l2.61-.02c.07,0,.13-.05.13-.13h0l-.02-2.59" vector-effect="non-scaling-stroke"/>
            <path class="cls-3" d="m93.19,3.04s-.02-.05-.05-.05h-14.47s-.05.02-.05.05v14.49s.02.05.05.05h14.47s.05-.02.05-.05h0V3.04" vector-effect="non-scaling-stroke"/>
            <path class="cls-3" d="m14.62,5.95s-.02-.05-.05-.05H5.95s-.05.02-.05.05h0v8.63s.02.05.05.05h8.61s.05-.02.05-.05V5.95" vector-effect="non-scaling-stroke"/>
            <path class="cls-3" d="m90.27,5.93s-.02-.05-.05-.05h0l-8.59.02s-.05.02-.05.05h0l.02,8.63s.02.05.05.05h0l8.59-.02s.05-.02.05-.05h0l-.02-8.63" vector-effect="non-scaling-stroke"/>
            <path class="cls-3" d="m20.44,26.39c0-.05-.04-.09-.09-.09h-5.65c-.05,0-.09.04-.09.09v2.71c0,.05.04.09.09.09h5.65c.05,0,.09-.04.09-.09v-2.71" vector-effect="non-scaling-stroke"/>
            <path class="cls-3" d="m5.88,43.82s-.02-.05-.05-.05h0l-2.77.02s-.05.02-.05.05l.02,2.79s.02.05.05.05h0l2.77-.02s.05-.02.05-.05l-.02-2.79" vector-effect="non-scaling-stroke"/>
            <path class="cls-3" d="m26.38,61.24s-.07-.04-.07-.09v-2.71s-.04-.09-.07-.09h-5.68s-.07-.04-.07-.09h0v-2.8s-.04-.09-.07-.09h-5.7s-.09.04-.09.07h0l.07,2.8s.04.07.07.07h5.63s.07.04.07.09h0v2.79s.04.09.07.09h2.71s.07.04.07.09h0v2.79s.04.07.07.07l2.8.04s.07.04.07.09v2.66s.04.09.07.09h2.71s.07-.04.07-.09h0l.02-5.61s-.04-.07-.07-.07l-2.7-.09" vector-effect="non-scaling-stroke"/>
            <path class="cls-3" d="m20.53,64.24s-.07-.04-.07-.09h0v-2.8s-.04-.09-.07-.09h-2.73s-.07.04-.07.09h0l.02,2.75s.04.07.07.09l2.71.05s.07.04.07.09v2.68s.04.07.07.07l2.71.02s.07-.04.07-.09h0v-2.7s-.04-.09-.07-.09h-2.71" vector-effect="non-scaling-stroke"/>
            <path class="cls-3" d="m46.6,81.73s-.02-.05-.05-.05h-2.77s-.05.02-.05.05h0l.02,2.79s.02.05.05.05l2.77-.02s.05-.02.05-.05h0l-.02-2.77" vector-effect="non-scaling-stroke"/>
            <path class="cls-3" d="m32.04,84.72c0-.05-.05-.11-.11-.11h0l-2.64-.02c-.05,0-.11.05-.11.11h0l-.02,2.61c0,.05.05.11.11.11h0l2.64.02c.05,0,.11-.05.11-.11h0l.02-2.61" vector-effect="non-scaling-stroke"/>
            <path class="cls-3" d="m37.81,90.4s.07.04.07.07h0v2.77s.04.07.07.07h0l8.56-.02s.07-.04.07-.07h0l.02-5.72s-.04-.07-.07-.07h-2.71s-.07.04-.07.07h0v2.86s-.04.07-.07.07h0l-2.71-.04s-.07-.04-.07-.07h0l.02-2.84s-.04-.07-.07-.07h-8.72s-.07.04-.07.07h0l.09,2.8s.04.07.07.07h5.61" vector-effect="non-scaling-stroke"/>
            <path class="cls-3" d="m67.01,64.13v-2.75c0-.07-.04-.11-.11-.11h-2.57c-.07,0-.11.04-.11.11,0,1.83-.18,3.74-.04,5.57,0,.07.05.11.13.11h2.57c.09,0,.14.04.14.14v8.54c0,.05.04.09.09.09h2.7c.05,0,.09-.04.09-.09v-11.42c0-.07-.04-.09-.09-.09h-2.66c-.09,0-.14-.04-.14-.11" vector-effect="non-scaling-stroke"/>
            <path class="cls-3" d="m81.59,73.01s-.02-.05-.05-.05l-8.63-.02s-.05.02-.05.05h0l-.02,8.63s.02.05.05.05h0l8.63.02s.05-.02.05-.05h0l.02-8.63" vector-effect="non-scaling-stroke"/>
            <path class="cls-3" d="m75.73,84.65s-.02-.05-.05-.05h-2.79s-.05.02-.05.05v2.73s.02.05.05.05h2.79s.05-.02.05-.05v-2.73" vector-effect="non-scaling-stroke"/>
            <path class="cls-3" d="m78.6,75.87s-.02-.05-.05-.05h0l-2.77.02s-.05.02-.05.05l.02,2.79s.02.05.05.05h0l2.77-.02s.05-.02.05-.05l-.02-2.79" vector-effect="non-scaling-stroke"/>
            <path class="cls-3" d="m7.68,93.28c.09,0,.14,0,.2.04.04.02.07.04.13.04,3.16-.07,6.33-.07,9.48,0,.05,0,.09-.02.09-.09l.04-14.46s-.04-.09-.07-.09H3.09c-.05,0-.09.04-.09.09v14.38c0,.07.04.11.11.11,1.8.07,3.31.05,4.57-.02" vector-effect="non-scaling-stroke"/>
            <path class="cls-3" d="m14.62,81.73s-.02-.05-.05-.05H5.95s-.05.02-.05.05v8.63s.02.05.05.05h8.61s.05-.02.05-.05h0v-8.63" vector-effect="non-scaling-stroke"/>
          </g>
          <path class="cls-4" d="m20.44,20.41s-.02.05-.05.05H.09s-.05-.02-.05-.05V.05S.05,0,.09,0h20.32s.05.02.05.05v20.35h-.02Zm-2.88-17.35s-.02-.05-.05-.05H3.06s-.05.02-.05.05h0v14.49s.02.05.05.05h14.47s.05-.02.05-.05V3.06h-.02Z"/>
          <path class="cls-4" d="m35.01,17.53l-2.91.04c-.05,0-.09.04-.09.09l.05,2.71c0,.05.04.09.09.09h2.77c.05,0,.09-.04.09-.09v-2.84c.93.07,1.87.07,2.8-.02.05,0,.07-.04.07-.09v-2.71c0-.07.05-.13.11-.13h2.59c.16,0,.25.09.25.25v2.59c0,.07-.04.11-.11.11h-2.75c-.07,0-.11.04-.11.13v2.62c0,.07.05.13.13.13h0l2.71.02c.07,0,.11.04.11.11l.02,2.68c0,.05-.02.07-.07.07h-8.72c-.07,0-.09.04-.09.09l.05,2.64c0,.14-.07.22-.22.22h-2.54c-.07,0-.11-.04-.11-.11l-.02-14.38c0-.07-.05-.13-.13-.13h-5.63c-.05,0-.09-.04-.09-.09v-2.66c0-.05.04-.09.09-.09h2.79c.05,0,.09-.04.09-.09V3.07c0-.07-.04-.09-.09-.09h-2.79c-.05,0-.09-.04-.09-.09V.11c0-.05.04-.09.09-.09h5.66c.05,0,.09.04.09.09v5.68c0,.05.02.07.07.07l5.54.02c.16,0,.23-.07.23-.23v-2.57c0-.05-.04-.09-.09-.09h-2.79c-.05,0-.09-.04-.09-.09V.11c0-.05.04-.09.09-.09h5.66c.05,0,.09.04.09.09l.02,8.7c0,.05-.02.07-.07.07h-2.71c-.05,0-.09.04-.09.09l.02,8.56Zm-2.98-8.56c0-.07-.05-.13-.13-.13h0l-2.61.02c-.07,0-.13.05-.13.13h0l.02,2.59c0,.07.05.13.13.13h0l2.61-.02c.07,0,.13-.05.13-.13h0l-.02-2.59Z"/>
          <path class="cls-4" d="m78.62,32.02l-2.8.05c-.05,0-.07.02-.07.07l-.02,2.82c0,.07.04.11.11.11l2.7-.04c.07,0,.11-.04.11-.11l-.02-2.91,2.82.07c.07,0,.11.04.11.11l.04,2.73c0,.05-.04.09-.09.09h-2.79c-.05,0-.09.04-.09.09v2.71c0,.07-.04.11-.11.11l-2.7.02c-.05,0-.09.04-.09.09l.02,2.79c0,.05.04.09.09.09h5.66c.05,0,.09.04.09.09v2.64c0,.05-.04.09-.09.09l-5.66.05c-.05,0-.09.04-.09.09v2.68c0,.07-.04.09-.09.09h-2.64c-.07,0-.14.05-.14.14v5.61c0,.07-.04.09-.09.09h-5.66c-.05,0-.09-.04-.09-.09v-2.7c0-.05.04-.09.09-.09h2.71c.05,0,.11-.05.11-.11h0l-.04-2.75c0-.07-.04-.09-.09-.11l-2.66-.02c-.07,0-.11-.04-.11-.11v-5.5c0-.09-.07-.18-.18-.18h0l-2.5.05c-.07,0-.09.04-.09.11l-.02,11.34c0,.07-.05.13-.13.13h-.05c-.07,0-.13-.04-.13-.13v-14.26c0-.09.05-.23.18-.41.04-.05.05-.11.05-.16,0-.92.02-1.71-.11-2.7-.09-.68-.13-1.4-.11-2.14,0-.18-.09-.27-.27-.27l-2.39-.05c-.05,0-.09-.04-.09-.09v-2.97c0-.05-.04-.09-.09-.09h-2.79c-.05,0-.09.04-.09.09h0l.07,2.59c0,.09-.07.16-.16.16h0c-.81,0-1.56.02-2.37.11-1.53.16-3.33.13-4.53.14-1.78.04-3.47.07-5.32,0-.68-.02-1.35-.04-2.03,0-.07,0-.13-.04-.13-.11l-.02-.11c-.02-.09.02-.13.11-.13h2.66c.05,0,.09-.04.09-.09v-2.66l2.62-.05c.18,0,.34.14.34.32h0v2.36c0,.07.04.13.11.13l2.66-.04c.07,0,.11-.04.11-.11v-2.52c0-.05-.04-.09-.09-.09l-2.7-.07c-.05,0-.09-.04-.09-.09v-8.43c0-.11.07-.18.18-.18h2.61c.05,0,.09-.04.09-.09l-.02-2.66c0-.07.04-.13.13-.13h2.66c.07,0,.13.04.13.13l-.04,2.59c0,.09.07.18.16.18h2.73c.05,0,.09-.04.09-.09v-2.7c0-.05.04-.09.09-.09h2.7c.05,0,.09.04.09.09v5.57c0,.05-.04.09-.09.09l-2.73.04c-.05,0-.09.04-.09.09l.04,2.77c0,.05.04.09.09.09h5.66c.07,0,.11.04.11.11-.07,2.79-.02,5.56.14,8.34,0,.16.14.27.29.27h2.34c.05,0,.09.04.09.09v2.73c0,.05.04.09.09.09h2.7c.05,0,.09.04.09.09v5.65s.04.07.07.07h0l2.8-.04c.05,0,.09-.04.09-.09l.02-5.59c0-.07-.04-.13-.11-.13h-2.77c-.05,0-.09-.04-.09-.09l-.02-2.57c0-.18.09-.27.25-.27h2.62c.05,0,.09-.04.09-.09v-11.49c0-.07-.04-.11-.11-.11h-5.63c-.07,0-.14.05-.14.14v.02c.05.9.05,1.83-.02,2.77l-2.7.04c-.05,0-.07-.02-.07-.07l-.02-8.52c0-.07.04-.11.11-.11h2.59c.09,0,.14.04.14.14v2.66c0,.05.04.09.09.09h2.7c.05,0,.09-.04.09-.09v-5.66c0-.05-.04-.09-.09-.09h-5.57c-.05,0-.09-.04-.09-.09l.07-2.71c0-.05.02-.07.07-.07l2.62.02c.09,0,.13-.04.13-.13l-.02-2.64c0-.05-.05-.11-.11-.11h-5.61c-.07,0-.11-.04-.11-.11v-2.79c0-.05-.04-.09-.09-.09h-5.66c-.05,0-.09.04-.09.09l-.02,2.79c0,.05.04.09.09.09h0l2.8-.02c.05,0,.09.04.09.09v5.56c0,.07-.04.11-.11.11h-2.75c-.07,0-.14-.05-.14-.14h0l.02-2.68c0-.05-.04-.09-.09-.09h-2.7c-.07,0-.09-.04-.09-.11v-5.61c0-.07-.04-.11-.11-.11h-2.64c-.07,0-.14.07-.14.14h0l.04,5.56c0,.05-.04.09-.09.09h-2.8c-.05,0-.09-.04-.09-.09l.02-2.66c0-.07-.04-.11-.11-.11l-2.7.02c-.05,0-.09.04-.09.09v5.59s-.04.07-.07.07h-2.7c-.07,0-.11-.04-.11-.11V5.95c0-.07.04-.11.11-.11h2.68c.05,0,.09-.04.09-.09v-2.64c0-.09.04-.13.13-.13h2.71c.05,0,.09-.04.09-.09l-.07-2.68c0-.13.05-.18.18-.18h2.7c.05,0,.09.04.09.09v2.79c0,.05.04.09.09.09h5.57c.05,0,.09-.04.09-.09V.14C55.32.05,55.36,0,55.47,0h5.54c.13,0,.18.05.18.18v2.66c0,.09.05.14.14.14l5.45.04c.13,0,.25.11.25.23v5.39c0,.11.09.2.2.2h2.59c.05,0,.09.04.09.09v2.61c0,.11.05.18.18.18l2.64-.04c.07,0,.14.05.14.14h0v11.27c0,.16.07.23.23.23l2.52-.02c.07,0,.11.04.11.11l.04,5.74s.02.07.07.07h2.71c.05,0,.09.04.09.09l-.02,2.7Z"/>
          <path class="cls-4" d="m69.78,2.97h-2.62c-.07,0-.13-.05-.13-.13h0V.13C67.03.05,67.08,0,67.15,0h5.59c.07,0,.13.05.13.13h0v8.61c0,.07-.05.13-.13.13h0l-2.71-.04c-.07,0-.13-.05-.13-.13V3.09c0-.05-.05-.13-.13-.13h0Z"/>
          <path class="cls-4" d="m96.13,20.41s-.02.05-.05.05h-20.3s-.05-.02-.05-.05h0V.05S75.75,0,75.78,0h20.32s.05.02.05.05h0v20.35h-.02Zm-2.95-17.37s-.02-.05-.05-.05h-14.47s-.05.02-.05.05v14.49s.02.05.05.05h14.47s.05-.02.05-.05h0V3.04Z"/>
          <path class="cls-4" d="m81.63,5.9l8.59-.02s.05.02.05.05l.02,8.63s-.02.05-.05.05l-8.59.02s-.05-.02-.05-.05l-.02-8.63s.02-.05.05-.05Z"/>
          <path class="cls-4" d="m5.95,5.9h8.61s.05.02.05.05v8.63s-.02.05-.05.05H5.95s-.05-.02-.05-.05V5.95s.04-.05.05-.05Z"/>
          <path class="cls-4" d="m49.57,17.66l.02,2.73s-.04.07-.07.07h-2.84s-.07-.04-.07-.07l.04-5.7s.04-.07.07-.07h5.68s.07.04.07.07v2.82s-.04.07-.07.07h-2.73c-.05,0-.09.04-.09.07Z"/>
          <path class="cls-4" d="m23.41,17.58h2.8s.07.04.07.07v2.71s-.04.07-.07.07h-2.8s-.07-.04-.07-.07v-2.71s.02-.07.07-.07Z"/>
          <path class="cls-4" d="m43.74,20.46h-2.75c-.07,0-.11-.04-.11-.11l.02-2.62c0-.09.05-.14.14-.14h2.61c.05,0,.09.04.09.09v2.79Z"/>
          <path class="cls-4" d="m43.74,20.46h2.79c.05,0,.09.04.09.09v2.7c0,.07-.04.09-.09.09h-2.68c-.05,0-.09.04-.09.09v2.84l-2.71.04c-.11,0-.18-.05-.18-.18l.07-2.68c0-.05.05-.11.11-.11h2.62c.05,0,.09-.04.09-.09l-.02-2.79Z"/>
          <path class="cls-4" d="m23.27,32.06h-5.61s-.07.04-.07.07h0v2.8s.04.07.07.07h2.71s.07.04.07.07h0v2.75s-.04.07-.07.07h-2.71s-.07-.04-.07-.07h0v-2.77s-.04-.07-.07-.07h-5.68s-.07-.04-.07-.07h0v-2.8s-.04-.07-.07-.07h0l-2.68-.04s-.07-.04-.07-.07h0v-2.66s.04-.07.07-.07h2.68s.07-.04.07-.07h0v-5.7s.04-.07.07-.07h0l8.54-.02s.07.04.07.07l.04,2.82s.04.07.07.07l2.71.02s.07-.04.07-.07h0v-2.8s.04-.07.07-.07h2.8s.07.04.07.07h0v2.82s-.04.07-.07.07h0l-2.8-.02s-.07.04-.07.07h0v2.77s.04.07.07.07h2.8s.07.04.07.07h0v5.66s.04.07.07.07h0l2.71-.02s.07.04.07.07h0l.04,2.75s-.04.07-.07.07h-2.73s-.07.04-.07.07h0v2.8s-.04.07-.07.07h-2.8s-.07-.04-.07-.07h0v-2.8s.04-.07.07-.07h2.8s.07-.04.07-.07v-2.77s-.04-.07-.07-.07h-2.8s-.07-.04-.07-.07h0l.02-2.8s-.07-.07-.11-.07Zm-2.82-5.66c0-.05-.04-.09-.09-.09h-5.65c-.05,0-.09.04-.09.09v2.71c0,.05.04.09.09.09h5.65c.05,0,.09-.04.09-.09v-2.71Z"/>
          <path class="cls-4" d="m5.84,35.02h-2.73s-.07-.04-.07-.07l-.02-8.56s.04-.07.07-.07h2.73s.07-.04.07-.07h0v-2.82s.04-.07.07-.07h2.8s.07.04.07.07h0v5.68s-.04.07-.07.07l-2.8.04s-.07.04-.07.07v2.68s.04.07.07.07h2.8s.07.04.07.07h0l.02,5.72s-.04.07-.07.07h-2.82s-.07-.04-.07-.07h0l.04-2.75s-.04-.05-.09-.05h0Z"/>
          <path class="cls-4" d="m84.36,32.07l-2.68-.04c-.05,0-.11-.05-.09-.11v-5.52c0-.05.05-.11.11-.11h2.68c.05,0,.11-.05.11-.11v-2.77c0-.05.05-.11.11-.11h2.62c.05,0,.11.05.11.11v14.38c0,.05-.04.11-.11.11l-2.62.02c-.05,0-.11-.04-.11-.09h0v-5.68c-.02-.05-.07-.09-.13-.09Z"/>
          <path class="cls-4" d="m93.26,23.34h2.8s.07.04.07.09v2.8s-.04.07-.09.07h-2.8s-.07-.04-.07-.09v-2.8s.05-.07.09-.07Z"/>
          <path class="cls-4" d="m43.74,26.27l2.77.04c.07,0,.11.04.11.11v2.82l-2.79-.04c-.07,0-.09-.04-.09-.09v-2.84Z"/>
          <path class="cls-4" d="m66.97,26.27l2.77.04c.11,0,.16.05.16.16v2.64c0,.05-.04.09-.09.09l-2.7.02c-.05,0-.09-.02-.09-.09l-.05-2.86Z"/>
          <path class="cls-4" d="m37.88,31.84v-2.54c0-.05.04-.09.09-.09h2.79c.05,0,.09.04.09.09v2.89c0,.09-.07.14-.14.16-2.03.04-4.03-.05-6.06-.25-.83-.07-1.65-.09-2.48-.04-.07,0-.13-.04-.13-.11v-2.66c0-.05.04-.09.09-.09h2.79c.05,0,.09.04.09.09v2.48c0,.07.04.11.11.11l2.62.07c.11.02.14-.04.14-.13Z"/>
          <path class="cls-4" d="m93.28,29.22h2.77c.05,0,.11.05.11.11v8.52c0,.05-.05.11-.11.11h-2.77c-.05,0-.11-.05-.11-.11v-8.52c.02-.05.05-.11.11-.11Z"/>
          <path class="cls-4" d="m29.18,78.71l-2.79.02c-.07,0-.11.04-.11.11l.02,2.77c0,.05.04.09.09.09h2.7c.05,0,.09-.04.09-.09v-2.89l5.74-.02c.07,0,.11.04.11.11v5.68c0,.07.05.11.11.11h0l2.68-.07c.05,0,.09-.04.09-.09l-.02-5.63c0-.07.04-.11.11-.11h2.77c.05,0,.09-.04.09-.09v-2.64c0-.07.07-.14.14-.14h5.52c.05,0,.09.04.09.09l-.02,2.7c0,.05.04.09.09.09h2.79c.05,0,.09-.04.09-.09v-2.7c0-.05-.04-.09-.09-.09h-2.79c-.05,0-.09-.04-.09-.09v-5.66c0-.05.04-.09.09-.09h2.77c.07,0,.11.04.11.11l.02,2.77c0,.05.04.09.09.09l5.5-.02c.07,0,.11.04.11.11l.02,2.66c0,.05-.05.11-.11.11h-2.61c-.07,0-.11.04-.11.11l-.02,2.68c0,.07.04.13.11.11l2.71-.02.04,5.79c0,.05-.02.07-.07.07l-5.57.02c-.05,0-.09.04-.09.09v2.66c0,.05.04.09.09.09l2.7-.02c.05,0,.07.02.07.07v2.91h-2.75c-.09,0-.13.04-.13.13v2.79l-2.86.02c-.07,0-.11.04-.11.11v2.7c0,.05-.04.09-.09.09h-20.14c-.05,0-.09-.04-.09-.09v-5.68s-.04-.07-.07-.07h-2.8c-.05,0-.09-.04-.09-.09v-2.79c0-.05.04-.09.09-.09h2.66c.13,0,.22.11.22.22v2.52c0,.13.11.23.23.23h2.41c.13,0,.23.11.23.23v2.61c0,.05.04.09.09.09h2.7c.07,0,.09-.04.09-.09l-.04-2.68c0-.05-.04-.09-.09-.09l-2.66-.05c-.05,0-.09-.04-.09-.09l-.04-2.79c0-.07-.04-.09-.11-.09h-2.66c-.07,0-.09-.04-.09-.09l.05-2.52c0-.16-.07-.25-.23-.25l-2.68-.02c-.05,0-.09-.04-.09-.09v-5.63c0-.05.04-.09.09-.09h2.77c.07,0,.14-.05.14-.14v-2.64c0-.05-.04-.09-.09-.09h-2.79c-.05,0-.09-.04-.09-.09v-5.66c0-.05-.04-.09-.09-.09h-2.66c-.07,0-.11-.04-.11-.11l-.02-2.7c0-.05-.04-.09-.09-.09l-5.63-.05c-.07,0-.13.04-.13.11l-.02,2.82h-5.59c-.07,0-.13-.04-.13-.13v-2.66c0-.09-.04-.13-.13-.13h-2.88l.04-2.75c0-.05.04-.09.09-.09h5.61c.07,0,.09-.04.09-.09v-2.68c0-.14.07-.22.22-.22l2.59-.02c.05,0,.07-.02.07-.07l-.02-2.71c0-.05-.04-.09-.09-.09h-5.41c-.11,0-.2-.09-.2-.2l-.02-2.68c0-.05.04-.09.09-.09h2.66c.05,0,.09-.04.09-.09v-2.61c0-.09-.04-.13-.13-.13l-2.61-.07c-.07,0-.09.04-.09.09v2.68c0,.07-.05.14-.14.14H.09c-.05,0-.09-.04-.09-.09v-5.57c0-.05.04-.09.09-.09h2.79c.05,0,.09-.04.09-.09v-2.79c0-.07-.04-.09-.09-.09H.13c-.05,0-.09-.04-.09-.09v-11.45c0-.05.02-.07.07-.07l2.75-.04c.07,0,.14.05.14.13h0v5.66c0,.05.04.09.09.09h2.7c.07,0,.09.04.09.09l.04,2.64c0,.09.04.13.13.13h2.7c.05,0,.09.04.09.09v2.55c0,.14-.13.27-.27.27h0l-2.54-.02c-.11,0-.14.05-.14.14l.05,2.7c0,.09.05.13.14.13h2.66c.07,0,.13-.04.13-.13l.04-2.75c0-.05.04-.09.09-.09h2.64c.05,0,.09.04.09.09v2.77c0,.05.05.11.11.11h0l2.7-.02c.05,0,.07.02.07.07v2.73c0,.05.04.09.09.09h5.66c.05,0,.09-.04.09-.09v-2.68c0-.07-.04-.11-.11-.11l-2.68-.02c-.07,0-.11-.04-.11-.13l.05-2.75c0-.05.04-.09.09-.09h5.54c.05,0,.09.04.09.09v2.79c0,.05.04.09.09.09h2.77c.07,0,.11.04.11.11v2.68c0,.05-.04.09-.09.09h-2.79c-.05,0-.09.04-.09.09v2.7c0,.05.04.09.09.09h2.57c.22,0,.32.11.32.32l-.02,2.39c0,.14.11.25.25.25h2.54c.05,0,.09.04.09.09v2.59c0,.14.13.27.27.27h2.48c.07,0,.11.04.11.11l.02,11.49c0,.05.04.09.09.09h8.63c.05,0,.09.04.09.09v2.7c0,.05-.04.09-.09.09h-11.51c-.05,0-.09.04-.09.09h0l.02,2.79ZM5.88,43.82s-.02-.05-.05-.05h0l-2.77.02s-.05.02-.05.05l.02,2.79s.02.05.05.05h0l2.77-.02s.05-.02.05-.05l-.02-2.79Zm20.5,17.42s-.07-.04-.07-.09v-2.71s-.04-.09-.07-.09h-5.68s-.07-.04-.07-.09h0v-2.8s-.04-.09-.07-.09h-5.7s-.09.04-.09.07h0l.07,2.8s.04.07.07.07h5.63s.07.04.07.09h0v2.79s.04.09.07.09h2.71s.07.04.07.09h0v2.79s.04.07.07.07l2.8.04s.07.04.07.09v2.66s.04.09.07.09h2.71s.07-.04.07-.09h0l.02-5.61s-.04-.07-.07-.07l-2.7-.09Zm-5.84,3s-.07-.04-.07-.09h0v-2.8s-.04-.09-.07-.09h-2.73s-.07.04-.07.09h0l.02,2.75s.04.07.07.09l2.71.05s.07.04.07.09v2.68s.04.07.07.07l2.71.02s.07-.04.07-.09h0v-2.7s-.04-.09-.07-.09h-2.71v.02Zm26.07,17.49s-.02-.05-.05-.05h-2.77s-.05.02-.05.05h0l.02,2.79s.02.05.05.05l2.77-.02s.05-.02.05-.05h0l-.02-2.77Zm-14.56,2.98c0-.05-.05-.11-.11-.11h0l-2.64-.02c-.05,0-.11.05-.11.11h0l-.02,2.61c0,.05.05.11.11.11h0l2.64.02c.05,0,.11-.05.11-.11h0l.02-2.61Zm5.77,5.68s.07.04.07.07h0v2.77s.04.07.07.07h0l8.56-.02s.07-.04.07-.07h0l.02-5.72s-.04-.07-.07-.07h-2.71s-.07.04-.07.07h0v2.86s-.04.07-.07.07h0l-2.71-.04s-.07-.04-.07-.07h0l.02-2.84s-.04-.07-.07-.07h-8.72s-.07.04-.07.07h0l.09,2.8s.04.07.07.07h5.61v.04Z"/>
          <path class="cls-4" d="m29.18,43.78l.02-5.65c0-.11.09-.18.18-.18l2.32-.04c.14,0,.25-.13.25-.25l-.02-2.45c0-.07.04-.14.09-.18.13-.07.22.02.22.14.02.97.04,1.94.05,2.91.04,1.74-.23,3.63-.27,5.47,0,.11-.09.2-.2.2l-2.64.02Z"/>
          <path class="cls-1" d="m47.82,41.1c-5.21.22-8.79,5.59-6.18,10.45,3.07,5.74,11.27,4.75,13.12-1.4.16-.52.2-1.2.31-1.8.02-.09.05-.13.14-.13l5.56.05c.07,0,.11.04.11.11-.38,11.51-13.77,17.01-22.04,9.08-4.23-4.06-5.05-10.82-2.01-15.84,2.37-3.94,6.02-6.06,10.95-6.4.09,0,.16.05.16.14v5.63c-.02.05-.05.11-.11.11Z"/>
          <path class="cls-4" d="m90.44,37.94l2.61.02c.07,0,.13.05.13.14l-.02,2.7c0,.07-.05.13-.14.13l-2.61-.02c-.07,0-.13-.05-.13-.14l.02-2.7c0-.05.07-.13.14-.13Z"/>
          <path class="cls-4" d="m8.95,40.92h2.7s.07.04.07.07v2.7s-.04.07-.07.07h-2.7s-.07-.04-.07-.07v-2.7c.02-.05.04-.07.07-.07Z"/>
          <path class="cls-4" d="m17.57,43.83l.02,2.75c0,.05-.04.09-.09.09h-2.79c-.05,0-.09-.04-.09-.09v-5.57c0-.05.04-.09.09-.09h5.65c.05,0,.09.04.09.09v2.66c0,.05-.04.09-.09.09h-2.7c-.05-.02-.09.02-.09.07Z"/>
          <path class="cls-2" d="m48.02,41.12l6.89-.02c.07,0,.13.05.13.11l.02,6.89c0,.07-.05.13-.11.13l-6.89.02c-.07,0-.13-.05-.13-.11l-.02-6.89c0-.07.05-.13.11-.13Z"/>
          <path class="cls-4" d="m58.31,78.66l5.74.04c.07,0,.11-.05.11-.11h0v-2.61c0-.09-.04-.14-.14-.14h-5.57c-.09,0-.13.04-.13.13v2.7l-3.02.04.04-2.64c0-.16.09-.23.25-.23h2.46c.14,0,.27-.13.27-.27l.02-2.5c0-.07.04-.11.11-.11h5.56c.11,0,.2-.09.2-.2h0l-.05-5.56c0-.05-.04-.07-.07-.07l-2.77-.02c-.07,0-.09.04-.09.11v2.7c0,.05-.04.09-.09.09h-2.66c-.09,0-.13.04-.13.13v2.52c0,.18-.14.34-.34.34h0l-2.45-.04c-.09,0-.18-.07-.18-.18v-2.68c0-.05.04-.09.09-.09h2.71c.07,0,.14-.05.14-.14v-2.64c0-.07-.05-.14-.14-.14h-5.57c-.05,0-.09-.04-.09-.09l-.04-2.54c0-.07-.04-.11-.11-.11l-2.68-.04c-.05,0-.11.04-.11.11h0l.02,2.59c0,.05-.02.07-.07.07h-8.56c-.05,0-.09-.04-.09-.09v-2.61c0-.05-.04-.09-.09-.09l-2.7.09c-.14,0-.22.07-.22.22l.04,2.37c0,.07-.04.11-.11.11l-2.71.02c-.05,0-.09-.04-.09-.09v-2.66c0-.09.04-.13.13-.11.7.05,1.4.05,2.09,0,4.49-.43,9.08-.4,13.59-.23,1.08.04,2.8.32,4.28.14,1.06-.13,2.05-.07,2.91-.13,1.92-.11,3.83-.14,5.72-.13.07,0,.13-.05.13-.13h0l-.05-8.27c0-.07.04-.09.09-.09h3.02c.05,0,.09.04.09.09v5.7c0,.05.04.09.09.09h5.68s.07.04.07.07l-.04,5.65s.02.05.05.05l2.73.04c.07,0,.11.04.11.11v2.7c0,.05.04.09.09.09h8.54c.05,0,.09-.04.09-.09v-5.56c0-.07-.04-.11-.11-.11h-5.63c-.05,0-.09.04-.09.09v2.66c0,.07-.04.11-.09.11h-2.68c-.07,0-.09-.04-.09-.09v-11.51c0-.05-.04-.09-.09-.09h-2.66c-.09,0-.14-.05-.14-.14l.04-2.55c0-.07.04-.11.11-.11l2.64-.05c.05,0,.09-.04.09-.09v-2.68c0-.07.04-.11.11-.11h2.54c.16,0,.25.09.25.25l-.02,11.31c0,.07.04.09.09.09h5.63c.09,0,.14.04.14.14v2.73c0,.05.04.09.09.09h2.68s.07.02.07.07l.02,8.54c0,.07-.04.11-.11.11l-2.64-.02c-.07,0-.09.04-.09.09v2.7c0,.05.04.09.09.09h5.54c.14,0,.23-.07.23-.23v-11.27c0-.05.04-.09.09-.09h2.7c.05,0,.09-.04.09-.09v-2.8c0-.05-.04-.09-.09-.09l-5.65-.04c-.09,0-.13-.05-.13-.14l.04-2.66c0-.07-.04-.09-.09-.09h-2.7c-.05,0-.09-.04-.09-.09v-2.73c0-.09.04-.13.13-.13h2.61c.05,0,.11.05.11.11v2.66c0,.11.09.18.18.18h2.73c.05,0,.09-.04.09-.09v-2.79c0-.05-.04-.09-.09-.09h-2.79c-.05,0-.09-.04-.09-.09v-2.64c0-.05.04-.09.09-.09l5.7-.05s.05-.02.05-.07v-8.61s.02-.05.05-.05l2.8.02c.07,0,.11.04.11.11v11.4c0,.05-.04.09-.09.09h-2.79c-.05,0-.09.04-.09.09v2.79c0,.05.04.09.09.09h2.79c.05,0,.09.04.09.09v8.54c0,.05-.04.09-.09.09h-2.73c-.11,0-.16.05-.16.16l.02,2.66c0,.07.04.09.11.11l2.8-.02c.05,0,.07.02.07.07v8.59s-.04.07-.07.07h-2.89c-.05,0-.09.04-.09.09h0l.05,2.8c0,.05.04.09.09.09h2.73c.09,0,.14.04.14.14v2.62c0,.07-.04.11-.11.11l-2.8.04c-.05,0-.09.04-.09.09l.04,2.68c0,.05.04.09.09.09h2.73c.09,0,.14.04.14.14v8.59c0,.07-.07.14-.14.14h0l-2.71-.04c-.07,0-.09-.04-.09-.11v-2.75c0-.07-.04-.09-.09-.09h-2.7c-.05,0-.09-.04-.09-.09v-2.7c0-.05.04-.09.09-.09h2.68c.07,0,.13-.04.13-.13l-.05-2.79c0-.07-.04-.09-.09-.09h-2.7s-.07-.04-.07-.07l.02-2.66c0-.09-.04-.13-.13-.13l-2.75-.02c-.05,0-.09-.04-.09-.09v-2.68c0-.07-.04-.09-.09-.09h-2.7c-.05,0-.09.04-.09.09v2.73c0,.05-.04.09-.09.09h-2.73c-.05,0-.09.04-.09.09h0l.07,5.52c0,.13-.05.18-.18.18h-14.29c-.05,0-.09-.04-.09-.09v-2.79c0-.05.04-.09.09-.09h2.7c.05,0,.09-.04.09-.09v-8.56s-.04-.07-.07-.07h-5.57c-.07,0-.11.04-.11.11v2.7c0,.09.07.16.16.16h2.61c.07,0,.13.04.13.13l-.04,2.64c0,.09-.04.13-.13.13h-2.59c-.07,0-.09-.04-.09-.09l-.04-2.68c0-.07-.05-.13-.13-.13h-5.57c-.09,0-.13-.04-.13-.13l-.09-2.95Zm8.7-14.53v-2.75c0-.07-.04-.11-.11-.11h-2.57c-.07,0-.11.04-.11.11,0,1.83-.18,3.74-.04,5.57,0,.07.05.11.13.11h2.57c.09,0,.14.04.14.14v8.54c0,.05.04.09.09.09h2.7c.05,0,.09-.04.09-.09v-11.42c0-.07-.04-.09-.09-.09h-2.66c-.09,0-.14-.04-.14-.11Zm14.58,8.88s-.02-.05-.05-.05l-8.63-.02s-.05.02-.05.05h0l-.02,8.63s.02.05.05.05h0l8.63.02s.05-.02.05-.05h0l.02-8.63Zm-5.86,11.63s-.02-.05-.05-.05h-2.79s-.05.02-.05.05v2.73s.02.05.05.05h2.79s.05-.02.05-.05v-2.73Z"/>
          <path class="cls-4" d="m29.18,43.78v2.79c0,.07-.04.09-.11.09h-2.7c-.05,0-.09-.04-.09-.09v-2.7c0-.05.04-.09.09-.09h2.8Z"/>
          <path class="cls-4" d="m87.4,43.78h2.86s.05.02.05.05v2.77s-.02.05-.05.05h-2.86s-.05-.02-.05-.05v-2.77s.02-.05.05-.05Z"/>
          <path class="cls-4" d="m81.48,49.62h-2.77c-.05,0-.11-.05-.11-.11v-2.73c0-.05.05-.11.11-.11h5.63c.05,0,.11.05.11.11h0v8.5c0,.05-.05.11-.11.11h-2.68c-.05,0-.11-.05-.11-.11l.02-5.56c.02-.07-.04-.11-.09-.11Z"/>
          <path class="cls-4" d="m31.97,52.43c-.02-.92,0-1.83.04-2.75,0-.09.05-.11.14-.09.05.02.09.05.09.13.05,1.15.09,2.3.11,3.45.04,1.47-.13,3.38-.07,5.11,0,.07-.05.14-.14.14h-.04c-.25-.05-.16-2.52-.16-2.8,0-.13-.09-.22-.22-.22h-5.27c-.09,0-.13-.04-.13-.13l-.05-2.55c0-.07.05-.14.13-.14h0l5.47-.04c.07-.02.11-.05.11-.11h0Z"/>
          <path class="cls-4" d="m69.96,55.39l2.86.02s.05.02.05.05l-.02,2.86s-.02.05-.05.05l-2.86-.02s-.05-.02-.05-.05l.02-2.86s.02-.05.05-.05Z"/>
          <path class="cls-4" d="m.09,58.36l8.72-.02s.05.02.05.05v2.79s-.02.05-.05.05H.09s-.05-.02-.05-.05v-2.79s.04-.04.05-.04Z"/>
          <path class="cls-4" d="m5.88,67.08v2.8c0,.07-.04.13-.13.13l-2.61-.02c-.07,0-.11-.04-.11-.11v-2.66c0-.09-.05-.14-.14-.14l-2.77-.02c-.05,0-.09-.04-.09-.09v-2.64c0-.07.04-.09.09-.09h2.79c.05,0,.09.04.09.09v2.52c0,.13.11.23.23.23h2.64Z"/>
          <path class="cls-4" d="m40.96,69.99l2.64-.04c.05,0,.11.05.11.11l.04,2.75c0,.05-.05.11-.11.11l-2.64.04c-.05,0-.11-.05-.11-.11l-.04-2.75c0-.05.05-.11.11-.11Z"/>
          <path class="cls-4" d="m.11,69.99h2.86s.05.02.05.05v2.86s-.02.05-.05.05H.11s-.05-.02-.05-.05v-2.86s.02-.05.05-.05Z"/>
          <path class="cls-4" d="m6.01,69.99h2.75c.05,0,.11.05.11.11v2.75c0,.05-.05.11-.11.11h-2.75c-.05,0-.11-.05-.11-.11v-2.75c0-.05.04-.11.11-.11Z"/>
          <path class="cls-4" d="m14.62,69.99h5.75c.07,0,.11.04.11.11l-.04,2.73c0,.07-.04.13-.13.13h-5.61c-.05,0-.09-.04-.09-.09v-2.88Z"/>
          <path class="cls-4" d="m20.44,96.12c0,.07-.05.13-.13.13H.18c-.07,0-.13-.05-.13-.13v-20.14c0-.07.05-.13.13-.13h20.14c.07,0,.13.05.13.13v20.14Zm-12.77-2.84c.09,0,.14,0,.2.04.04.02.07.04.13.04,3.16-.07,6.33-.07,9.48,0,.05,0,.09-.02.09-.09l.04-14.46s-.04-.09-.07-.09H3.09c-.05,0-.09.04-.09.09v14.38c0,.07.04.11.11.11,1.8.07,3.31.05,4.57-.02Z"/>
          <path class="cls-4" d="m75.78,75.84l2.77-.02s.05.02.05.05l.02,2.79s-.02.05-.05.05l-2.77.02s-.05-.02-.05-.05l-.02-2.79s.02-.05.05-.05Z"/>
          <path class="cls-4" d="m5.95,81.68h8.61s.05.02.05.05v8.63s-.02.05-.05.05H5.95s-.05-.02-.05-.05v-8.63s.02-.05.05-.05Z"/>
          <path class="cls-4" d="m49.57,93.33h2.77c.07,0,.11-.04.11-.11v-2.82l2.8-.02c.05,0,.07-.02.07-.07v-2.79c0-.05.04-.09.09-.09h2.75c.09,0,.14.04.14.14v5.65c0,.07-.04.11-.11.11h-2.73c-.09,0-.18.07-.18.18h0l.05,2.66c0,.07-.04.11-.11.11l-5.57-.02c-.05,0-.09-.04-.09-.09h0v-2.84Z"/>
          <path class="cls-4" d="m61.22,87.43h2.88s.05.02.05.05v5.79s-.02.05-.05.05h-2.88s-.05-.02-.05-.05v-5.79s.04-.05.05-.05Z"/>
          <path class="cls-4" d="m64.22,93.33l2.75.02s.05.02.05.05l-.02,2.82s-.02.05-.05.05l-2.75-.02s-.05-.02-.05-.05l.02-2.82s.02-.05.05-.05Z"/>
          <path class="cls-4" d="m70.01,93.31l5.61.02c.07,0,.11.05.11.13l-.02,2.7c0,.07-.05.11-.13.11l-5.61-.02c-.07,0-.11-.05-.11-.13l.02-2.7c.02-.05.07-.11.13-.11Z"/>
          <path class="cls-4" d="m84.57,93.33l2.62-.02c.07,0,.13.05.13.13l.02,2.7c0,.07-.05.13-.13.13l-2.62.02c-.07,0-.13-.05-.13-.13l-.02-2.7c0-.07.05-.13.13-.13Z"/>
        </g>
      </g>
    </g>
  </g>
</svg>